<svg width="16" height="16" viewBox="0 0 16 16" fill="none" xmlns="http://www.w3.org/2000/svg">
<g id="apple 1">
<g id="Group">
<path id="Vector" d="M5.78902 16C3.40774 15.9863 1.43799 11.1253 1.43799 8.64972C1.43799 4.60584 4.47158 3.72053 5.64071 3.72053C6.16758 3.72053 6.73018 3.92744 7.2264 4.11053C7.5734 4.23825 7.93227 4.37009 8.13186 4.37009C8.25133 4.37009 8.53286 4.25794 8.78143 4.15953C9.31152 3.9485 9.97115 3.68622 10.7393 3.68622C10.7406 3.68622 10.7425 3.68622 10.7438 3.68622C11.3174 3.68622 13.0565 3.81209 14.102 5.38222L14.3469 5.75025L13.9944 6.01622C13.4909 6.39616 12.5721 7.08922 12.5721 8.46206C12.5721 10.088 13.6126 10.7133 14.1125 11.0141C14.3332 11.1468 14.5616 11.2837 14.5616 11.5831C14.5616 11.7786 13.0015 15.9758 10.7361 15.9758C10.1817 15.9758 9.78986 15.8092 9.44424 15.6622C9.09452 15.5134 8.79283 15.3853 8.29433 15.3853C8.04165 15.3853 7.72211 15.5047 7.38383 15.6316C6.92155 15.8041 6.3983 16 5.80458 16H5.78902Z" fill="#071232"/>
<path id="Vector_2" d="M10.979 0C11.038 2.12737 9.51664 3.60325 7.99701 3.51069C7.7466 1.81297 9.51645 0 10.979 0Z" fill="#071232"/>
</g>
</g>
</svg>
