<svg width="344" height="251" viewBox="0 0 344 251" fill="none" xmlns="http://www.w3.org/2000/svg">
<path d="M0.5 30C0.5 21.9919 6.99187 15.5 15 15.5H329C337.008 15.5 343.5 21.9919 343.5 30V236C343.5 244.008 337.008 250.5 329 250.5H15C6.99188 250.5 0.5 244.008 0.5 236V30Z" fill="white" stroke="#F2F2F2"/>
<path d="M306.5 41.25L312 46.75L317.5 41.25" stroke="#5A5B78" stroke-width="2" stroke-linecap="round" stroke-linejoin="round"/>
<path d="M22.472 47C22.3653 47 22.312 46.9467 22.312 46.84V35.96C22.312 35.8533 22.3653 35.8 22.472 35.8H26.344C27.4533 35.8 28.3387 36.0933 29 36.68C29.6613 37.256 29.992 38.0293 29.992 39V43.8C29.992 44.7707 29.6613 45.5493 29 46.136C28.3387 46.712 27.4533 47 26.344 47H22.472ZM23.848 45.608C23.848 45.6507 23.8693 45.672 23.912 45.672H26.408C27.0267 45.672 27.5173 45.4853 27.88 45.112C28.2533 44.728 28.4453 44.216 28.456 43.576V39.224C28.456 38.584 28.2693 38.0773 27.896 37.704C27.5333 37.32 27.0373 37.128 26.408 37.128H23.912C23.8693 37.128 23.848 37.1493 23.848 37.192V45.608ZM34.9085 38.728C35.5592 38.728 36.1245 38.8453 36.6045 39.08C37.0952 39.304 37.4685 39.624 37.7245 40.04C37.9912 40.4453 38.1245 40.9093 38.1245 41.432V46.84C38.1245 46.9467 38.0712 47 37.9645 47H36.7485C36.6418 47 36.5885 46.9467 36.5885 46.84V46.264C36.5885 46.2107 36.5618 46.2 36.5085 46.232C36.2312 46.52 35.8898 46.744 35.4845 46.904C35.0898 47.0533 34.6472 47.128 34.1565 47.128C33.3672 47.128 32.7112 46.9307 32.1885 46.536C31.6765 46.1307 31.4205 45.5227 31.4205 44.712C31.4205 43.88 31.7085 43.2293 32.2845 42.76C32.8712 42.28 33.6872 42.04 34.7325 42.04H36.5245C36.5672 42.04 36.5885 42.0187 36.5885 41.976V41.544C36.5885 41.0747 36.4498 40.712 36.1725 40.456C35.9058 40.1893 35.4952 40.056 34.9405 40.056C34.4925 40.056 34.1245 40.1467 33.8365 40.328C33.5592 40.4987 33.3885 40.7333 33.3245 41.032C33.2925 41.1387 33.2285 41.1867 33.1325 41.176L31.8365 41C31.7298 40.9787 31.6818 40.936 31.6925 40.872C31.7778 40.2427 32.1138 39.7307 32.7005 39.336C33.2872 38.9307 34.0232 38.728 34.9085 38.728ZM34.4925 45.832C35.0578 45.832 35.5485 45.6827 35.9645 45.384C36.3805 45.0853 36.5885 44.7067 36.5885 44.248V43.304C36.5885 43.2613 36.5672 43.24 36.5245 43.24H35.0205C34.3912 43.24 33.8898 43.3627 33.5165 43.608C33.1432 43.8533 32.9565 44.1947 32.9565 44.632C32.9565 45.0267 33.0952 45.3253 33.3725 45.528C33.6605 45.7307 34.0338 45.832 34.4925 45.832ZM43.0621 47.096C42.4221 47.096 41.8568 47 41.3661 46.808C40.8861 46.616 40.5128 46.3547 40.2461 46.024C39.9795 45.6827 39.8461 45.3093 39.8461 44.904V44.728C39.8461 44.6213 39.8995 44.568 40.0061 44.568H41.1581C41.2648 44.568 41.3181 44.6213 41.3181 44.728V44.808C41.3181 45.1067 41.4781 45.368 41.7981 45.592C42.1288 45.816 42.5448 45.928 43.0461 45.928C43.5261 45.928 43.9155 45.8267 44.2141 45.624C44.5128 45.4107 44.6621 45.144 44.6621 44.824C44.6621 44.5147 44.5235 44.2853 44.2461 44.136C43.9688 43.976 43.5208 43.8107 42.9021 43.64C42.2941 43.4693 41.7821 43.2987 41.3661 43.128C40.9608 42.9467 40.6141 42.696 40.3261 42.376C40.0488 42.0453 39.9101 41.624 39.9101 41.112C39.9101 40.3973 40.1875 39.832 40.7421 39.416C41.3075 38.9893 42.0541 38.776 42.9821 38.776C43.6008 38.776 44.1448 38.8773 44.6141 39.08C45.0941 39.272 45.4621 39.544 45.7181 39.896C45.9741 40.248 46.1021 40.6427 46.1021 41.08V41.128C46.1021 41.2347 46.0488 41.288 45.9421 41.288H44.8221C44.7155 41.288 44.6621 41.2347 44.6621 41.128V41.08C44.6621 40.7707 44.5075 40.5147 44.1981 40.312C43.8995 40.0987 43.4888 39.992 42.9661 39.992C42.4968 39.992 42.1128 40.0827 41.8141 40.264C41.5261 40.4453 41.3821 40.6907 41.3821 41C41.3821 41.3093 41.5208 41.544 41.7981 41.704C42.0861 41.864 42.5448 42.0347 43.1741 42.216C43.7928 42.3867 44.3048 42.5573 44.7101 42.728C45.1261 42.888 45.4781 43.1333 45.7661 43.464C46.0541 43.784 46.1981 44.2053 46.1981 44.728C46.1981 45.4533 45.9101 46.0293 45.3341 46.456C44.7688 46.8827 44.0115 47.096 43.0621 47.096ZM51.627 38.744C52.5017 38.744 53.195 39 53.707 39.512C54.219 40.0133 54.475 40.696 54.475 41.56V46.84C54.475 46.9467 54.4217 47 54.315 47H53.099C52.9923 47 52.939 46.9467 52.939 46.84V41.864C52.939 41.3307 52.7843 40.8987 52.475 40.568C52.1657 40.2373 51.755 40.072 51.243 40.072C50.7417 40.072 50.331 40.2373 50.011 40.568C49.691 40.8987 49.531 41.3253 49.531 41.848V46.84C49.531 46.9467 49.4777 47 49.371 47H48.155C48.0483 47 47.995 46.9467 47.995 46.84V35.96C47.995 35.8533 48.0483 35.8 48.155 35.8H49.371C49.4777 35.8 49.531 35.8533 49.531 35.96V39.592C49.531 39.6133 49.5363 39.6293 49.547 39.64C49.5683 39.6507 49.5843 39.6453 49.595 39.624C50.0537 39.0373 50.731 38.744 51.627 38.744ZM63.2273 40.968C63.3979 41.512 63.4833 42.1573 63.4833 42.904C63.4833 43.704 63.3819 44.3867 63.1793 44.952C62.9446 45.6453 62.5713 46.184 62.0593 46.568C61.5579 46.9413 60.9233 47.128 60.1553 47.128C59.7819 47.128 59.4353 47.0533 59.1153 46.904C58.7953 46.7547 58.5179 46.5467 58.2833 46.28C58.2619 46.2587 58.2406 46.2533 58.2193 46.264C58.2086 46.2747 58.2033 46.2907 58.2033 46.312V46.84C58.2033 46.9467 58.1499 47 58.0433 47H56.8273C56.7206 47 56.6673 46.9467 56.6673 46.84V35.96C56.6673 35.8533 56.7206 35.8 56.8273 35.8H58.0433C58.1499 35.8 58.2033 35.8533 58.2033 35.96V39.528C58.2033 39.5493 58.2086 39.5653 58.2193 39.576C58.2406 39.5867 58.2619 39.5813 58.2833 39.56C58.5179 39.2933 58.7953 39.0907 59.1153 38.952C59.4459 38.8027 59.7926 38.728 60.1553 38.728C60.9553 38.728 61.6113 38.9253 62.1233 39.32C62.6353 39.7147 63.0033 40.264 63.2273 40.968ZM61.5313 44.92C61.7979 44.4187 61.9313 43.7573 61.9313 42.936C61.9313 42.0613 61.7606 41.3573 61.4193 40.824C61.1099 40.312 60.6353 40.056 59.9953 40.056C59.3979 40.056 58.9446 40.328 58.6353 40.872C58.3579 41.3627 58.2193 42.0453 58.2193 42.92C58.2193 43.7947 58.3473 44.4667 58.6033 44.936C58.9233 45.512 59.3926 45.8 60.0113 45.8C60.7153 45.8 61.2219 45.5067 61.5313 44.92ZM68.7293 47.128C67.9399 47.128 67.2519 46.9307 66.6653 46.536C66.0786 46.1307 65.6679 45.5707 65.4333 44.856C65.2413 44.28 65.1453 43.6293 65.1453 42.904C65.1453 42.1467 65.2359 41.5067 65.4173 40.984C65.6519 40.28 66.0626 39.7307 66.6493 39.336C67.2359 38.9307 67.9346 38.728 68.7453 38.728C69.5133 38.728 70.1799 38.9307 70.7453 39.336C71.3213 39.7307 71.7319 40.2747 71.9773 40.968C72.1693 41.512 72.2653 42.152 72.2653 42.888C72.2653 43.6347 72.1693 44.2907 71.9773 44.856C71.7426 45.5707 71.3373 46.1307 70.7613 46.536C70.1853 46.9307 69.5079 47.128 68.7293 47.128ZM68.7293 45.8C69.1559 45.8 69.5293 45.6827 69.8493 45.448C70.1693 45.2027 70.3986 44.8613 70.5373 44.424C70.6546 44.0187 70.7133 43.5173 70.7133 42.92C70.7133 42.3227 70.6599 41.8267 70.5533 41.432C70.4146 40.9947 70.1853 40.6587 69.8653 40.424C69.5453 40.1787 69.1559 40.056 68.6973 40.056C68.2599 40.056 67.8813 40.1787 67.5613 40.424C67.2413 40.6587 67.0119 40.9947 66.8733 41.432C66.7559 41.8053 66.6973 42.3013 66.6973 42.92C66.6973 43.5387 66.7559 44.04 66.8733 44.424C67.0013 44.8613 67.2253 45.2027 67.5453 45.448C67.8759 45.6827 68.2706 45.8 68.7293 45.8ZM77.2523 38.728C77.9029 38.728 78.4683 38.8453 78.9483 39.08C79.4389 39.304 79.8123 39.624 80.0683 40.04C80.3349 40.4453 80.4683 40.9093 80.4683 41.432V46.84C80.4683 46.9467 80.4149 47 80.3083 47H79.0923C78.9856 47 78.9323 46.9467 78.9323 46.84V46.264C78.9323 46.2107 78.9056 46.2 78.8523 46.232C78.5749 46.52 78.2336 46.744 77.8283 46.904C77.4336 47.0533 76.9909 47.128 76.5003 47.128C75.7109 47.128 75.0549 46.9307 74.5323 46.536C74.0203 46.1307 73.7643 45.5227 73.7643 44.712C73.7643 43.88 74.0523 43.2293 74.6283 42.76C75.2149 42.28 76.0309 42.04 77.0763 42.04H78.8683C78.9109 42.04 78.9323 42.0187 78.9323 41.976V41.544C78.9323 41.0747 78.7936 40.712 78.5163 40.456C78.2496 40.1893 77.8389 40.056 77.2843 40.056C76.8363 40.056 76.4683 40.1467 76.1803 40.328C75.9029 40.4987 75.7323 40.7333 75.6683 41.032C75.6363 41.1387 75.5723 41.1867 75.4763 41.176L74.1803 41C74.0736 40.9787 74.0256 40.936 74.0363 40.872C74.1216 40.2427 74.4576 39.7307 75.0443 39.336C75.6309 38.9307 76.3669 38.728 77.2523 38.728ZM76.8363 45.832C77.4016 45.832 77.8923 45.6827 78.3083 45.384C78.7243 45.0853 78.9323 44.7067 78.9323 44.248V43.304C78.9323 43.2613 78.9109 43.24 78.8683 43.24H77.3643C76.7349 43.24 76.2336 43.3627 75.8603 43.608C75.4869 43.8533 75.3003 44.1947 75.3003 44.632C75.3003 45.0267 75.4389 45.3253 75.7163 45.528C76.0043 45.7307 76.3776 45.832 76.8363 45.832ZM86.1099 38.776C86.4512 38.776 86.7605 38.8453 87.0379 38.984C87.1125 39.016 87.1392 39.08 87.1179 39.176L86.8619 40.376C86.8512 40.472 86.7872 40.504 86.6699 40.472C86.4885 40.3973 86.2752 40.36 86.0299 40.36L85.8059 40.376C85.3045 40.3973 84.8885 40.5733 84.5579 40.904C84.2379 41.224 84.0779 41.6453 84.0779 42.168V46.84C84.0779 46.9467 84.0245 47 83.9179 47H82.7019C82.5952 47 82.5419 46.9467 82.5419 46.84V39.016C82.5419 38.9093 82.5952 38.856 82.7019 38.856H83.9179C84.0245 38.856 84.0779 38.9093 84.0779 39.016V39.864C84.0779 39.896 84.0832 39.9173 84.0939 39.928C84.1152 39.928 84.1312 39.9173 84.1419 39.896C84.6219 39.1493 85.2779 38.776 86.1099 38.776ZM93.4104 35.96C93.4104 35.8533 93.4637 35.8 93.5704 35.8H94.7864C94.893 35.8 94.9464 35.8533 94.9464 35.96V46.84C94.9464 46.9467 94.893 47 94.7864 47H93.5704C93.4637 47 93.4104 46.9467 93.4104 46.84V46.312C93.4104 46.2907 93.3997 46.2747 93.3784 46.264C93.3677 46.2533 93.3517 46.2587 93.3304 46.28C93.0957 46.5467 92.8184 46.7547 92.4984 46.904C92.1784 47.0533 91.8317 47.128 91.4584 47.128C90.6904 47.128 90.0504 46.9413 89.5384 46.568C89.037 46.184 88.669 45.6453 88.4344 44.952C88.2317 44.3867 88.1304 43.704 88.1304 42.904C88.1304 42.1573 88.2157 41.512 88.3864 40.968C88.6104 40.264 88.9784 39.7147 89.4904 39.32C90.0024 38.9253 90.6584 38.728 91.4584 38.728C91.821 38.728 92.1624 38.8027 92.4824 38.952C92.813 39.0907 93.0957 39.2933 93.3304 39.56C93.3517 39.5813 93.3677 39.5867 93.3784 39.576C93.3997 39.5653 93.4104 39.5493 93.4104 39.528V35.96ZM93.0104 44.936C93.2557 44.488 93.3784 43.816 93.3784 42.92C93.3784 42.024 93.245 41.3413 92.9784 40.872C92.669 40.328 92.2157 40.056 91.6184 40.056C90.9784 40.056 90.5037 40.312 90.1944 40.824C89.853 41.3573 89.6824 42.0613 89.6824 42.936C89.6824 43.7573 89.8157 44.4187 90.0824 44.92C90.3917 45.5067 90.8984 45.8 91.6024 45.8C92.221 45.8 92.6904 45.512 93.0104 44.936Z" fill="#5A5B78"/>
<path opacity="0.64" d="M30.6275 224.2H29.4795V231.06C29.4795 232.306 29.0035 233.146 27.6035 233.146C26.2175 233.146 25.5735 232.306 25.5735 231.06V230.304H24.4255V231.06C24.4255 233.09 25.6015 234.196 27.6035 234.196C29.6055 234.196 30.6275 233.09 30.6275 231.06V224.2ZM32.4324 229.03L33.3704 229.464C33.7624 228.568 34.4764 227.938 35.7084 227.938C36.9404 227.938 37.6404 228.596 37.6404 229.632V229.898L34.9384 230.15C33.3564 230.304 32.3344 230.934 32.3344 232.18C32.3344 233.412 33.3984 234.196 34.8824 234.196C36.3524 234.196 37.1224 233.51 37.4584 232.852H37.6544V234H38.7044V229.688C38.7044 228.05 37.5844 226.972 35.7364 226.972C34.0284 226.972 32.9364 227.966 32.4324 229.03ZM33.4124 232.152C33.4124 231.382 34.1264 231.088 35.0784 231.004L37.6404 230.766V230.906C37.6404 232.32 36.6744 233.286 35.0224 233.286C34.0704 233.286 33.4124 232.894 33.4124 232.152ZM40.7238 227.168V234H41.7878V230.486C41.7878 228.862 42.7118 227.994 44.0558 227.994C45.2458 227.994 45.9738 228.624 45.9738 229.954V234H47.0518V229.87C47.0518 227.98 45.7918 227.056 44.3498 227.056C42.9638 227.056 42.3058 227.714 41.9558 228.386H41.7598V227.168H40.7238Z" fill="#212121"/>
<path d="M81.1382 224.2V234H82.2862V229.604H86.8922V228.568H82.2862V225.25H87.1582V224.2H81.1382ZM88.1411 230.528C88.1411 232.6 89.5551 234.196 91.6831 234.196C93.3911 234.196 94.2311 233.258 94.7211 232.376L93.7831 231.886C93.4051 232.67 92.7891 233.244 91.6691 233.244C90.2971 233.244 89.3451 232.362 89.2611 230.934H94.8471V230.36C94.8471 228.344 93.5031 226.958 91.5431 226.958C89.5691 226.958 88.1411 228.526 88.1411 230.528ZM89.2611 230.052C89.3871 228.708 90.2551 227.91 91.5431 227.91C92.8451 227.91 93.6991 228.694 93.7271 230.052H89.2611ZM96.4367 224.2V234H97.4727V232.838H97.6687C98.0607 233.51 98.7467 234.196 100.161 234.196C101.981 234.196 103.395 232.726 103.395 230.584C103.395 228.442 101.981 226.972 100.161 226.972C98.7467 226.972 98.0607 227.658 97.6687 228.344H97.5007V224.2H96.4367ZM99.9087 227.938C101.337 227.938 102.317 228.932 102.317 230.584C102.317 232.25 101.337 233.23 99.9087 233.23C98.4667 233.23 97.5007 232.208 97.5007 230.584C97.5007 228.974 98.4667 227.938 99.9087 227.938Z" fill="#212121"/>
<path opacity="0.64" d="M135.689 224.2V234H136.837V225.46H137.005L139.847 234H141.569L144.411 225.46H144.579V234H145.727V224.2H143.641L140.785 232.768H140.617L137.775 224.2H135.689ZM147.577 229.03L148.515 229.464C148.907 228.568 149.621 227.938 150.853 227.938C152.085 227.938 152.785 228.596 152.785 229.632V229.898L150.083 230.15C148.501 230.304 147.479 230.934 147.479 232.18C147.479 233.412 148.543 234.196 150.027 234.196C151.497 234.196 152.267 233.51 152.603 232.852H152.799V234H153.849V229.688C153.849 228.05 152.729 226.972 150.881 226.972C149.173 226.972 148.081 227.966 147.577 229.03ZM148.557 232.152C148.557 231.382 149.271 231.088 150.223 231.004L152.785 230.766V230.906C152.785 232.32 151.819 233.286 150.167 233.286C149.215 233.286 148.557 232.894 148.557 232.152ZM156.89 227.168H155.868V234H156.932V229.884C156.932 228.75 157.52 228.176 158.528 228.176H159.704V227.14H158.85C157.87 227.14 157.338 227.504 157.086 228.19H156.89V227.168Z" fill="#212121"/>
<path opacity="0.64" d="M190.954 224.2L187.734 234H188.966L189.75 231.522H193.936L194.72 234H195.952L192.732 224.2H190.954ZM190.072 230.486L191.752 225.236H191.92L193.6 230.486H190.072ZM197.255 236.8H198.319V232.838H198.487C198.879 233.51 199.565 234.196 200.979 234.196C202.799 234.196 204.213 232.726 204.213 230.584C204.213 228.442 202.799 226.972 200.979 226.972C199.565 226.972 198.879 227.658 198.487 228.344H198.291V227.168H197.255V236.8ZM200.727 233.23C199.285 233.23 198.319 232.208 198.319 230.584C198.319 228.974 199.285 227.938 200.727 227.938C202.155 227.938 203.135 228.932 203.135 230.584C203.135 232.25 202.155 233.23 200.727 233.23ZM206.89 227.168H205.868V234H206.932V229.884C206.932 228.75 207.52 228.176 208.528 228.176H209.704V227.14H208.85C207.87 227.14 207.338 227.504 207.086 228.19H206.89V227.168Z" fill="#212121"/>
<path opacity="0.64" d="M236.502 224.2V234H237.65V225.46H237.818L240.66 234H242.382L245.224 225.46H245.392V234H246.54V224.2H244.454L241.598 232.768H241.43L238.588 224.2H236.502ZM248.389 229.03L249.327 229.464C249.719 228.568 250.433 227.938 251.665 227.938C252.897 227.938 253.597 228.596 253.597 229.632V229.898L250.895 230.15C249.313 230.304 248.291 230.934 248.291 232.18C248.291 233.412 249.355 234.196 250.839 234.196C252.309 234.196 253.079 233.51 253.415 232.852H253.611V234H254.661V229.688C254.661 228.05 253.541 226.972 251.693 226.972C249.985 226.972 248.893 227.966 248.389 229.03ZM249.369 232.152C249.369 231.382 250.083 231.088 251.035 231.004L253.597 230.766V230.906C253.597 232.32 252.631 233.286 250.979 233.286C250.027 233.286 249.369 232.894 249.369 232.152ZM261.492 227.168L259.21 232.642H259.042L256.76 227.168H255.598L258.566 234.098L257.362 236.8H258.524L262.654 227.168H261.492Z" fill="#212121"/>
<path opacity="0.64" d="M298.327 224.2H297.179V231.06C297.179 232.306 296.703 233.146 295.303 233.146C293.917 233.146 293.273 232.306 293.273 231.06V230.304H292.125V231.06C292.125 233.09 293.301 234.196 295.303 234.196C297.305 234.196 298.327 233.09 298.327 231.06V224.2ZM306.642 234V227.168H305.564V230.682C305.564 232.306 304.64 233.174 303.296 233.174C302.106 233.174 301.378 232.544 301.378 231.214V227.168H300.314V231.312C300.314 233.202 301.56 234.126 303.002 234.126C304.388 234.126 305.046 233.454 305.396 232.782H305.592V234H306.642ZM308.724 227.168V234H309.788V230.486C309.788 228.862 310.712 227.994 312.056 227.994C313.246 227.994 313.974 228.624 313.974 229.954V234H315.052V229.87C315.052 227.98 313.792 227.056 312.35 227.056C310.964 227.056 310.306 227.714 309.956 228.386H309.76V227.168H308.724Z" fill="#212121"/>
<line x1="183.263" y1="60" x2="183.263" y2="224" stroke="#DADADA" stroke-width="0.525048" stroke-dasharray="2.63 2.63"/>
<line x1="129.263" y1="60" x2="129.263" y2="224" stroke="#DADADA" stroke-width="0.525048" stroke-dasharray="2.63 2.63"/>
<line x1="74.2625" y1="60" x2="74.2625" y2="224" stroke="#DADADA" stroke-width="0.525048" stroke-dasharray="2.63 2.63"/>
<line x1="21.2625" y1="60.0005" x2="21.2625" y2="224" stroke="#DADADA" stroke-width="0.525048" stroke-dasharray="2.63 2.63"/>
<line x1="238.263" y1="60" x2="238.263" y2="224" stroke="#DADADA" stroke-width="0.525048" stroke-dasharray="2.63 2.63"/>
<line x1="292.263" y1="60" x2="292.263" y2="224" stroke="#DADADA" stroke-width="0.525048" stroke-dasharray="2.63 2.63"/>
<path d="M20 129.52V129.52C24.5412 140.141 38.9054 141.806 45.7557 132.505L58.0743 115.779C68.66 101.406 91.4577 109.655 90.3956 127.474L90.0164 133.836C88.9302 152.059 113.719 158.512 121.655 142.071L129.757 125.289C133.649 117.227 145.459 118.31 147.82 126.946V126.946C150.585 137.06 165.211 136.179 166.742 125.805L172.51 86.7093C175.208 68.4258 200.429 65.6331 207.061 82.8835L219.051 114.069C225.424 130.645 249.029 130.195 254.766 113.39L264.044 86.2146C268.28 73.8079 283.511 69.3174 293.8 77.4417L297.614 80.4532C305.645 86.7951 317.257 85.6365 323.877 77.8327L329 71.7936" stroke="#56B2AA" stroke-width="3" stroke-linecap="round"/>
<path d="M62.3401 113.002L46.5751 132.916C39.2281 142.196 24.6257 140.227 20 129.332V213H329V71.1997L324.921 76.0415C317.732 84.5753 305.059 85.8401 296.325 78.8955C284.972 69.8677 268.093 75.0775 263.803 88.9336L257.331 109.837C251.057 130.098 222.435 130.259 215.935 110.068L207.726 84.5684C201.516 65.2792 173.362 68.2062 171.253 88.3604L167.439 124.803C166.263 136.044 150.642 137.848 146.934 127.171C143.707 117.877 130.65 117.641 127.089 126.812L121.818 140.388C115.97 155.447 94.0047 153.238 91.2722 137.316L88.2335 119.61C86.0927 107.135 70.1962 103.079 62.3401 113.002Z" fill="url(#paint0_linear_1_26464)"/>
<g filter="url(#filter0_b_1_26464)">
<rect x="176" y="72" width="16" height="128" fill="url(#paint1_linear_1_26464)"/>
</g>
<circle cx="183.5" cy="73.5" r="8.5" fill="#56B2AA" stroke="white" stroke-width="3"/>
<defs>
<filter id="filter0_b_1_26464" x="175.737" y="71.7375" width="16.525" height="128.525" filterUnits="userSpaceOnUse" color-interpolation-filters="sRGB">
<feFlood flood-opacity="0" result="BackgroundImageFix"/>
<feGaussianBlur in="BackgroundImageFix" stdDeviation="0.131262"/>
<feComposite in2="SourceAlpha" operator="in" result="effect1_backgroundBlur_1_26464"/>
<feBlend mode="normal" in="SourceGraphic" in2="effect1_backgroundBlur_1_26464" result="shape"/>
</filter>
<linearGradient id="paint0_linear_1_26464" x1="135.386" y1="1.29043" x2="142.862" y2="255.513" gradientUnits="userSpaceOnUse">
<stop stop-color="#75A29E" stop-opacity="0.57"/>
<stop offset="0.717485" stop-color="#75A29E" stop-opacity="0"/>
<stop offset="0.898924" stop-color="#75A29E" stop-opacity="0"/>
</linearGradient>
<linearGradient id="paint1_linear_1_26464" x1="181.868" y1="44.4199" x2="185.41" y2="199.919" gradientUnits="userSpaceOnUse">
<stop stop-color="#75A29E" stop-opacity="0.87"/>
<stop offset="0.926212" stop-color="#75A29E" stop-opacity="0"/>
</linearGradient>
</defs>
</svg>
