<svg width="235" height="162" viewBox="0 0 235 162" fill="none" xmlns="http://www.w3.org/2000/svg">
<g id="Group 34289">
<g id="Group 34288">
<path id="Ellipse 879 (Stroke)" fill-rule="evenodd" clip-rule="evenodd" d="M61.6559 118.263C81.1283 118.263 96.9139 102.477 96.9139 83.0046C96.9139 63.5322 81.1283 47.7466 61.6559 47.7466C42.1834 47.7466 26.3979 63.5322 26.3979 83.0046C26.3979 102.477 42.1834 118.263 61.6559 118.263ZM61.6559 143.768C95.2148 143.768 122.42 116.564 122.42 83.0046C122.42 49.4457 95.2148 22.2408 61.6559 22.2408C28.097 22.2408 0.89209 49.4457 0.89209 83.0046C0.89209 116.564 28.097 143.768 61.6559 143.768Z" fill="#56B2AA"/>
<path id="Ellipse 880 (Stroke)" fill-rule="evenodd" clip-rule="evenodd" d="M189.201 83.0049C189.201 76.9375 187.401 71.0064 184.03 65.9615C180.66 60.9167 175.868 56.9847 170.263 54.6628C164.657 52.3409 158.489 51.7334 152.538 52.9171C146.588 54.1008 141.121 57.0225 136.831 61.3128C132.541 65.6031 129.619 71.0693 128.435 77.0201C127.252 82.9709 127.859 89.1391 130.181 94.7446C132.503 100.35 136.435 105.141 141.48 108.512C146.525 111.883 152.456 113.682 158.523 113.682L158.523 143.769C158.519 143.769 158.515 143.769 158.51 143.769C149.669 143.767 140.974 141.836 133.018 138.156C130.162 136.836 127.402 135.291 124.765 133.528C114.772 126.851 106.984 117.361 102.385 106.258C97.7858 95.1551 96.5825 82.9375 98.9271 71.1505C101.272 59.3635 107.059 48.5364 115.557 40.0384C124.055 31.5405 134.882 25.7533 146.669 23.4087C158.456 21.0641 170.673 22.2674 181.777 26.8665C192.88 31.4656 202.37 39.2538 209.047 49.2463C210.809 51.8841 212.355 54.6441 213.675 57.4991C217.354 65.4546 219.284 74.1477 219.287 82.9872C219.287 82.9931 219.287 82.999 219.287 83.0049L189.201 83.0049Z" fill="#56B2AA"/>
<path id="Line 516 (Stroke)" fill-rule="evenodd" clip-rule="evenodd" d="M219.067 95.8724L148.271 96.2577L148.271 70.752L189.53 70.7519L219.287 82.7688L219.067 95.8724Z" fill="#56B2AA"/>
</g>
</g>
</svg>
