<svg width="16" height="16" viewBox="0 0 16 16" fill="none" xmlns="http://www.w3.org/2000/svg">
<g id="twitter 1">
<path id="Vector" d="M15.908 3.03043C15.8017 2.91411 15.6304 2.88388 15.4906 2.9567C15.347 3.02198 15.1983 3.07572 15.0461 3.1174C15.2835 2.81361 15.4628 2.46857 15.5748 2.09963C15.6241 1.91399 15.5136 1.72348 15.328 1.67415C15.2289 1.6478 15.1232 1.66655 15.0392 1.72537C14.5103 2.01159 13.9481 2.23147 13.3654 2.38C12.1658 1.24775 10.3385 1.10662 8.97925 2.04123C7.9322 2.74917 7.35577 3.97274 7.47662 5.23083C5.20693 5.03743 3.11867 3.9127 1.70819 2.12399C1.63573 2.03634 1.5261 1.98807 1.41253 1.99391C1.29735 2.00082 1.19313 2.06441 1.13427 2.16364C0.655569 2.94617 0.516882 3.8901 0.750266 4.77724C0.869942 5.23305 1.07509 5.66199 1.35481 6.04127C1.22881 5.97957 1.11024 5.90372 1.00142 5.81519C0.852235 5.69418 0.633199 5.717 0.512154 5.86619C0.461936 5.92811 0.434479 6.0054 0.434446 6.08513C0.455121 7.37211 1.16183 8.54999 2.28769 9.17387C2.1358 9.15522 1.98586 9.1231 1.83967 9.07787C1.65572 9.02253 1.46173 9.12678 1.40639 9.31073C1.38226 9.39098 1.38791 9.47727 1.42228 9.5537C1.91092 10.6483 2.88783 11.4478 4.05745 11.7102C2.9431 12.339 1.65993 12.6031 0.387848 12.4657C0.222911 12.4447 0.0666479 12.5449 0.0170494 12.7037C-0.0340818 12.8611 0.0328322 13.0328 0.177062 13.1141C1.73464 14.0396 3.50652 14.543 5.31799 14.575C7.05586 14.5686 8.7532 14.0496 10.1974 13.0828C12.9543 11.2532 14.6725 7.96828 14.4333 5.02911C15.0227 4.59277 15.5341 4.0598 15.9456 3.45275C16.0302 3.3197 16.0148 3.14642 15.908 3.03043Z" fill="#03A9F4"/>
</g>
</svg>
