<svg width="12" height="12" viewBox="0 0 12 12" fill="none" xmlns="http://www.w3.org/2000/svg">
<g id="padlock 1">
<g id="XMLID_30_">
<path id="XMLID_31_" d="M9.158 5.36842H3.94747V3C3.94747 1.86818 4.86828 0.947368 6.0001 0.947368C7.13192 0.947368 8.05273 1.86818 8.05273 3V3.94737C8.05273 4.20897 8.26482 4.42105 8.52642 4.42105C8.78802 4.42105 9.0001 4.20897 9.0001 3.94737V3C9.0001 1.3458 7.6543 0 6.0001 0C4.3459 0 3.0001 1.3458 3.0001 3V5.36842H2.84221C2.4062 5.36842 2.05273 5.72188 2.05273 6.15789V11.2105C2.05273 11.6465 2.4062 12 2.84221 12H9.158C9.59401 12 9.94747 11.6465 9.94747 11.2105V6.15789C9.94747 5.72188 9.59401 5.36842 9.158 5.36842ZM5.05273 8.05263C5.05273 7.5294 5.47687 7.10526 6.0001 7.10526C6.5233 7.10526 6.94747 7.5294 6.94747 8.05263C6.94747 8.40325 6.75689 8.70913 6.47379 8.87296V10.2632H5.52642V8.87296C5.24331 8.70913 5.05273 8.40325 5.05273 8.05263Z" fill="#E5BE90"/>
</g>
</g>
</svg>
