<svg width="195" height="301" viewBox="0 0 195 301" fill="none" xmlns="http://www.w3.org/2000/svg">
<g clip-path="url(#clip0_19_301)">
<rect x="194.842" y="0.0737" width="301" height="195" rx="20" transform="rotate(89.9582 194.842 0.0737)" fill="#E5BE90"/>
<path d="M67.8576 23.931V24.2625H68.9031V23.9948C68.9031 22.6178 69.7319 21.8528 71.0833 21.8528C72.2308 21.8528 73.0723 22.5413 73.0723 23.727C73.0723 25.0148 72.1543 25.5758 70.6371 26.022C68.9414 26.5193 67.8449 27.195 67.8449 28.9673V30H74.0668V29.0438H68.9031V28.8398C68.9031 27.6158 69.6681 27.297 71.0961 26.8635C72.8428 26.328 74.1178 25.563 74.1178 23.7653C74.1178 22.0441 72.8556 20.8966 71.0833 20.8966C69.1964 20.8966 67.8576 22.0568 67.8576 23.931ZM75.3671 24.543V26.532C75.3671 28.8653 76.5911 30.1785 78.6438 30.1785C80.6838 30.1785 81.9078 28.8653 81.9078 26.532V24.543C81.9078 22.2098 80.6583 20.8966 78.6438 20.8966C76.5911 20.8966 75.3671 22.2098 75.3671 24.543ZM76.4126 24.5048C76.4126 22.8218 77.1521 21.8528 78.6438 21.8528C80.1228 21.8528 80.8623 22.8218 80.8623 24.5048V26.5703C80.8623 28.2533 80.1228 29.2223 78.6438 29.2223C77.1521 29.2223 76.4126 28.2533 76.4126 26.5703V24.5048ZM83.2985 24.543V26.532C83.2985 28.8653 84.5224 30.1785 86.5752 30.1785C88.6152 30.1785 89.8392 28.8653 89.8392 26.532V24.543C89.8392 22.2098 88.5897 20.8966 86.5752 20.8966C84.5224 20.8966 83.2985 22.2098 83.2985 24.543ZM84.3439 24.5048C84.3439 22.8218 85.0834 21.8528 86.5752 21.8528C88.0542 21.8528 88.7937 22.8218 88.7937 24.5048V26.5703C88.7937 28.2533 88.0542 29.2223 86.5752 29.2223C85.0834 29.2223 84.3439 28.2533 84.3439 26.5703V24.5048ZM93.1678 21.0751L90.6178 24.9255H91.8035L93.614 22.0951H93.767V30H94.8125L94.8253 21.0751H93.1678Z" fill="white"/>
<path d="M39.1977 177.6L33.1257 187.742V189.986H40.7817V193H43.3337V189.986H45.8857V187.654H43.3337V177.6H39.1977ZM40.5177 179.712H40.7817V187.654H35.8757L40.5177 179.712ZM46.8655 182.638V183.21H49.4175V182.726C49.4175 180.636 50.7155 179.602 52.6075 179.602C54.2575 179.602 55.4455 180.57 55.4455 182.242C55.4455 184.222 53.9935 184.992 51.6175 185.718C48.8015 186.554 46.9095 187.852 46.9095 190.69V193H57.8435V190.668H49.4835V190.426C49.4835 188.82 50.6055 188.336 52.7615 187.698C55.8635 186.796 57.9975 185.498 57.9975 182.33C57.9975 179.25 55.5995 177.292 52.5855 177.292C49.3515 177.292 46.8655 179.228 46.8655 182.638ZM59.5638 183.54V187.06C59.5638 191.064 61.8518 193.308 65.3938 193.308C68.9358 193.308 71.2238 191.064 71.2238 187.06V183.54C71.2238 179.602 68.8918 177.292 65.3938 177.292C61.8518 177.292 59.5638 179.602 59.5638 183.54ZM62.1158 183.452C62.1158 181.054 63.2598 179.602 65.3938 179.602C67.5058 179.602 68.6718 181.01 68.6718 183.452V187.148C68.6718 189.546 67.6158 190.998 65.3938 190.998C63.2158 190.998 62.1158 189.59 62.1158 187.148V183.452ZM72.9486 183.54V187.06C72.9486 191.064 75.2366 193.308 78.7786 193.308C82.3206 193.308 84.6086 191.064 84.6086 187.06V183.54C84.6086 179.602 82.2766 177.292 78.7786 177.292C75.2366 177.292 72.9486 179.602 72.9486 183.54ZM75.5006 183.452C75.5006 181.054 76.6446 179.602 78.7786 179.602C80.8906 179.602 82.0566 181.01 82.0566 183.452V187.148C82.0566 189.546 81.0006 190.998 78.7786 190.998C76.6006 190.998 75.5006 189.59 75.5006 187.148V183.452ZM86.5313 191.394C86.5313 192.494 87.3673 193.308 88.4453 193.308C89.5013 193.308 90.3373 192.494 90.3373 191.394C90.3373 190.294 89.5013 189.502 88.4453 189.502C87.3673 189.502 86.5313 190.294 86.5313 191.394ZM92.2415 183.54V187.06C92.2415 191.064 94.5295 193.308 98.0715 193.308C101.614 193.308 103.902 191.064 103.902 187.06V183.54C103.902 179.602 101.57 177.292 98.0715 177.292C94.5295 177.292 92.2415 179.602 92.2415 183.54ZM94.7935 183.452C94.7935 181.054 95.9375 179.602 98.0715 179.602C100.184 179.602 101.35 181.01 101.35 183.452V187.148C101.35 189.546 100.294 190.998 98.0715 190.998C95.8935 190.998 94.7935 189.59 94.7935 187.148V183.452ZM105.626 183.54V187.06C105.626 191.064 107.914 193.308 111.456 193.308C114.998 193.308 117.286 191.064 117.286 187.06V183.54C117.286 179.602 114.954 177.292 111.456 177.292C107.914 177.292 105.626 179.602 105.626 183.54ZM108.178 183.452C108.178 181.054 109.322 179.602 111.456 179.602C113.568 179.602 114.734 181.01 114.734 183.452V187.148C114.734 189.546 113.678 190.998 111.456 190.998C109.278 190.998 108.178 189.59 108.178 187.148V183.452ZM125.791 177.6V187.676C125.791 191.218 127.947 193.308 131.687 193.308C135.449 193.308 137.583 191.218 137.583 187.676V177.6H135.031V187.742C135.031 189.81 133.887 190.998 131.687 190.998C129.509 190.998 128.343 189.81 128.343 187.742V177.6H125.791ZM145.506 177.292C142.58 177.292 140.248 178.964 140.248 181.648C140.248 184.486 142.206 185.542 145.176 186.202L145.77 186.334C147.772 186.752 148.828 187.28 148.828 188.688C148.828 189.986 147.772 191.042 145.814 191.042C143.394 191.042 142.14 189.722 142.14 187.566V187.104H139.61V187.698C139.61 191.196 142.008 193.308 145.77 193.308C148.982 193.308 151.358 191.548 151.358 188.578C151.358 185.85 149.554 184.684 146.54 184.024L145.946 183.892C143.922 183.43 142.778 183.034 142.778 181.604C142.778 180.394 143.878 179.558 145.506 179.558C147.398 179.558 148.652 180.46 148.652 182.33V182.836H151.16V182.154C151.16 179.03 148.74 177.292 145.506 177.292ZM153.657 177.6V193H158.673C162.699 193 164.965 190.976 164.965 186.884V183.716C164.965 179.602 162.699 177.6 158.673 177.6H153.657ZM156.209 179.932H158.673C161.269 179.932 162.413 181.164 162.413 183.694V186.906C162.413 189.436 161.269 190.668 158.673 190.668H156.209V179.932Z" fill="white"/>
<path d="M21.6239 385.7C-20.254 385.731 -54.4069 343.553 -54.445 291.256C-54.4832 238.958 -20.392 196.731 21.486 196.7C63.3639 196.67 97.5168 238.847 97.5549 291.145C97.5931 343.442 63.5019 385.67 21.6239 385.7Z" stroke="white" stroke-opacity="0.51"/>
<path d="M48.6406 408.681C6.7152 408.711 -27.387 370.955 -27.4211 324.236C-27.4552 277.517 6.59185 239.711 48.5172 239.681C90.4426 239.65 124.545 277.406 124.579 324.125C124.613 370.844 90.566 408.65 48.6406 408.681Z" stroke="white" stroke-opacity="0.51"/>
<path d="M182.356 18.5828C152.427 18.6047 125.348 15.1579 105.766 9.57827C95.9709 6.78751 88.08 3.47108 82.6486 -0.192133C77.1996 -3.86712 74.3367 -7.81188 74.3337 -11.8383C74.3308 -15.8648 77.188 -19.8137 82.6316 -23.4967C88.0577 -27.1678 95.9437 -30.4958 105.734 -33.3008C125.309 -38.909 152.383 -42.3953 182.311 -42.4172C212.24 -42.439 239.319 -38.9922 258.902 -33.4126C268.696 -30.6218 276.587 -27.3054 282.019 -23.6422C287.468 -19.9672 290.331 -16.0225 290.334 -11.996C290.337 -7.96954 287.479 -4.0206 282.036 -0.337664C276.61 3.33347 268.724 6.66142 258.933 9.46648C239.359 15.0746 212.285 18.561 182.356 18.5828Z" stroke="white" stroke-opacity="0.51"/>
<path d="M223.387 61.5529C183.555 61.582 151.367 33.5596 151.342 -0.894546C151.317 -35.3487 183.463 -63.418 223.296 -63.4471C263.129 -63.4762 295.316 -35.4538 295.342 -0.99965C295.367 33.4545 263.22 61.5238 223.387 61.5529Z" stroke="white" stroke-opacity="0.51"/>
<path d="M-15.3763 385.727C-57.3016 385.758 -91.4038 348.002 -91.4379 301.283C-91.472 254.564 -57.425 216.758 -15.4996 216.727C26.4258 216.697 60.5279 254.453 60.562 301.172C60.5961 347.891 26.5491 385.697 -15.3763 385.727Z" stroke="white" stroke-opacity="0.51"/>
<circle cx="47.8066" cy="269.011" r="15" transform="rotate(89.9582 47.8066 269.011)" fill="white" fill-opacity="0.59"/>
<circle cx="28.8066" cy="269.011" r="15" transform="rotate(89.9582 28.8066 269.011)" fill="white" fill-opacity="0.59"/>
<circle cx="51.2957" cy="25.5" r="1.5" fill="white"/>
<circle cx="59.2957" cy="25.5" r="1.5" fill="white"/>
<circle cx="43.2957" cy="25.5" r="1.5" fill="white"/>
<circle cx="35.2957" cy="25.5" r="1.5" fill="white"/>
<circle cx="27.2957" cy="25.5" r="1.5" fill="white"/>
<g clip-path="url(#clip1_19_301)">
<path d="M177.796 269H134.796V283H177.796V269Z" fill="#E5E5E5"/>
<mask id="mask0_19_301" style="mask-type:luminance" maskUnits="userSpaceOnUse" x="-114" y="-180" width="415" height="896">
<path d="M300.796 -180H-113.204V716H300.796V-180Z" fill="white"/>
</mask>
<g mask="url(#mask0_19_301)">
<path d="M300.796 -180H-113.204V716H300.796V-180Z" fill="white"/>
<g filter="url(#filter0_f_19_301)">
<path d="M160.069 108.315H30.4002C25.062 108.315 20.7346 112.642 20.7346 117.981V328.334C20.7346 333.673 25.062 338 30.4002 338H160.069C165.407 338 169.735 333.673 169.735 328.334V117.981C169.735 112.642 165.407 108.315 160.069 108.315Z" fill="white"/>
</g>
<g filter="url(#filter1_f_19_301)">
<path d="M167.069 97.969H24.4002C19.062 97.969 14.7346 102.296 14.7346 107.635V317.988C14.7346 323.327 19.062 327.654 24.4002 327.654H167.069C172.407 327.654 176.735 323.327 176.735 317.988V107.635C176.735 102.296 172.407 97.969 167.069 97.969Z" fill="white"/>
</g>
<g filter="url(#filter2_f_19_301)">
<path d="M174.069 69H16.4002C11.062 69 6.73462 73.3274 6.73462 78.6656V307.642C6.73462 312.981 11.062 317.308 16.4002 317.308H174.069C179.407 317.308 183.735 312.981 183.735 307.642V78.6656C183.735 73.3274 179.407 69 174.069 69Z" fill="white"/>
</g>
<g filter="url(#filter3_d_19_301)">
<path d="M192.361 299.865L192.361 35.6988C192.361 25.3717 183.989 17 173.662 17L15.6409 17C5.31383 17 -3.05792 25.3717 -3.05792 35.6988L-3.05792 299.865C-3.05792 310.192 5.31383 318.564 15.6409 318.564H173.662C183.989 318.564 192.361 310.192 192.361 299.865Z" fill="#E5BE90"/>
<mask id="mask1_19_301" style="mask-type:alpha" maskUnits="userSpaceOnUse" x="-4" y="17" width="197" height="302">
<path d="M173.681 17.184C183.998 17.184 192.362 25.548 192.362 35.865V299.883C192.362 310.2 183.998 318.564 173.681 318.564H15.4767C5.15965 318.564 -3.20435 310.2 -3.20435 299.883V35.865C-3.20435 25.548 5.15965 17.184 15.4767 17.184H173.681Z" fill="white" fill-opacity="0.3"/>
</mask>
<g mask="url(#mask1_19_301)">
<path d="M147.46 269.266L144.338 278.576C144.338 278.576 143.545 274.638 143.467 274.143C141.69 270.088 139.067 270.314 139.067 270.314L142.158 282.342V282.34H145.916L151.112 269.266H147.46Z" fill="white"/>
<path d="M150.436 282.342H153.849L155.913 269.265H152.457L150.436 282.342Z" fill="white"/>
<path d="M174.591 269.265H171L165.401 282.342H168.791L169.49 280.474H173.765L174.129 282.342H177.235L174.591 269.265ZM170.436 277.977L172.294 273.035L173.267 277.977H170.436Z" fill="white"/>
<path d="M160.755 273.077C160.755 272.356 161.347 271.82 163.044 271.82C164.148 271.82 165.411 272.621 165.411 272.621L165.965 269.876C165.965 269.876 164.351 269.264 162.766 269.264C159.177 269.264 157.326 270.981 157.326 273.154C157.326 277.084 162.056 276.546 162.056 278.564C162.056 278.91 161.782 279.71 159.812 279.71C157.836 279.71 156.532 278.986 156.532 278.986L155.944 281.62C155.944 281.62 157.207 282.341 159.649 282.341C162.097 282.341 165.492 280.51 165.492 277.881C165.492 274.717 160.755 274.489 160.755 273.077Z" fill="white"/>
<path d="M143.925 276.333L142.777 270.689C142.777 270.689 142.257 269.465 140.907 269.465C139.556 269.465 135.629 269.465 135.629 269.465C135.629 269.465 142.358 271.453 143.925 276.333Z" fill="#FFC107"/>
</g>
</g>
</g>
</g>
</g>
<defs>
<filter id="filter0_f_19_301" x="-13.2654" y="74.315" width="217" height="297.685" filterUnits="userSpaceOnUse" color-interpolation-filters="sRGB">
<feFlood flood-opacity="0" result="BackgroundImageFix"/>
<feBlend mode="normal" in="SourceGraphic" in2="BackgroundImageFix" result="shape"/>
<feGaussianBlur stdDeviation="17" result="effect1_foregroundBlur_19_301"/>
</filter>
<filter id="filter1_f_19_301" x="-19.2654" y="63.969" width="230" height="297.685" filterUnits="userSpaceOnUse" color-interpolation-filters="sRGB">
<feFlood flood-opacity="0" result="BackgroundImageFix"/>
<feBlend mode="normal" in="SourceGraphic" in2="BackgroundImageFix" result="shape"/>
<feGaussianBlur stdDeviation="17" result="effect1_foregroundBlur_19_301"/>
</filter>
<filter id="filter2_f_19_301" x="-27.2654" y="35" width="245" height="316.308" filterUnits="userSpaceOnUse" color-interpolation-filters="sRGB">
<feFlood flood-opacity="0" result="BackgroundImageFix"/>
<feBlend mode="normal" in="SourceGraphic" in2="BackgroundImageFix" result="shape"/>
<feGaussianBlur stdDeviation="17" result="effect1_foregroundBlur_19_301"/>
</filter>
<filter id="filter3_d_19_301" x="-11.4702" y="8.58765" width="218.247" height="324.392" filterUnits="userSpaceOnUse" color-interpolation-filters="sRGB">
<feFlood flood-opacity="0" result="BackgroundImageFix"/>
<feColorMatrix in="SourceAlpha" type="matrix" values="0 0 0 0 0 0 0 0 0 0 0 0 0 0 0 0 0 0 127 0" result="hardAlpha"/>
<feOffset dx="3.00173" dy="3.00173"/>
<feGaussianBlur stdDeviation="5.70704"/>
<feColorMatrix type="matrix" values="0 0 0 0 0.330816 0 0 0 0 0.358354 0 0 0 0 0.429167 0 0 0 0.05 0"/>
<feBlend mode="normal" in2="BackgroundImageFix" result="effect1_dropShadow_19_301"/>
<feBlend mode="normal" in="SourceGraphic" in2="effect1_dropShadow_19_301" result="shape"/>
</filter>
<clipPath id="clip0_19_301">
<rect width="195" height="301" fill="white"/>
</clipPath>
<clipPath id="clip1_19_301">
<rect width="43" height="14" fill="white" transform="translate(134.796 269)"/>
</clipPath>
</defs>
</svg>
