<svg width="338" height="254" viewBox="0 0 338 254" fill="none" xmlns="http://www.w3.org/2000/svg">
<path fill-rule="evenodd" clip-rule="evenodd" d="M91.9364 81.6292L88.2517 82.4396L87.4928 41.7757L215.032 9.32608L234.318 48.2454L98.6078 78.2982L91.9364 81.6292Z" fill="#212121"/>
<path fill-rule="evenodd" clip-rule="evenodd" d="M112.942 75.1457L111.478 75.47L99.0923 38.8468L100.542 38.478L112.942 75.1457ZM115.361 34.7075L127.967 69.8716C128.106 70.259 127.905 70.6862 127.516 70.8252C127.129 70.964 126.702 70.7623 126.564 70.3749L113.909 35.077L115.361 34.7075ZM133.658 30.0522L147.173 67.2417C147.212 67.3455 147.225 67.4523 147.216 67.5559L145.824 67.864C145.804 67.8285 145.786 67.7908 145.772 67.7511L132.206 30.4218L133.658 30.0522ZM165.866 63.4257L164.403 63.7498L151.832 25.4285L153.28 25.0599L165.866 63.4257ZM156.808 24.1622C158.719 30.0936 166.618 54.6085 169.243 62.6781L167.78 63.002C165.098 54.7527 157.209 30.269 155.361 24.5306L156.808 24.1622ZM180.098 18.2368L192.262 54.4085C192.393 54.7986 192.183 55.2217 191.793 55.3529C191.401 55.4841 190.978 55.2739 190.848 54.8839L178.647 18.6056L180.098 18.2368ZM196.179 14.1451L209.726 51.1135C209.868 51.4999 209.67 51.9285 209.283 52.0702C208.896 52.2118 208.467 52.013 208.326 51.6265L194.726 14.5149L196.179 14.1451ZM220.554 51.3153L219.083 51.6409L204.322 12.0733L205.777 11.7034L220.554 51.3153Z" fill="#D2D2D5"/>
<path fill-rule="evenodd" clip-rule="evenodd" d="M99.6108 77.9745L120.034 73.4798L132.889 55.3537L152.002 66.4425L185.653 59.0358L198.363 41.1137L217.26 52.0786L231.274 48.9939L250.636 136.7L109.431 167.782L90.0889 80.1608L90.0853 80.1601L90.0848 80.1425L90.0699 80.0751L90.083 80.0723L89.1663 44.8411L99.6108 77.9745Z" fill="#D2D2D5"/>
<path fill-rule="evenodd" clip-rule="evenodd" d="M133.015 55.8467L117.264 79.1293L113.927 76.8719L130.787 51.9518C131.402 51.0426 132.632 50.7934 133.552 51.3916L158.059 67.3168L155.863 70.6946L133.015 55.8467Z" fill="#212121"/>
<path fill-rule="evenodd" clip-rule="evenodd" d="M198.335 41.7218L182.957 65.2507L179.585 63.0465L196.044 37.8627C196.645 36.9439 197.871 36.6753 198.801 37.2588L223.558 52.794L221.416 56.2061L198.335 41.7218Z" fill="#212121"/>
<path fill-rule="evenodd" clip-rule="evenodd" d="M124.523 164.41L123.118 164.719L103.986 76.9624L105.392 76.6531L124.523 164.41Z" fill="white"/>
<path fill-rule="evenodd" clip-rule="evenodd" d="M150.695 76.8923C149.96 73.5602 147.93 70.6559 145.055 68.8176C142.178 66.9798 138.691 66.3588 135.358 67.0916C132.025 67.8245 129.121 69.8507 127.284 72.7253C125.447 75.5994 124.827 79.0864 125.562 82.4185L129.467 100.13L154.6 94.6036L150.695 76.8923Z" fill="white"/>
<path fill-rule="evenodd" clip-rule="evenodd" d="M134.249 67.2274C134.601 67.1171 134.959 67.0229 135.321 66.9426C135.429 66.919 135.538 66.8969 135.645 66.875L137.615 75.8989L149.38 73.3377C149.616 73.7693 149.828 74.2149 150.013 74.6723L137.922 77.3045L139.938 86.5378L152.227 83.8624L152.537 85.2674L140.245 87.9433L142.257 97.1612L140.852 97.47L138.839 88.2494L127.395 90.7408L127.085 89.3358L138.532 86.8438L136.516 77.6105L125.236 80.0661C125.216 79.573 125.221 79.08 125.257 78.5893L136.209 76.2049L134.249 67.2274Z" fill="#D2D2D5"/>
<path fill-rule="evenodd" clip-rule="evenodd" d="M146.654 78.7013L143.825 83.4589C143.743 83.596 143.789 83.773 143.925 83.8539C144.062 83.9345 144.239 83.89 144.32 83.7532L147.149 78.9954C147.23 78.86 147.186 78.6827 147.049 78.6021C146.912 78.52 146.736 78.5656 146.654 78.7013ZM145.148 78.7463L143.071 82.1066C142.987 82.2412 143.028 82.4177 143.164 82.5015C143.299 82.5855 143.477 82.5438 143.559 82.4095L145.637 79.0493C145.721 78.9147 145.679 78.7368 145.545 78.6527C145.409 78.5704 145.231 78.612 145.148 78.7463Z" fill="#D2D2D5"/>
<path fill-rule="evenodd" clip-rule="evenodd" d="M160.499 114.084C158.94 107.017 151.947 102.547 144.878 104.102L139.719 105.236C132.652 106.79 128.183 113.78 129.742 120.847L135.746 148.078L166.503 141.315L160.499 114.084Z" fill="white"/>
<path fill-rule="evenodd" clip-rule="evenodd" d="M143.27 104.304C149.664 104.251 155.445 108.666 156.876 115.159L162.79 141.979L135.675 147.941L135.61 147.649L161.321 141.996L155.471 115.467C153.998 108.788 147.388 104.564 140.708 106.033C139.92 106.206 139.128 106.38 138.339 106.554C135.582 107.16 133.245 108.64 131.552 110.642C133.364 107.913 136.195 105.859 139.648 105.1L143.27 104.304Z" fill="#D2D2D5"/>
<path fill-rule="evenodd" clip-rule="evenodd" d="M216.907 62.6909C216.172 59.3588 214.142 56.4545 211.267 54.6162C208.39 52.7784 204.903 52.1573 201.57 52.8902C198.237 53.6231 195.333 55.6493 193.495 58.5238C191.659 61.398 191.039 64.885 191.774 68.2171L195.679 85.9284L220.812 80.4022L216.907 62.6909Z" fill="white"/>
<path fill-rule="evenodd" clip-rule="evenodd" d="M200.868 52.9054C201.089 52.8455 201.311 52.7898 201.534 52.7412L201.536 52.7409C201.78 52.6862 202.028 52.6397 202.274 52.6008L204.189 61.3731L215.472 58.9168C215.717 59.3463 215.938 59.7901 216.133 60.2453L204.496 62.7786L206.512 72.0119L218.389 69.4262L218.699 70.8312L206.819 73.4175L208.882 82.8687L207.477 83.1775L205.413 73.7236L193.555 76.305L193.246 74.9L205.106 72.318L203.09 63.0847L191.442 65.6205C191.43 65.1255 191.445 64.6303 191.489 64.1378L202.783 61.6791L200.868 52.9054Z" fill="#D2D2D5"/>
<path fill-rule="evenodd" clip-rule="evenodd" d="M200.323 66.6431L197.078 71.1307C196.986 71.2598 197.015 71.4391 197.144 71.5317C197.272 71.626 197.453 71.597 197.545 71.4679L200.79 66.9803C200.883 66.8526 200.854 66.6719 200.725 66.5793C200.597 66.4864 200.416 66.5154 200.323 66.6431ZM198.578 66.6536L195.749 70.5455C195.655 70.6735 195.684 70.8542 195.812 70.9485C195.941 71.0411 196.12 71.0124 196.215 70.8844L199.043 66.9925C199.138 66.8644 199.109 66.6838 198.979 66.5912C198.851 66.4969 198.672 66.5256 198.578 66.6536Z" fill="#D2D2D5"/>
<path d="M223.89 93.4373L203.021 98.0704L209.066 125.228L229.936 120.595L223.89 93.4373Z" fill="white"/>
<path fill-rule="evenodd" clip-rule="evenodd" d="M220.041 122.835L218.637 123.147L212.877 95.9248L214.282 95.6128L220.041 122.835Z" fill="#D2D2D5"/>
<path d="M192.415 100.347L171.545 104.98L177.591 132.138L198.46 127.505L192.415 100.347Z" fill="white"/>
<path fill-rule="evenodd" clip-rule="evenodd" d="M189.111 129.686L187.706 129.998L181.523 102.871L182.927 102.559L189.111 129.686Z" fill="#D2D2D5"/>
<path fill-rule="evenodd" clip-rule="evenodd" d="M109.604 121.695L102.765 125.263L108.351 150.868L116.304 152.408L109.604 121.695ZM100.907 81.8298C100.514 80.0264 98.8392 78.7965 97.0003 78.9616C95.1612 79.1252 93.7322 80.6322 93.6662 82.4783L93.6661 82.4798C93.6443 83.0926 93.6992 83.705 93.8296 84.3024L98.8023 107.098L105.432 102.573L100.907 81.8298Z" fill="white"/>
<path fill-rule="evenodd" clip-rule="evenodd" d="M138.578 161.347L135.562 147.528C135.477 147.14 135.723 146.756 136.111 146.672C136.499 146.587 136.883 146.834 136.968 147.221L139.984 161.039L138.578 161.347ZM149.477 158.948L147.957 151.982L142.845 153.095C142.793 153.106 142.74 153.112 142.687 153.111C142.608 153.111 142.529 153.097 142.454 153.071L142.453 153.07C142.148 153.043 141.883 152.821 141.814 152.506L140.475 146.372C140.391 145.984 140.637 145.601 141.025 145.516C141.413 145.432 141.797 145.678 141.881 146.066L143.069 151.506L148.358 150.422L173.06 145.043L171.987 140.125L164.498 141.755C164.11 141.84 163.727 141.594 163.642 141.206C163.557 140.818 163.804 140.434 164.192 140.35L172.383 138.566C172.771 138.482 173.154 138.728 173.239 139.116L174.466 144.737L179.257 143.694C179.645 143.609 180.028 143.856 180.113 144.243L181.771 151.838L180.366 152.147L178.861 145.252L149.363 151.675L150.882 158.639L149.477 158.948Z" fill="white"/>
<path fill-rule="evenodd" clip-rule="evenodd" d="M177.824 79.2953C177.605 78.1728 176.949 77.183 176.001 76.5435C175.053 75.904 173.888 75.6673 172.767 75.885C172.65 75.9078 172.533 75.9306 172.417 75.9531C171.294 76.1711 170.305 76.826 169.666 77.7739C169.026 78.7216 168.79 79.8848 169.008 81.0072C169.594 84.0107 170.275 87.5114 170.275 87.5114L179.091 85.7995L177.824 79.2953Z" fill="white"/>
<path fill-rule="evenodd" clip-rule="evenodd" d="M175.133 79.9594L172.396 84.6132C172.315 84.75 172.361 84.9256 172.498 85.0063C172.635 85.0869 172.812 85.041 172.892 84.9042L175.629 80.252C175.709 80.1152 175.663 79.9382 175.526 79.8576C175.39 79.777 175.213 79.8229 175.133 79.9594ZM173.515 79.973L171.702 82.9752C171.62 83.1109 171.665 83.2882 171.801 83.3706C171.936 83.4529 172.114 83.4084 172.195 83.273L174.007 80.2708C174.089 80.1337 174.046 79.9575 173.91 79.8752C173.773 79.7932 173.597 79.8359 173.515 79.973Z" fill="#D2D2D5"/>
<path fill-rule="evenodd" clip-rule="evenodd" d="M112.921 15.5457C112.921 15.5457 106.88 15.5422 111.457 27.3434L120.053 25.2775L112.921 15.5457Z" fill="#80B1AE"/>
<path fill-rule="evenodd" clip-rule="evenodd" d="M111.471 15.9128C111.471 15.9128 116.339 14.8437 127.509 48.1483L188.575 33.6274C188.575 33.6274 181.289 4.60137 173.453 0L111.471 15.9128Z" fill="#56B2AA"/>
<path d="M131.392 34.2143C133.274 34.7386 135.166 34.5871 137.072 33.7589C139.304 32.7289 140.084 31.4163 139.413 29.8214C138.853 28.5195 137.754 28.0757 136.118 28.4888C135.381 28.7023 134.569 28.9347 133.685 29.1847C132.089 29.5994 130.713 29.5496 129.556 29.0366C128.363 28.5107 127.487 27.6155 126.925 26.3526C126.25 24.8356 126.208 23.3892 126.8 22.013C127.363 20.659 128.533 19.5776 130.314 18.7669C132.487 17.858 134.625 17.6261 136.727 18.0709L136.234 20.8879C134.554 20.6071 132.929 20.7965 131.355 21.4581C130.549 21.8161 129.967 22.3175 129.609 22.962C129.235 23.6326 129.224 24.3889 129.582 25.229C129.804 25.7295 130.199 26.0962 130.766 26.3295C131.339 26.5696 132.087 26.5794 133.012 26.3587C133.521 26.2275 134.211 26.0303 135.078 25.7684C136.8 25.2695 138.259 25.3205 139.455 25.9209C140.635 26.5097 141.5 27.419 142.048 28.6502C143.438 32.0092 142.162 34.5933 138.221 36.4024C135.657 37.5419 133.101 37.7266 130.551 36.9573L131.392 34.2143Z" fill="#212121"/>
<path fill-rule="evenodd" clip-rule="evenodd" d="M128.577 16.8754L136.408 39.4509L137.767 38.9799L129.936 16.4043L128.577 16.8754Z" fill="#212121"/>
<path fill-rule="evenodd" clip-rule="evenodd" d="M130.977 16.1045L138.807 38.6801L140.166 38.209L132.335 15.6334L130.977 16.1045Z" fill="#212121"/>
<path fill-rule="evenodd" clip-rule="evenodd" d="M141.214 16.0046L155.786 12.3089L156.068 13.4246L140.985 17.2501C140.695 17.3236 140.396 17.1629 140.299 16.8801L139.312 14.026C139.259 13.8738 139.273 13.7067 139.35 13.5649C139.425 13.4235 139.558 13.3202 139.714 13.2806L154.727 9.47311L155.01 10.5885L140.605 14.2421L141.214 16.0046Z" fill="#212121"/>
<path fill-rule="evenodd" clip-rule="evenodd" d="M172.055 6.18142L155.03 10.4995L154.746 9.38414L172.284 4.93591C172.574 4.86234 172.873 5.02311 172.97 5.30571L173.957 8.15986C174.01 8.31201 173.996 8.47929 173.919 8.62109C173.842 8.76289 173.71 8.86614 173.554 8.90576L156.088 13.3356L155.805 12.2199L172.664 7.94392L172.055 6.18142Z" fill="#212121"/>
<path fill-rule="evenodd" clip-rule="evenodd" d="M142.174 22.5372L155.696 19.1077L155.979 20.2232L141.945 23.7826C141.655 23.8563 141.356 23.6956 141.258 23.4128L140.271 20.5587C140.219 20.4066 140.232 20.2395 140.309 20.0977C140.385 19.956 140.518 19.8527 140.673 19.8133L155.696 16.0033L155.979 17.1189L141.565 20.7747L142.174 22.5372Z" fill="#212121"/>
<path fill-rule="evenodd" clip-rule="evenodd" d="M175.965 12.102L156.017 17.1619L155.734 16.0463L176.194 10.8565C176.484 10.7829 176.781 10.9439 176.879 11.2266L177.865 14.0807C177.918 14.2329 177.905 14.4001 177.828 14.5418C177.753 14.6832 177.62 14.7865 177.463 14.8263L156.017 20.2663L155.734 19.1507L176.574 13.8645L175.965 12.102Z" fill="#212121"/>
<path fill-rule="evenodd" clip-rule="evenodd" d="M150.233 27.7118L162.149 24.6898L162.433 25.8052L150.004 28.9573C149.715 29.0307 149.417 28.8698 149.319 28.587L148.332 25.7329C148.28 25.5807 148.293 25.4137 148.37 25.2719C148.446 25.1304 148.578 25.0271 148.733 24.9878L160.768 21.9358L161.05 23.0515L149.624 25.9493L150.233 27.7118Z" fill="#212121"/>
<path fill-rule="evenodd" clip-rule="evenodd" d="M178.927 18.4464L161.076 22.974L160.794 21.8582L179.156 17.2008C179.446 17.1272 179.744 17.2881 179.842 17.5707L180.829 20.4248C180.881 20.577 180.868 20.7441 180.791 20.886C180.715 21.0275 180.583 21.1308 180.426 21.1704L162.459 25.7277L162.175 24.6123L179.536 20.2089L178.927 18.4464Z" fill="#212121"/>
<path fill-rule="evenodd" clip-rule="evenodd" d="M148.411 35.1964L163.988 31.2458L164.271 32.3614L148.181 36.442C147.892 36.5154 147.594 36.3546 147.496 36.0719L146.509 33.2178C146.457 33.0656 146.471 32.8984 146.547 32.7567C146.624 32.615 146.756 32.5118 146.912 32.4723L162.953 28.4038L163.237 29.519L147.802 33.434L148.411 35.1964Z" fill="#212121"/>
<path fill-rule="evenodd" clip-rule="evenodd" d="M181.707 24.8222L163.283 29.4954L162.998 28.3801L181.936 23.5766C182.226 23.5033 182.524 23.664 182.622 23.9466L183.608 26.8008C183.661 26.9529 183.647 27.1203 183.571 27.262C183.494 27.4037 183.362 27.5069 183.206 27.5464L164.316 32.3377L164.033 31.2221L182.316 26.5847L181.707 24.8222Z" fill="#212121"/>
<g clip-path="url(#clip0_1_133)">
<path fill-rule="evenodd" clip-rule="evenodd" d="M281.698 125.453C281.698 125.453 286.797 124.283 291.628 120.741C299.31 115.1 301.386 104.514 296.406 96.388C290.857 87.3226 279.366 73.7691 264.221 83.7667C260.861 85.9845 254.366 90.9201 252.464 113.694C252.464 113.694 252.606 133.268 237.065 135.146C223.326 136.804 211.541 142.686 207.7 147.737C207.397 148.14 207.322 148.671 207.503 149.141C207.684 149.611 208.096 149.954 208.591 150.049C210.97 150.503 214.649 151.206 214.649 151.206C214.649 151.206 213.117 153.591 207.532 157.792C207.532 157.792 203.01 160.674 203.509 164.767C203.56 165.178 203.785 165.548 204.129 165.78C204.473 166.011 204.9 166.083 205.302 165.977C206.135 165.641 207.428 165.073 209.35 164.088C209.35 164.088 214.371 166.138 219.764 162.853C219.764 162.853 251.471 163.085 271.246 144.621C275.034 141.084 279.452 135.79 281.698 125.453Z" fill="#FFB000"/>
<path fill-rule="evenodd" clip-rule="evenodd" d="M225.813 162.604L224.285 160.896C224.021 160.601 224.045 160.145 224.342 159.88C224.636 159.615 225.093 159.641 225.357 159.936L227.587 162.428C226.966 162.496 226.373 162.553 225.813 162.604Z" fill="#FFCF84"/>
<path fill-rule="evenodd" clip-rule="evenodd" d="M209.329 164.161C209.05 164.305 221.407 155.623 221.407 155.623C221.733 155.397 222.181 155.477 222.408 155.804C222.634 156.129 222.553 156.578 222.228 156.805L210.999 164.603C209.953 164.416 209.329 164.161 209.329 164.161ZM219.742 162.927C219.38 163.148 225.59 158.665 225.59 158.665C225.916 158.438 226.364 158.517 226.592 158.842C226.819 159.168 226.74 159.616 226.415 159.845L222.107 162.862C220.595 162.934 219.742 162.927 219.742 162.927ZM213.116 150.992C214.174 149.587 214.502 148.199 214.566 147.881L214.574 147.838L214.577 147.818C214.593 147.73 214.615 147.685 214.618 147.675C214.692 147.494 214.799 147.412 214.849 147.373C215.081 147.198 215.307 147.199 215.499 147.259C215.646 147.306 215.865 147.406 215.968 147.723C215.973 147.737 216.023 147.842 215.997 148.039C215.997 148.046 215.992 148.087 215.977 148.16C215.876 148.668 214.628 151.279 214.628 151.279L213.116 150.992ZM215.987 148.103C215.979 148.139 215.968 148.174 215.954 148.209C215.958 148.199 215.964 148.185 215.971 148.163C215.976 148.147 215.981 148.13 215.986 148.108L215.99 148.085L215.987 148.103Z" fill="#FD8509"/>
<path fill-rule="evenodd" clip-rule="evenodd" d="M244.062 132.637C252.607 126.869 252.511 113.695 252.511 113.695C254.413 90.9202 260.909 85.9846 264.268 83.7669C279.413 73.7692 290.904 87.3227 296.453 96.3881C301.434 104.514 299.358 115.1 291.675 120.742C286.844 124.283 281.745 125.453 281.745 125.453C279.499 135.79 275.081 141.085 271.293 144.621C268.091 147.612 264.573 150.112 260.929 152.204L244.062 132.637Z" fill="#FD9909"/>
<path fill-rule="evenodd" clip-rule="evenodd" d="M281.678 125.481C281.678 125.481 282.489 115.273 282.06 107.956C282.029 107.666 282.216 107.398 282.496 107.326C282.778 107.253 283.07 107.399 283.183 107.667C284.666 111.31 286.805 117.352 287.473 123.28C284.252 124.891 281.678 125.481 281.678 125.481Z" fill="#D84B26"/>
<path d="M267.078 76.5675C272.635 76.5675 277.14 72.0628 277.14 66.506C277.14 60.9491 272.635 56.4445 267.078 56.4445C261.521 56.4445 257.017 60.9491 257.017 66.506C257.017 72.0628 261.521 76.5675 267.078 76.5675Z" fill="#FFB000"/>
<path fill-rule="evenodd" clip-rule="evenodd" d="M263.445 57.1044C264.559 56.6781 265.769 56.4446 267.033 56.4446C272.587 56.4446 277.094 60.9529 277.094 66.5059C277.094 70.3654 274.917 73.7201 271.725 75.4074L269.358 70.1776C269.758 70.1683 270.17 70.0612 270.554 69.8474C271.705 69.2072 272.172 67.8505 271.598 66.8197C271.026 65.7889 269.626 65.4718 268.475 66.112C268.202 66.2644 267.967 66.4572 267.774 66.6766L263.445 57.1044Z" fill="#212121"/>
<path fill-rule="evenodd" clip-rule="evenodd" d="M305.919 129.262C299.107 126.444 289.325 126.712 272.479 149.734C269.405 153.935 232.645 195.937 227.041 215.82C225.685 220.63 222.053 231.52 221.53 248.447C218.218 249.268 215.399 250.562 213.834 253.063H253.01C254.221 253.063 255.235 252.143 255.353 250.937C256.003 245.608 259.143 231.025 274.127 215.82C274.127 215.82 296.424 239.383 315.462 247.113C310.283 248.478 307.481 250.579 305.919 253.063H325.75C327.026 253.063 328.2 252.364 328.809 251.242C330.81 247.553 335.324 239.232 337.393 235.418C338.031 234.242 337.825 232.789 336.888 231.835C332.122 226.983 317.485 212.052 305.919 199.983C310.337 185.969 314.694 171.528 318.617 154.1C320.23 146.954 318.221 139.473 313.249 134.094C311.193 131.877 309.232 130.633 305.919 129.262Z" fill="url(#paint0_linear_1_133)"/>
<path fill-rule="evenodd" clip-rule="evenodd" d="M306.351 198.664C306.22 199.08 306.09 199.494 305.96 199.91C306.885 200.875 307.83 201.859 308.788 202.855L304.639 206.617C304.438 206.798 304.139 206.821 303.913 206.669C303.688 206.518 303.595 206.233 303.688 205.977L306.351 198.664Z" fill="#D9512E"/>
<path fill-rule="evenodd" clip-rule="evenodd" d="M329.859 224.615C330.204 224.967 330.541 225.311 330.869 225.648L313.288 246.118C312.84 245.911 312.39 245.696 311.943 245.476L329.859 224.615ZM222.132 239.265L257.448 241.937C257.287 242.417 257.136 242.888 256.996 243.345L221.991 240.698C222.036 240.213 222.083 239.736 222.132 239.265ZM284.756 135.522C279.125 142.132 268.89 163.219 266.483 183.273C264.877 196.651 266.736 209.588 275.977 217.344C276.154 217.492 276.241 217.708 276.234 217.922C274.876 216.565 274.118 215.763 274.118 215.763C273.803 216.082 273.493 216.401 273.188 216.721C265.189 208.556 263.502 196.045 265.054 183.101C266.947 167.332 273.626 150.944 279.205 141.22C281.163 138.991 283.01 137.108 284.756 135.522Z" fill="#FD9409"/>
</g>
<g clip-path="url(#clip1_1_133)">
<path fill-rule="evenodd" clip-rule="evenodd" d="M54.2324 125.343C54.2324 125.343 76.7391 157.436 86.5412 171.415C89.3942 175.482 93.808 178.184 98.7292 178.874C102.697 179.431 107.272 180.073 110.057 180.464C111.64 180.686 113.214 180.009 114.143 178.71C115.786 176.413 118.179 173.063 118.179 173.063C118.179 173.063 120.76 172.341 121.951 172.007C122.437 171.872 122.754 171.403 122.698 170.902C122.63 170.451 122.396 169.892 121.715 169.359C120.753 168.605 119.678 168.428 109.637 169.905C109.637 169.905 110.056 159.849 100.671 158.82L92.6222 144.412L54.2324 125.343Z" fill="#FFC5BD"/>
<path fill-rule="evenodd" clip-rule="evenodd" d="M118.176 173.113L116.99 174.771L111.663 175.951L110.804 178.036C110.653 178.404 110.231 178.578 109.864 178.427C109.498 178.276 109.322 177.855 109.473 177.488L109.951 176.329L101.264 178.253C100.875 178.338 100.491 178.093 100.406 177.706C100.32 177.318 100.565 176.934 100.953 176.849L119.406 172.763C119.423 172.76 119.44 172.756 119.459 172.754L118.176 173.113ZM109.57 168.522C109.657 169.394 109.634 169.955 109.634 169.955C110.1 169.886 110.548 169.821 110.977 169.76C110.966 169.762 110.958 169.763 110.948 169.765L108.345 170.166C107.952 170.227 107.586 169.956 107.525 169.565C107.465 169.172 107.734 168.804 108.127 168.743L109.57 168.522Z" fill="#F2887B"/>
<path fill-rule="evenodd" clip-rule="evenodd" d="M54.3264 125.39C54.3613 125.425 54.3931 125.464 54.421 125.508C67.2858 145.435 86.381 145.278 92.7272 144.6L93.4869 145.96C88.7036 146.561 74.5909 147.21 62.1143 136.582L54.2324 125.343L54.3264 125.39Z" fill="#F2887B"/>
<path fill-rule="evenodd" clip-rule="evenodd" d="M30.6661 179.241C27.9231 170.183 26.0128 161.407 25.5524 153.668C24.8895 142.529 31.2357 134.917 39.6118 133.92C42.303 133.601 48.0923 133.43 53.4311 138.748L53.4521 138.701C53.4521 138.701 73.5574 157.502 86.1334 183.114C89.6537 190.318 88.5223 198.866 83.4029 204.888C87.9206 218.268 92.2131 232.959 95.6236 248.184C95.6236 248.184 101.505 249.344 104.535 253.12H65.2838C64.5633 253.12 63.897 252.738 63.5344 252.115C61.2772 248.183 52.8059 233.154 44.4245 214.755C35.2258 212.503 24.0067 207.786 10.5379 199.086C10.5379 199.086 5.9459 202.434 1.55127 202.445C1.55127 202.445 16.8113 181.236 20.3761 176.283C20.8085 175.681 21.5979 175.458 22.281 175.743C24.8292 176.806 30.6661 179.241 30.6661 179.241Z" fill="url(#paint1_linear_1_133)"/>
<path fill-rule="evenodd" clip-rule="evenodd" d="M85.7472 182.347C85.8662 182.586 85.9851 182.826 86.1033 183.067C86.2198 183.305 86.3312 183.546 86.4374 183.786H76.735C76.338 183.786 76.0156 183.464 76.0156 183.067C76.0156 182.669 76.338 182.347 76.735 182.347H85.7472Z" fill="#F2887B"/>
<path fill-rule="evenodd" clip-rule="evenodd" d="M28.8032 178.543L30.6253 179.302C33.8388 187.847 45.0877 216.356 44.3877 214.819C43.8432 214.687 43.2916 214.544 42.7329 214.393C38.4639 204.18 30.8381 183.961 28.8032 178.543ZM56.8729 142.229C58.2881 143.702 60.0702 145.618 62.0888 147.92C72.505 165.977 77.3548 184.81 84.3863 203.648C84.0662 204.094 83.7259 204.53 83.3661 204.953C82.7853 205.297 68.5686 156.874 56.8729 142.229Z" fill="#F28476"/>
<path fill-rule="evenodd" clip-rule="evenodd" d="M77.2219 186.239C77.3921 186.682 77.5617 187.123 77.7307 187.567L77.7664 187.662L33.427 187.624L33.4069 187.567C33.2558 187.134 33.1061 186.7 32.9573 186.266L32.9297 186.185L77.2157 186.223L77.2219 186.239Z" fill="#F28476"/>
<path fill-rule="evenodd" clip-rule="evenodd" d="M44.4239 82.5161C47.955 81.307 60.97 79.8287 66.7504 93.5982C67.908 96.3554 75.2366 118.273 93.173 116.315C93.173 116.315 101.007 115.775 111.257 108.14C111.257 108.14 123.654 98.6033 136.648 97.0833C137.26 97.0178 137.87 97.2058 138.337 97.6035C138.805 98.0013 139.09 98.5736 139.123 99.1866C139.183 100.196 138.612 101.391 136.376 102.424C136.376 102.424 129.557 104.895 127.151 107.139C127.151 107.139 131.02 105.73 132.318 108.695C132.549 109.224 133.119 111.559 130.373 113.335C130.373 113.335 133.703 112.543 134.561 115.088C134.991 116.367 134.834 117.836 132.318 119.404C132.318 119.404 133.966 119.164 134.561 120.431C135.094 121.573 134.843 122.84 130.373 126.563C125.92 130.272 104.373 145.598 89.2195 144.876C74.066 144.154 61.5531 136.323 53.6349 124.746C53.6349 124.746 38.3659 131.678 29.032 118.167C26.3139 114.231 20.5663 90.6847 44.4239 82.5161Z" fill="#FFC5BD"/>
<path fill-rule="evenodd" clip-rule="evenodd" d="M128.593 114.966C128.593 114.966 130.325 117.852 130.535 120.718C130.564 121.114 130.909 121.412 131.305 121.383C131.702 121.353 132 121.008 131.969 120.612C131.736 117.434 129.827 114.228 129.827 114.228C129.624 113.887 129.247 114.024 128.906 114.228C128.565 114.431 128.388 114.625 128.593 114.966Z" fill="#FD9909"/>
<path fill-rule="evenodd" clip-rule="evenodd" d="M129.306 121.008C131.122 120.02 131.782 119.623 132.323 119.327C132.323 119.327 133.402 119.169 134.128 119.781C133.024 120.633 131.683 121.352 129.994 122.272C129.644 122.462 129.207 122.333 129.018 121.984C128.828 121.636 128.956 121.198 129.306 121.008ZM127.411 114.721C129.697 113.611 129.843 113.512 130.378 113.257C130.378 113.257 131.437 113.006 132.513 113.242C131.493 114.191 130.24 114.947 128.038 116.015C127.682 116.189 127.251 116.039 127.077 115.682C126.905 115.325 127.053 114.894 127.411 114.721ZM124.669 108.381C126.011 107.678 126.653 107.334 127.157 107.062C127.157 107.062 128.611 106.532 130.037 106.806C128.036 108.01 127.079 108.743 125.335 109.655C124.984 109.84 124.55 109.703 124.365 109.352C124.181 109 124.317 108.565 124.669 108.381Z" fill="#F2887B"/>
<path fill-rule="evenodd" clip-rule="evenodd" d="M53.6311 124.748C53.3575 124.871 38.2808 131.556 29.032 118.167C26.3139 114.231 20.5663 90.6847 44.4239 82.5161C47.955 81.307 60.97 79.8287 66.7504 93.5982C67.2507 94.7896 68.903 99.5584 72.0645 104.431L49.3989 116.606C50.2859 119.384 51.9434 122.042 53.6311 124.748Z" fill="#C33C29"/>
<path fill-rule="evenodd" clip-rule="evenodd" d="M47.5688 126.396C44.2913 116.883 45.1577 111.05 45.9089 108.515C45.9624 108.348 46.1251 108.24 46.2999 108.257C46.4747 108.274 46.614 108.41 46.6344 108.585C47.047 110.893 48.2315 114.047 49.5457 117.004C50.168 118.819 51.1081 120.586 52.1578 122.35C52.7316 123.417 53.2377 124.281 53.6066 124.831C53.1994 125.007 50.8358 125.982 47.5688 126.396Z" fill="#C33C29"/>
<path fill-rule="evenodd" clip-rule="evenodd" d="M49.9055 115.513L51.9205 119.226C52.1098 119.575 52.5469 119.705 52.8958 119.515C53.2448 119.326 53.3744 118.889 53.185 118.54L51.1701 114.827C50.9806 114.478 50.5437 114.348 50.1946 114.537C49.8458 114.727 49.7161 115.164 49.9055 115.513ZM53.7727 113.509L55.6128 117.312C55.7855 117.669 56.2161 117.819 56.5735 117.646C56.9309 117.473 57.0807 117.043 56.9077 116.686L55.0676 112.882C54.8947 112.525 54.4642 112.375 54.1069 112.548C53.7495 112.721 53.5997 113.151 53.7727 113.509ZM57.6436 111.271L59.5282 115.052C59.7053 115.407 60.1376 115.552 60.493 115.375C60.8483 115.198 60.9929 114.765 60.8158 114.41L58.9313 110.629C58.7541 110.274 58.3218 110.129 57.9666 110.306C57.6112 110.483 57.4665 110.915 57.6436 111.271ZM61.514 109.17L63.4768 112.912C63.6612 113.263 64.0965 113.399 64.4481 113.214C64.7995 113.03 64.9352 112.595 64.7508 112.243L62.788 108.502C62.6035 108.15 62.1683 108.015 61.8167 108.199C61.4652 108.384 61.3295 108.819 61.514 109.17ZM65.3652 107.129L67.328 110.87C67.5125 111.221 67.9477 111.357 68.2993 111.173C68.6508 110.988 68.7865 110.553 68.602 110.201L66.6392 106.46C66.4548 106.109 66.0195 105.973 65.6679 106.157C65.3165 106.342 65.1808 106.777 65.3652 107.129ZM69.2165 105.087L71.1793 108.828C71.3637 109.18 71.7989 109.315 72.1505 109.131C72.502 108.946 72.6377 108.511 72.4532 108.16L70.4904 104.418C70.306 104.067 69.8708 103.931 69.5192 104.116C69.1677 104.3 69.032 104.735 69.2165 105.087Z" fill="#F28476"/>
<path d="M43.8939 78.756C49.6841 78.756 54.378 74.0621 54.378 68.2718C54.378 62.4815 49.6841 57.7876 43.8939 57.7876C38.1036 57.7876 33.4097 62.4815 33.4097 68.2718C33.4097 74.0621 38.1036 78.756 43.8939 78.756Z" fill="#FFC5BD"/>
<path fill-rule="evenodd" clip-rule="evenodd" d="M35.7949 66.1329C35.8615 66.2458 35.5381 66.0783 35.4092 66.0542C35.0544 65.9874 34.707 65.8837 34.3588 65.7893C33.4244 65.5361 32.5118 65.2318 31.6039 64.8967C28.8204 63.8695 26.0646 62.7367 23.3446 61.5523C17.3568 58.9454 4.08154 51.9971 0.812685 61.4322C0.400644 62.6219 0.1424 63.8872 0.0488848 65.1427C-0.106063 67.2208 0.289866 69.2896 1.03871 71.2248C4.74161 80.7946 11.5045 80.1657 19.7457 77.0753C25.6746 74.8519 30.8041 71.7757 36.1897 68.5443" fill="#212121"/>
<path fill-rule="evenodd" clip-rule="evenodd" d="M36.6955 75.8915C34.6726 73.9796 33.4097 71.272 33.4097 68.2718C33.4097 62.4854 38.1074 57.7876 43.8939 57.7876C45.8548 57.7876 47.6907 58.3271 49.2619 59.2661C48.8476 62.8322 46.8009 71.9076 36.6955 75.8915Z" fill="#212121"/>
</g>
<g clip-path="url(#clip2_1_133)">
<path fill-rule="evenodd" clip-rule="evenodd" d="M135.042 100.084C136.027 101.818 136.639 103.415 136.744 104.413C136.816 105.101 136.627 105.558 136.316 105.754C136.006 105.949 135.512 105.921 134.924 105.558C133.921 104.94 132.477 103.335 131.17 101.258C129.864 99.1816 129.042 97.184 128.92 96.0121C128.848 95.3249 129.035 94.8671 129.346 94.6717C129.657 94.4762 130.152 94.505 130.739 94.8677C131.021 95.0412 131.334 95.2655 131.672 95.583L130.697 95.7978C130.437 95.5909 130.209 95.4535 130.005 95.3775C129.907 95.3407 129.827 95.302 129.766 95.34C129.706 95.378 129.707 95.4663 129.697 95.5715C129.677 95.7939 129.711 96.0798 129.789 96.4153C130.05 97.5402 130.782 99.1587 131.838 100.838C132.894 102.517 134.036 103.878 134.937 104.599C135.206 104.815 135.449 104.97 135.658 105.048C135.757 105.085 135.836 105.123 135.896 105.085C135.957 105.048 135.957 104.959 135.965 104.854C135.987 104.632 135.951 104.346 135.873 104.01C135.658 103.075 135.121 101.816 134.337 100.448C134.55 100.356 134.786 100.228 135.042 100.084Z" fill="#212121"/>
<path fill-rule="evenodd" clip-rule="evenodd" d="M139.039 107.147C140.513 107.147 141.708 108.342 141.708 109.814C141.708 111.287 140.513 112.482 139.039 112.482C138.265 112.482 137.637 113.111 137.637 113.886C137.637 114.66 138.265 115.289 139.039 115.289C142.061 115.289 144.514 112.836 144.514 109.814C144.514 106.793 142.061 104.34 139.039 104.34C138.265 104.34 137.637 104.969 137.637 105.743C137.637 106.518 138.265 107.147 139.039 107.147Z" fill="#212121"/>
<path fill-rule="evenodd" clip-rule="evenodd" d="M138.986 112.482C137.514 112.482 136.319 111.287 136.319 109.814C136.319 108.342 137.514 107.147 138.986 107.147C139.761 107.147 140.39 106.518 140.39 105.743C140.39 104.969 139.761 104.34 138.986 104.34C135.964 104.34 133.511 106.793 133.511 109.814C133.511 112.836 135.964 115.289 138.986 115.289C139.761 115.289 140.39 114.66 140.39 113.886C140.39 113.111 139.761 112.482 138.986 112.482Z" fill="#212121"/>
<path fill-rule="evenodd" clip-rule="evenodd" d="M150.715 126.644L151.141 127.353C151.538 128.017 151.322 128.879 150.659 129.278C149.994 129.676 149.131 129.461 148.732 128.796L139.948 114.146C139.549 113.482 139.766 112.619 140.43 112.22C141.094 111.822 141.957 112.038 142.356 112.702L147.488 121.263L148.77 120.517C149.088 120.332 149.496 120.44 149.682 120.759C150.017 121.337 150.531 122.22 150.86 122.786C150.944 122.93 150.967 123.101 150.923 123.262C150.882 123.423 150.777 123.561 150.633 123.644L149.36 124.384L149.807 125.13L151.112 124.371C151.234 124.3 151.379 124.281 151.515 124.317C151.651 124.353 151.766 124.442 151.838 124.563C151.955 124.764 152.09 124.998 152.205 125.196C152.273 125.311 152.29 125.448 152.257 125.577C152.223 125.706 152.139 125.816 152.023 125.883L150.715 126.644Z" fill="#212121"/>
</g>
<defs>
<linearGradient id="paint0_linear_1_133" x1="276.15" y1="190.548" x2="328.588" y2="141.854" gradientUnits="userSpaceOnUse">
<stop stop-color="#FFB309"/>
<stop offset="1" stop-color="#FD9909"/>
</linearGradient>
<linearGradient id="paint1_linear_1_133" x1="53.043" y1="193.453" x2="-4.23144" y2="320.884" gradientUnits="userSpaceOnUse">
<stop stop-color="#FFC5BD"/>
<stop offset="1" stop-color="#FF4A31"/>
</linearGradient>
<clipPath id="clip0_1_133">
<rect width="135" height="198" fill="white" transform="translate(203 56)"/>
</clipPath>
<clipPath id="clip1_1_133">
<rect width="140" height="198" fill="white" transform="translate(0 56)"/>
</clipPath>
<clipPath id="clip2_1_133">
<rect width="25" height="36" fill="white" transform="translate(128 94)"/>
</clipPath>
</defs>
</svg>
