<svg width="131" height="205" viewBox="0 0 131 205" fill="none" xmlns="http://www.w3.org/2000/svg">
<g id="CHARACTER 2">
<g id="GREEN CHARACTER">
<g id="Group">
<g id="Group_2">
<path id="Vector" fill-rule="evenodd" clip-rule="evenodd" d="M86.8845 76.0061C86.8845 76.0061 56.4057 72.5827 44.6032 94.6108C40.6316 102.023 11.1941 170.756 8.07352 197.844C8.07352 197.844 0.98458 200.086 0 203.725H41.7599C42.2024 203.725 42.6016 203.459 42.7722 203.05C45.8194 195.76 72.5587 131.783 72.5587 131.783C72.5587 131.783 75.9968 189.777 76.6989 201.626C76.7693 202.805 77.7459 203.725 78.9269 203.725C86.8433 203.725 114.417 203.725 114.417 203.725C114.417 203.725 113.439 199.902 106.277 197.844C106.277 197.844 110.15 107.63 99.3995 85.0431L86.8845 76.0061Z" fill="url(#paint0_linear_1_21202)"/>
<path id="Vector_2" fill-rule="evenodd" clip-rule="evenodd" d="M66.6323 145.9L70.4017 107.869C70.4275 107.605 70.6523 107.406 70.9184 107.413C71.1827 107.42 71.3973 107.631 71.4093 107.897L72.4838 131.9L66.6323 145.9Z" fill="#13524E"/>
<path id="Vector_3" fill-rule="evenodd" clip-rule="evenodd" d="M106.9 163.054C106.9 163.631 106.899 164.202 106.897 164.771H74.4605L74.3592 163.054H106.9ZM17.1766 163.054H59.4209L58.7036 164.771H16.6006L16.6097 164.743C16.7918 164.197 16.975 163.653 17.159 163.107L17.1766 163.054Z" fill="#56B2AA"/>
</g>
<g id="Group_3">
<g id="Group_4">
<path id="Vector_4" d="M63.4235 23.1428C69.6184 23.1428 74.6404 18.1209 74.6404 11.9259C74.6404 5.73098 69.6184 0.708984 63.4235 0.708984C57.2285 0.708984 52.2065 5.73098 52.2065 11.9259C52.2065 18.1209 57.2285 23.1428 63.4235 23.1428Z" fill="#56B2AA"/>
</g>
<path id="Vector_5" fill-rule="evenodd" clip-rule="evenodd" d="M62.5949 0.708984C63.1614 2.99518 63.9801 8.76055 59.7184 13.8548C59.2667 13.1232 58.4491 12.634 57.5165 12.634C56.0951 12.634 54.9413 13.77 54.9413 15.1689C54.9413 16.568 56.0951 17.704 57.5165 17.704C57.7623 17.704 58.0002 17.6698 58.2256 17.6063C58.2577 18.4898 58.0292 19.725 56.9458 21.0518C54.0792 19.0195 52.2065 15.6746 52.2065 11.8957C52.2065 5.98343 56.7904 1.13347 62.5949 0.708984Z" fill="black"/>
<path id="Vector_6" fill-rule="evenodd" clip-rule="evenodd" d="M54.2451 17.6532C53.9262 17.8403 53.1231 17.8121 52.7578 17.8854C51.5597 18.1256 50.3684 18.4042 49.1823 18.6973C45.514 19.6038 41.8979 20.6946 38.4757 22.315C35.986 23.4939 33.3791 24.9862 32.2011 27.5987C30.4887 31.3963 33.5321 34.8047 37.4886 34.448C41.3043 34.104 44.2991 31.3395 46.8416 28.7397C49.8162 25.6979 53.2128 22.4192 55.4935 18.789" fill="black"/>
</g>
<g id="Group_5">
<path id="Vector_7" fill-rule="evenodd" clip-rule="evenodd" d="M41.225 42.7755C39.3265 44.7982 22.6251 63.0574 10.0761 77.1441C5.86594 81.9087 5.48453 88.9429 9.15491 94.1353C9.15439 94.137 9.15456 94.137 9.15456 94.137C12.3783 98.6978 18.2132 100.601 23.5063 98.8196C29.2416 96.8869 37.0745 92.424 46.1899 82.4254C50.8204 77.3461 54.5014 72.7083 57.5389 69.8691C57.5389 69.8691 70.8647 74.156 77.7186 66.8081C77.7186 66.8081 94.451 88.1877 110.644 96.7101C117.049 100.04 124.939 97.8052 128.645 91.6104C130.37 88.7507 131.095 85.3074 129.153 81.5689C120.653 65.1941 107.306 52.8041 86.9053 33.1892C82.9454 29.3806 76.021 23.9409 62.6101 27.0452C57.5572 28.2148 51.3981 31.9363 41.225 42.7755Z" fill="#A8CFCC"/>
<path id="Vector_8" fill-rule="evenodd" clip-rule="evenodd" d="M70.6145 56.1983C70.6145 56.1983 71.0539 56.085 71.5723 56.1319C72.0117 56.1715 72.5318 56.3269 72.7996 56.8799C73.1584 57.6237 72.6159 58.2377 71.7886 58.865C70.1116 60.1376 67.1575 61.2506 64.5416 62.3157C64.1897 62.4585 64.0215 62.8595 64.1639 63.2105C64.3064 63.5614 64.7081 63.7304 65.0582 63.5875C67.7926 62.475 70.8668 61.2886 72.6194 59.959C74.0818 58.8496 74.6706 57.599 74.0355 56.2831C73.5171 55.2094 72.549 54.8414 71.6959 54.7642C70.9218 54.6943 70.2643 54.8708 70.2643 54.8708C69.897 54.9676 69.679 55.3437 69.7751 55.71C69.873 56.0764 70.2489 56.2953 70.6145 56.1983Z" fill="#56B2AA"/>
<path id="Vector_9" fill-rule="evenodd" clip-rule="evenodd" d="M75.9283 53.4703C75.9283 53.4703 76.7454 52.6781 77.8577 52.0459C78.5529 51.6513 79.3665 51.3083 80.1647 51.3125C80.4908 51.313 80.798 51.4546 81.0092 51.7004C81.2203 51.946 81.313 52.2715 81.2632 52.5914C81.1293 53.3623 80.762 54.4088 79.8145 55.4075C78.5117 56.7815 75.2143 60.9301 64.7128 62.2599C64.3369 62.3075 64.0708 62.6514 64.1189 63.0274C64.167 63.4033 64.5103 63.6698 64.8862 63.6223C75.9696 62.2184 79.4351 57.8032 80.8118 56.3526C81.9961 55.1047 82.4476 53.7942 82.6192 52.8137C82.7308 52.0842 82.5231 51.3564 82.0528 50.8068C81.5808 50.2571 80.8941 49.9403 80.1698 49.9393C79.1399 49.9341 78.0774 50.3419 77.1797 50.8517C75.9043 51.5761 74.9706 52.4857 74.9706 52.4857C74.6993 52.7498 74.6925 53.185 74.9568 53.4567C75.2211 53.7282 75.6554 53.7344 75.9283 53.4703Z" fill="#56B2AA"/>
<path id="Vector_10" fill-rule="evenodd" clip-rule="evenodd" d="M77.6568 57.9291C77.6568 57.9291 75.8974 62.4198 74.1603 64.1553C73.8925 64.4233 73.8925 64.8584 74.1603 65.1264C74.4281 65.3945 74.8641 65.3945 75.1318 65.1265C77.0028 63.2561 78.9339 58.4351 78.9339 58.4351C79.0729 58.0829 78.9013 57.6835 78.5477 57.5437C78.1958 57.4042 77.7958 57.5769 77.6568 57.9291Z" fill="#56B2AA"/>
<path id="Vector_11" fill-rule="evenodd" clip-rule="evenodd" d="M72.3564 60.9298V62.5458C72.3564 62.9248 72.6637 63.2324 73.043 63.2324C73.4207 63.2324 73.7296 62.9248 73.7296 62.5458V60.9298C73.7296 60.5509 73.4207 60.2432 73.043 60.2432C72.6637 60.2432 72.3564 60.5509 72.3564 60.9298Z" fill="#56B2AA"/>
<path id="Vector_12" fill-rule="evenodd" clip-rule="evenodd" d="M77.3243 34.8863C77.3243 34.8863 76.2258 35.3415 75.7091 36.5937C75.3916 37.3624 75.2749 38.4547 75.8756 39.9553C76.5691 41.6843 78.3525 46.8022 75.9288 50.7418C75.7297 51.0645 75.831 51.4876 76.152 51.6863C76.4764 51.8849 76.8987 51.7842 77.0978 51.4615C79.7995 47.0726 77.9217 41.3709 77.1493 39.4443C76.7339 38.4043 76.7579 37.6506 76.9776 37.1179C77.2677 36.4185 77.8633 36.149 77.8633 36.149C78.2118 36 78.3748 35.5961 78.2255 35.2476C78.0762 34.8994 77.6728 34.7373 77.3243 34.8863Z" fill="#56B2AA"/>
<path id="Vector_13" fill-rule="evenodd" clip-rule="evenodd" d="M51.0957 76.876C49.5872 78.6114 47.9578 80.4858 46.1899 82.4254C37.0745 92.424 29.2416 96.8869 23.5063 98.8196C18.2132 100.601 12.3783 98.6978 9.15456 94.137C9.15456 94.137 9.15439 94.137 9.15491 94.1353C5.48453 88.9429 5.86594 81.9087 10.0761 77.1441C22.6251 63.0574 39.3265 44.7982 41.225 42.7755C51.3981 31.9363 57.5572 28.2148 62.6101 27.0452C76.021 23.9409 82.9454 29.3806 86.9053 33.1892C107.306 52.8041 120.653 65.1941 129.153 81.5689C131.095 85.3074 130.37 88.7507 128.645 91.6104C125.652 96.6139 119.927 99.0342 114.462 98.0249L109.819 96.2655C104.226 93.1758 98.6032 88.6254 93.658 84.0183C90.8429 81.0934 88.9136 78.8654 88.9136 78.8654L97.1167 58.6082L83.9049 49.24C83.3487 45.4074 83.129 42.9579 81.9429 40.4182C81.6202 39.7234 81.2237 39.0218 80.7276 38.2834C78.4224 34.8455 76.9702 36.8919 76.9702 36.8919C75.8992 35.5696 74.9053 34.9606 74.2427 34.681C73.8926 34.5418 73.4995 34.5663 73.1699 34.7479C72.8421 34.9296 72.6121 35.2492 72.5434 35.6187C72.3838 36.5274 72.9399 37.552 73.2403 38.0223C73.333 38.1648 73.4394 38.2982 73.5579 38.4204C80.0685 45.1511 76.469 52.7062 76.469 52.7062C73.2523 56.6657 67.5089 56.5718 67.5089 56.5718C63.3087 56.9097 60.667 55.6148 59.1688 54.4341C56.9412 52.6834 53.9948 52.1403 51.2893 52.9819C44.686 55.0863 37.5608 61.3551 37.5608 61.3551L51.0957 76.876Z" fill="url(#paint1_linear_1_21202)"/>
<path id="Vector_14" fill-rule="evenodd" clip-rule="evenodd" d="M57.5879 69.8316L64.3188 62.304C64.3188 62.304 72.4292 66.0068 74.9988 63.1099L78.2584 67.4037C77.9237 66.9901 77.7486 66.7646 77.7486 66.7646C71.0457 73.9516 58.1495 70.0079 57.5879 69.8316Z" fill="#56B2AA"/>
<path id="Vector_15" fill-rule="evenodd" clip-rule="evenodd" d="M39.1089 60.0801C38.1583 60.8351 37.5989 61.3272 37.5989 61.3272L38.7063 62.5972L18.5793 79.282C18.2145 79.5842 17.6731 79.5327 17.3707 79.1688C17.0684 78.8032 17.119 78.2625 17.4838 77.9602L38.8974 60.2091C38.9629 60.1548 39.0344 60.1117 39.1089 60.0801ZM96.1661 57.8791C96.3463 57.8904 96.5266 57.9589 96.6742 58.0868L116.275 75.0718C116.632 75.3822 116.671 75.9246 116.361 76.2825C116.05 76.6405 115.507 76.6793 115.15 76.3692L96.4974 60.2051L97.1548 58.5803L96.1661 57.8791ZM41.0612 58.593C41.1623 56.9402 41.4488 53.7066 42.2263 50.8775C42.3101 50.6166 42.5557 50.442 42.8297 50.4487C43.1036 50.4554 43.3405 50.6417 43.4114 50.9063C43.8333 52.472 44.4118 54.627 44.8014 56.0795C43.4203 56.9235 42.1439 57.8017 41.0612 58.593ZM88.3698 52.3516L89.2898 47.9717C89.3241 47.8077 89.4563 47.6819 89.6211 47.6548C89.7859 47.6277 89.9507 47.7047 90.0348 47.8489C90.5549 48.9978 91.3376 51.2105 91.7169 54.7252L88.3698 52.3516Z" fill="#13524E"/>
</g>
</g>
</g>
<g id="HOLD COIN">
<g id="Group_6">
<path id="Vector_16" d="M66.8872 57.0148C72.9084 57.0148 77.7896 52.2006 77.7896 46.262C77.7896 40.3234 72.9084 35.5093 66.8872 35.5093C60.866 35.5093 55.9849 40.3234 55.9849 46.262C55.9849 52.2006 60.866 57.0148 66.8872 57.0148Z" fill="#FFCD80"/>
</g>
<g id="Group_7">
<path id="Vector_17" d="M66.8385 55.1374C71.884 55.1374 75.9743 51.1032 75.9743 46.1269C75.9743 41.1506 71.884 37.1165 66.8385 37.1165C61.7929 37.1165 57.7026 41.1506 57.7026 46.1269C57.7026 51.1032 61.7929 55.1374 66.8385 55.1374Z" fill="#FFB000"/>
</g>
<g id="Group_8">
<g id="Group_9">
<path id="Vector_18" d="M63.8362 49.8068C64.8477 50.5428 66.0017 50.8697 67.3172 50.8202C68.8832 50.7245 69.6226 50.1347 69.5857 49.0482C69.5282 48.1636 68.9711 47.6559 67.9144 47.525C67.4214 47.4829 66.8947 47.4424 66.3163 47.3879C65.2775 47.2728 64.4606 46.9288 63.8833 46.3719C63.2882 45.7991 62.9708 45.0783 62.9144 44.2105C62.8471 43.1757 63.1299 42.3243 63.7964 41.6544C64.4292 40.9863 65.3691 40.6207 66.5982 40.5421C68.1001 40.4998 69.4248 40.8517 70.5711 41.5809L69.6566 43.1172C68.7255 42.5781 67.7107 42.3111 66.6311 42.3488C66.075 42.3768 65.6119 42.5341 65.2596 42.8365C64.8905 43.1397 64.7164 43.5839 64.7365 44.1521C64.7593 44.5026 64.9136 44.7962 65.2017 45.0664C65.4898 45.3365 65.9398 45.498 66.5372 45.5851C66.8606 45.619 67.32 45.6629 67.8972 45.7007C69.036 45.794 69.8878 46.153 70.4694 46.7767C71.033 47.3846 71.3503 48.1053 71.4057 48.9565C71.5027 51.2288 70.1621 52.4517 67.4175 52.6235C65.6481 52.7127 64.0788 52.2392 62.7276 51.2189L63.8362 49.8068Z" fill="#FFCD80"/>
</g>
<g id="Group_10">
<path id="Vector_19" fill-rule="evenodd" clip-rule="evenodd" d="M66.2579 38.9742L65.9438 53.9159L68.0257 53.916L68.0255 38.9742L66.2579 38.9742Z" fill="#FFCD80"/>
</g>
</g>
</g>
<g id="SMALL COINS PILE">
<path id="Vector_20" fill-rule="evenodd" clip-rule="evenodd" d="M24.2632 177.631C23.2268 177.444 22.4399 176.536 22.4399 175.446V171.004C22.4399 169.779 23.4352 168.783 24.6609 168.783H49.6093C50.8352 168.783 51.8304 169.779 51.8304 171.004V175.446C51.8304 176.536 51.0436 177.444 50.0071 177.631C51.0436 177.82 51.8304 178.728 51.8304 179.818V184.261C51.8304 185.351 51.0436 186.257 50.0071 186.446C51.0436 186.633 51.8304 187.541 51.8304 188.631V193.073C51.8304 194.163 51.0436 195.071 50.0071 195.258C51.0436 195.447 51.8304 196.353 51.8304 197.443V201.885C51.8304 203.111 50.8352 204.107 49.6093 204.107H24.6609C23.4352 204.107 22.4399 203.111 22.4399 201.885V197.443C22.4399 196.353 23.2268 195.447 24.2632 195.258C23.2268 195.071 22.4399 194.163 22.4399 193.073V188.631C22.4399 187.541 23.2268 186.633 24.2632 186.446C23.2268 186.257 22.4399 185.351 22.4399 184.261V179.818C22.4399 178.728 23.2268 177.82 24.2632 177.631Z" fill="#FFCD80"/>
<path id="Vector_21" fill-rule="evenodd" clip-rule="evenodd" d="M45.8975 168.783V175.891H51.6591C51.6869 175.891 51.7144 175.893 51.7413 175.894C51.5685 176.739 50.9167 177.408 50.083 177.607H50.0387V177.618C50.0138 177.623 49.9888 177.628 49.9634 177.631C49.9888 177.637 50.0138 177.642 50.0387 177.647V184.702H51.6591C51.6869 184.702 51.7145 184.703 51.7417 184.705C51.5697 185.548 50.9208 186.217 50.0899 186.418H48.2543V193.514H51.6591C51.6871 193.514 51.7147 193.514 51.742 193.518C51.571 194.357 50.925 195.026 50.0967 195.231H45.5441V204.107H43.8276V195.231H42.2033V204.107H40.4868V195.231H29.0869V204.107H27.3704V195.231H24.0861C23.2566 195.026 22.6097 194.355 22.4399 193.514H33.2255V186.418H24.0929C23.2606 186.217 22.6109 185.546 22.4403 184.702H24.9129V177.607H24.0998C23.2649 177.408 22.6124 176.735 22.4406 175.891H29.6495V168.783H31.366V175.891H40.6952V168.783H42.4117V175.891H44.181V168.783H45.8975ZM34.942 186.418V193.514H36.2395V186.418H34.942ZM37.956 186.418V193.514H46.5378V186.418H37.956ZM26.6294 177.607V184.702H39.4267V177.607H26.6294ZM41.1432 177.607V184.702H48.3222V177.607H41.1432Z" fill="#FDA425"/>
</g>
</g>
<defs>
<linearGradient id="paint0_linear_1_21202" x1="57" y1="76.0001" x2="99.3952" y2="195.317" gradientUnits="userSpaceOnUse">
<stop stop-color="#49A79F"/>
<stop offset="1" stop-color="#60C9C0"/>
</linearGradient>
<linearGradient id="paint1_linear_1_21202" x1="93" y1="89" x2="68" y2="26" gradientUnits="userSpaceOnUse">
<stop stop-color="#49A79F"/>
<stop offset="1" stop-color="#60C9C0"/>
</linearGradient>
</defs>
</svg>
