<svg width="97" height="144" viewBox="0 0 97 144" fill="none" xmlns="http://www.w3.org/2000/svg">
<g filter="url(#filter0_d_25_362)">
<rect x="90.4546" y="4" width="133.313" height="86.3895" rx="8.26625" transform="rotate(90 90.4546 4)" fill="#212121"/>
<mask id="mask0_25_362" style="mask-type:alpha" maskUnits="userSpaceOnUse" x="4" y="4" width="87" height="134">
<path d="M82.1963 4.08173C86.7573 4.08173 90.4546 7.77908 90.4546 12.34L90.4546 129.055C90.4546 133.616 86.7572 137.313 82.1963 137.313L12.2584 137.313C7.69745 137.313 4.00011 133.616 4.00011 129.055L4.00012 12.34C4.00012 7.77906 7.69747 4.08172 12.2584 4.08172L82.1963 4.08173Z" fill="white" fill-opacity="0.3"/>
</mask>
<g mask="url(#mask0_25_362)">
<path d="M70.6048 115.52L69.2247 119.636C69.2247 119.636 68.8742 117.895 68.8395 117.676C68.0539 115.884 66.8945 115.984 66.8945 115.984L68.2609 121.301V121.3H69.9221L72.2192 115.52H70.6048Z" fill="white"/>
<path d="M71.9202 121.301H73.429L74.3413 115.52H72.8136L71.9202 121.301Z" fill="white"/>
<path d="M82.5988 115.52H81.0111L78.5359 121.301H80.0347L80.3437 120.475H82.2335L82.3943 121.301H83.7675L82.5988 115.52ZM80.762 119.371L81.5834 117.186L82.0133 119.371H80.762Z" fill="white"/>
<path d="M76.4818 117.205C76.4818 116.886 76.7435 116.649 77.494 116.649C77.9817 116.649 78.5403 117.004 78.5403 117.004L78.7852 115.79C78.7852 115.79 78.0715 115.519 77.371 115.519C75.7844 115.519 74.9662 116.278 74.9662 117.239C74.9662 118.976 77.0573 118.738 77.0573 119.631C77.0573 119.784 76.9359 120.137 76.0651 120.137C75.1916 120.137 74.6151 119.817 74.6151 119.817L74.355 120.982C74.355 120.982 74.9136 121.3 75.9931 121.3C77.0751 121.3 78.576 120.491 78.576 119.329C78.576 117.93 76.4818 117.829 76.4818 117.205Z" fill="white"/>
<path d="M69.0422 118.645L68.5345 116.149C68.5345 116.149 68.3049 115.609 67.7079 115.609C67.1109 115.609 65.3745 115.609 65.3745 115.609C65.3745 115.609 68.3495 116.487 69.0422 118.645Z" fill="#FFC107"/>
<path d="M18.3675 174.39C-5.7874 174.39 -25.3688 154.809 -25.3688 130.654C-25.3688 106.499 -5.78739 86.9179 18.3675 86.9179C42.5224 86.9179 62.1038 106.499 62.1038 130.654C62.1038 154.809 42.5224 174.39 18.3675 174.39Z" stroke="url(#paint0_linear_25_362)" stroke-opacity="0.5" stroke-width="0.5"/>
<circle cx="68.174" cy="-3.02692" r="34.0078" transform="rotate(90 68.174 -3.02692)" stroke="url(#paint1_linear_25_362)" stroke-opacity="0.5" stroke-width="0.156566"/>
<path d="M18.3675 192.515C-5.78621 192.515 -25.3688 172.836 -25.3688 148.558C-25.3688 124.28 -5.78621 104.601 18.3675 104.601C42.5212 104.601 62.1038 124.28 62.1038 148.558C62.1038 172.836 42.5212 192.515 18.3675 192.515Z" stroke="url(#paint2_linear_25_362)" stroke-opacity="0.5" stroke-width="0.5"/>
<circle cx="68.174" cy="10.93" r="34.0078" transform="rotate(90 68.174 10.93)" stroke="url(#paint3_linear_25_362)" stroke-opacity="0.5" stroke-width="0.156566"/>
<path d="M0.463337 174.39C-23.8148 174.39 -43.494 154.808 -43.494 130.654C-43.494 106.5 -23.8148 86.9179 0.463341 86.9179C24.7415 86.9179 44.4207 106.5 44.4207 130.654C44.4207 154.808 24.7415 174.39 0.463337 174.39Z" stroke="url(#paint4_linear_25_362)" stroke-opacity="0.5" stroke-width="0.5"/>
<circle cx="54.443" cy="-3.02693" r="34.0078" transform="rotate(90 54.443 -3.02693)" stroke="url(#paint5_linear_25_362)" stroke-opacity="0.5" stroke-width="0.156566"/>
<path d="M17.9354 51.9755L15.1754 56.5855V57.6055H18.6554V58.9755H19.8154V57.6055H20.9754V56.5455H19.8154V51.9755H17.9354ZM18.5354 52.9355H18.6554V56.5455H16.4254L18.5354 52.9355ZM21.4208 54.2655V54.5255H22.5808V54.3055C22.5808 53.3555 23.1708 52.8855 24.0308 52.8855C24.7808 52.8855 25.3208 53.3255 25.3208 54.0855C25.3208 54.9855 24.6608 55.3355 23.5808 55.6655C22.3008 56.0455 21.4408 56.6355 21.4408 57.9255V58.9755H26.4108V57.9155H22.6108V57.8055C22.6108 57.0755 23.1208 56.8555 24.1008 56.5655C25.5108 56.1555 26.4808 55.5655 26.4808 54.1255C26.4808 52.7255 25.3908 51.8355 24.0208 51.8355C22.5508 51.8355 21.4208 52.7155 21.4208 54.2655ZM27.1927 54.6755V56.2755C27.1927 58.0955 28.2327 59.1155 29.8427 59.1155C31.4527 59.1155 32.4927 58.0955 32.4927 56.2755V54.6755C32.4927 52.8855 31.4327 51.8355 29.8427 51.8355C28.2327 51.8355 27.1927 52.8855 27.1927 54.6755ZM28.3527 54.6355C28.3527 53.5455 28.8727 52.8855 29.8427 52.8855C30.8027 52.8855 31.3327 53.5255 31.3327 54.6355V56.3155C31.3327 57.4055 30.8527 58.0655 29.8427 58.0655C28.8527 58.0655 28.3527 57.4255 28.3527 56.3155V54.6355ZM33.2767 54.6755V56.2755C33.2767 58.0955 34.3167 59.1155 35.9267 59.1155C37.5367 59.1155 38.5767 58.0955 38.5767 56.2755V54.6755C38.5767 52.8855 37.5167 51.8355 35.9267 51.8355C34.3167 51.8355 33.2767 52.8855 33.2767 54.6755ZM34.4367 54.6355C34.4367 53.5455 34.9567 52.8855 35.9267 52.8855C36.8867 52.8855 37.4167 53.5255 37.4167 54.6355V56.3155C37.4167 57.4055 36.9367 58.0655 35.9267 58.0655C34.9367 58.0655 34.4367 57.4255 34.4367 56.3155V54.6355ZM39.4507 58.2455C39.4507 58.7455 39.8307 59.1155 40.3207 59.1155C40.8007 59.1155 41.1807 58.7455 41.1807 58.2455C41.1807 57.7455 40.8007 57.3855 40.3207 57.3855C39.8307 57.3855 39.4507 57.7455 39.4507 58.2455ZM42.0463 54.6755V56.2755C42.0463 58.0955 43.0863 59.1155 44.6963 59.1155C46.3063 59.1155 47.3463 58.0955 47.3463 56.2755V54.6755C47.3463 52.8855 46.2863 51.8355 44.6963 51.8355C43.0863 51.8355 42.0463 52.8855 42.0463 54.6755ZM43.2063 54.6355C43.2063 53.5455 43.7263 52.8855 44.6963 52.8855C45.6563 52.8855 46.1863 53.5255 46.1863 54.6355V56.3155C46.1863 57.4055 45.7063 58.0655 44.6963 58.0655C43.7063 58.0655 43.2063 57.4255 43.2063 56.3155V54.6355ZM48.1302 54.6755V56.2755C48.1302 58.0955 49.1702 59.1155 50.7802 59.1155C52.3902 59.1155 53.4302 58.0955 53.4302 56.2755V54.6755C53.4302 52.8855 52.3702 51.8355 50.7802 51.8355C49.1702 51.8355 48.1302 52.8855 48.1302 54.6755ZM49.2902 54.6355C49.2902 53.5455 49.8102 52.8855 50.7802 52.8855C51.7402 52.8855 52.2702 53.5255 52.2702 54.6355V56.3155C52.2702 57.4055 51.7902 58.0655 50.7802 58.0655C49.7902 58.0655 49.2902 57.4255 49.2902 56.3155V54.6355ZM57.2958 51.9755V56.5555C57.2958 58.1655 58.2758 59.1155 59.9758 59.1155C61.6858 59.1155 62.6558 58.1655 62.6558 56.5555V51.9755H61.4958V56.5855C61.4958 57.5255 60.9758 58.0655 59.9758 58.0655C58.9858 58.0655 58.4558 57.5255 58.4558 56.5855V51.9755H57.2958ZM66.2573 51.8355C64.9273 51.8355 63.8673 52.5955 63.8673 53.8155C63.8673 55.1055 64.7573 55.5855 66.1073 55.8855L66.3773 55.9455C67.2873 56.1355 67.7673 56.3755 67.7673 57.0155C67.7673 57.6055 67.2873 58.0855 66.3973 58.0855C65.2973 58.0855 64.7273 57.4855 64.7273 56.5055V56.2955H63.5773V56.5655C63.5773 58.1555 64.6673 59.1155 66.3773 59.1155C67.8373 59.1155 68.9173 58.3155 68.9173 56.9655C68.9173 55.7255 68.0973 55.1955 66.7273 54.8955L66.4573 54.8355C65.5373 54.6255 65.0173 54.4455 65.0173 53.7955C65.0173 53.2455 65.5173 52.8655 66.2573 52.8655C67.1173 52.8655 67.6873 53.2755 67.6873 54.1255V54.3555H68.8273V54.0455C68.8273 52.6255 67.7273 51.8355 66.2573 51.8355ZM69.9625 51.9755V58.9755H72.2425C74.0725 58.9755 75.1025 58.0555 75.1025 56.1955V54.7555C75.1025 52.8855 74.0725 51.9755 72.2425 51.9755H69.9625ZM71.1225 53.0355H72.2425C73.4225 53.0355 73.9425 53.5955 73.9425 54.7455V56.2055C73.9425 57.3555 73.4225 57.9155 72.2425 57.9155H71.1225V53.0355Z" fill="white"/>
<circle cx="17.6457" cy="119.483" r="5.66666" fill="white" fill-opacity="0.5"/>
<circle cx="23.3141" cy="119.483" r="5.66666" fill="white" fill-opacity="0.5"/>
</g>
</g>
<defs>
<filter id="filter0_d_25_362" x="0.281129" y="0.281129" width="96.5463" height="143.405" filterUnits="userSpaceOnUse" color-interpolation-filters="sRGB">
<feFlood flood-opacity="0" result="BackgroundImageFix"/>
<feColorMatrix in="SourceAlpha" type="matrix" values="0 0 0 0 0 0 0 0 0 0 0 0 0 0 0 0 0 0 127 0" result="hardAlpha"/>
<feOffset dx="1.32698" dy="1.32698"/>
<feGaussianBlur stdDeviation="2.52293"/>
<feColorMatrix type="matrix" values="0 0 0 0 0.330816 0 0 0 0 0.358354 0 0 0 0 0.429167 0 0 0 0.05 0"/>
<feBlend mode="normal" in2="BackgroundImageFix" result="effect1_dropShadow_25_362"/>
<feBlend mode="normal" in="SourceGraphic" in2="effect1_dropShadow_25_362" result="shape"/>
</filter>
<linearGradient id="paint0_linear_25_362" x1="62.3538" y1="130.654" x2="-25.6188" y2="130.654" gradientUnits="userSpaceOnUse">
<stop stop-color="white"/>
<stop offset="0.671875" stop-color="white" stop-opacity="0"/>
</linearGradient>
<linearGradient id="paint1_linear_25_362" x1="68.174" y1="-37.113" x2="68.174" y2="31.0591" gradientUnits="userSpaceOnUse">
<stop stop-color="white"/>
<stop offset="0.671875" stop-color="white" stop-opacity="0"/>
</linearGradient>
<linearGradient id="paint2_linear_25_362" x1="62.3538" y1="148.558" x2="-25.6188" y2="148.558" gradientUnits="userSpaceOnUse">
<stop stop-color="white"/>
<stop offset="0.671875" stop-color="white" stop-opacity="0"/>
</linearGradient>
<linearGradient id="paint3_linear_25_362" x1="68.174" y1="-23.1561" x2="68.174" y2="45.016" gradientUnits="userSpaceOnUse">
<stop stop-color="white"/>
<stop offset="0.671875" stop-color="white" stop-opacity="0"/>
</linearGradient>
<linearGradient id="paint4_linear_25_362" x1="44.6707" y1="130.654" x2="-43.744" y2="130.654" gradientUnits="userSpaceOnUse">
<stop stop-color="white"/>
<stop offset="0.671875" stop-color="white" stop-opacity="0"/>
</linearGradient>
<linearGradient id="paint5_linear_25_362" x1="54.443" y1="-37.113" x2="54.443" y2="31.0591" gradientUnits="userSpaceOnUse">
<stop stop-color="white"/>
<stop offset="0.671875" stop-color="white" stop-opacity="0"/>
</linearGradient>
</defs>
</svg>
