<svg width="37" height="23" viewBox="0 0 37 23" fill="none" xmlns="http://www.w3.org/2000/svg">
<g id="Ask Mastercard Logo" clip-path="url(#clip0_1_26982)">
<g id="Components   Sprint 3">
<g id="assets / logo / mastercard / symbol">
<path id="Fill 1" fill-rule="evenodd" clip-rule="evenodd" d="M13.4973 20.38H23.3426V2.60858H13.4973V20.38Z" fill="#FF5F00"/>
<path id="Fill 2" fill-rule="evenodd" clip-rule="evenodd" d="M14.1222 11.4944C14.1222 7.889 15.8028 4.67792 18.4197 2.60867C16.5057 1.09512 14.0909 0.1922 11.4661 0.1922C5.25236 0.1922 0.215332 5.25245 0.215332 11.4944C0.215332 17.7364 5.25236 22.7966 11.4661 22.7966C14.0909 22.7966 16.5057 21.8937 18.4197 20.3801C15.8028 18.3106 14.1222 15.0998 14.1222 11.4944Z" fill="#EB001B"/>
<path id="Fill 4" fill-rule="evenodd" clip-rule="evenodd" d="M36.2725 18.4979V18.0593H36.1584L36.0275 18.3611L35.8962 18.0593H35.7821V18.4979H35.8625V18.167L35.9856 18.4524H36.0691L36.1922 18.1664V18.4979H36.2725ZM35.5502 18.4979V18.1341H35.6965V18.06H35.3246V18.1341H35.4705V18.4979H35.5502ZM36.6238 11.4943C36.6238 17.7363 31.5865 22.7965 25.373 22.7965C22.7482 22.7965 20.3332 21.8936 18.4194 20.3801C21.0364 18.3108 22.717 15.0997 22.717 11.4943C22.717 7.88925 21.0364 4.67817 18.4194 2.60861C20.3332 1.09506 22.7482 0.192139 25.373 0.192139C31.5865 0.192139 36.6238 5.25239 36.6238 11.4943Z" fill="#F79E1B"/>
</g>
</g>
</g>
<defs>
<clipPath id="clip0_1_26982">
<rect width="36.7852" height="22.637" fill="white" transform="translate(0.215088 0.1922)"/>
</clipPath>
</defs>
</svg>
