<svg width="97" height="144" viewBox="0 0 97 144" fill="none" xmlns="http://www.w3.org/2000/svg">
<g filter="url(#filter0_d_25_384)">
<rect x="90.4541" y="4" width="133.313" height="86.3895" rx="8.26625" transform="rotate(90 90.4541 4)" fill="#E5BE90"/>
<mask id="mask0_25_384" style="mask-type:alpha" maskUnits="userSpaceOnUse" x="4" y="4" width="87" height="134">
<path d="M82.1963 4.08173C86.7573 4.08173 90.4546 7.77908 90.4546 12.34L90.4546 129.055C90.4546 133.616 86.7572 137.313 82.1963 137.313L12.2584 137.313C7.69745 137.313 4.00011 133.616 4.00011 129.055L4.00012 12.34C4.00012 7.77906 7.69747 4.08172 12.2584 4.08172L82.1963 4.08173Z" fill="white" fill-opacity="0.3"/>
</mask>
<g mask="url(#mask0_25_384)">
<path d="M70.6048 116.52L69.2247 120.636C69.2247 120.636 68.8742 118.895 68.8395 118.676C68.0539 116.884 66.8945 116.984 66.8945 116.984L68.2609 122.301V122.3H69.9221L72.2192 116.52H70.6048Z" fill="white"/>
<path d="M71.9202 122.301H73.429L74.3413 116.52H72.8136L71.9202 122.301Z" fill="white"/>
<path d="M82.5985 116.52H81.0109L78.5356 122.301H80.0345L80.3435 121.475H82.2333L82.3941 122.301H83.7673L82.5985 116.52ZM80.7618 120.371L81.5832 118.186L82.0131 120.371H80.7618Z" fill="white"/>
<path d="M76.4818 118.205C76.4818 117.886 76.7435 117.649 77.494 117.649C77.9817 117.649 78.5403 118.004 78.5403 118.004L78.7852 116.79C78.7852 116.79 78.0715 116.52 77.371 116.52C75.7844 116.52 74.9662 117.278 74.9662 118.239C74.9662 119.976 77.0573 119.738 77.0573 120.631C77.0573 120.784 76.9359 121.137 76.0651 121.137C75.1916 121.137 74.6151 120.817 74.6151 120.817L74.355 121.982C74.355 121.982 74.9136 122.3 75.9931 122.3C77.0751 122.3 78.576 121.491 78.576 120.329C78.576 118.93 76.4818 118.829 76.4818 118.205Z" fill="white"/>
<path d="M69.0422 119.645L68.5345 117.149C68.5345 117.149 68.3049 116.609 67.7079 116.609C67.1109 116.609 65.3745 116.609 65.3745 116.609C65.3745 116.609 68.3495 117.487 69.0422 119.645Z" fill="#FFC107"/>
<path d="M18.3675 174.39C-5.7874 174.39 -25.3688 154.809 -25.3688 130.654C-25.3688 106.499 -5.78739 86.9179 18.3675 86.9179C42.5224 86.9179 62.1038 106.499 62.1038 130.654C62.1038 154.809 42.5224 174.39 18.3675 174.39Z" stroke="url(#paint0_linear_25_384)" stroke-opacity="0.5" stroke-width="0.5"/>
<circle cx="68.174" cy="-3.02692" r="33.8361" transform="rotate(90 68.174 -3.02692)" stroke="url(#paint1_linear_25_384)" stroke-opacity="0.5" stroke-width="0.5"/>
<path d="M18.3675 192.515C-5.78621 192.515 -25.3688 172.836 -25.3688 148.558C-25.3688 124.28 -5.78621 104.601 18.3675 104.601C42.5212 104.601 62.1038 124.28 62.1038 148.558C62.1038 172.836 42.5212 192.515 18.3675 192.515Z" stroke="url(#paint2_linear_25_384)" stroke-opacity="0.5" stroke-width="0.5"/>
<circle cx="68.174" cy="10.93" r="33.8361" transform="rotate(90 68.174 10.93)" stroke="url(#paint3_linear_25_384)" stroke-opacity="0.5" stroke-width="0.5"/>
<path d="M0.463337 174.39C-23.8148 174.39 -43.494 154.808 -43.494 130.654C-43.494 106.5 -23.8148 86.9179 0.463341 86.9179C24.7415 86.9179 44.4207 106.5 44.4207 130.654C44.4207 154.808 24.7415 174.39 0.463337 174.39Z" stroke="url(#paint4_linear_25_384)" stroke-opacity="0.5" stroke-width="0.5"/>
<circle cx="54.443" cy="-3.02693" r="33.8361" transform="rotate(90 54.443 -3.02693)" stroke="url(#paint5_linear_25_384)" stroke-opacity="0.5" stroke-width="0.5"/>
<path d="M17.9098 51L15.1498 55.61V56.63H18.6298V58H19.7898V56.63H20.9498V55.57H19.7898V51H17.9098ZM18.5098 51.96H18.6298V55.57H16.3998L18.5098 51.96ZM21.3951 53.29V53.55H22.5551V53.33C22.5551 52.38 23.1451 51.91 24.0051 51.91C24.7551 51.91 25.2951 52.35 25.2951 53.11C25.2951 54.01 24.6351 54.36 23.5551 54.69C22.2751 55.07 21.4151 55.66 21.4151 56.95V58H26.3851V56.94H22.5851V56.83C22.5851 56.1 23.0951 55.88 24.0751 55.59C25.4851 55.18 26.4551 54.59 26.4551 53.15C26.4551 51.75 25.3651 50.86 23.9951 50.86C22.5251 50.86 21.3951 51.74 21.3951 53.29ZM27.1671 53.7V55.3C27.1671 57.12 28.2071 58.14 29.8171 58.14C31.4271 58.14 32.4671 57.12 32.4671 55.3V53.7C32.4671 51.91 31.4071 50.86 29.8171 50.86C28.2071 50.86 27.1671 51.91 27.1671 53.7ZM28.3271 53.66C28.3271 52.57 28.8471 51.91 29.8171 51.91C30.7771 51.91 31.3071 52.55 31.3071 53.66V55.34C31.3071 56.43 30.8271 57.09 29.8171 57.09C28.8271 57.09 28.3271 56.45 28.3271 55.34V53.66ZM33.2511 53.7V55.3C33.2511 57.12 34.2911 58.14 35.9011 58.14C37.5111 58.14 38.5511 57.12 38.5511 55.3V53.7C38.5511 51.91 37.4911 50.86 35.9011 50.86C34.2911 50.86 33.2511 51.91 33.2511 53.7ZM34.4111 53.66C34.4111 52.57 34.9311 51.91 35.9011 51.91C36.8611 51.91 37.3911 52.55 37.3911 53.66V55.34C37.3911 56.43 36.9111 57.09 35.9011 57.09C34.9111 57.09 34.4111 56.45 34.4111 55.34V53.66ZM39.4251 57.27C39.4251 57.77 39.8051 58.14 40.2951 58.14C40.7751 58.14 41.1551 57.77 41.1551 57.27C41.1551 56.77 40.7751 56.41 40.2951 56.41C39.8051 56.41 39.4251 56.77 39.4251 57.27ZM42.0206 53.7V55.3C42.0206 57.12 43.0606 58.14 44.6706 58.14C46.2806 58.14 47.3206 57.12 47.3206 55.3V53.7C47.3206 51.91 46.2606 50.86 44.6706 50.86C43.0606 50.86 42.0206 51.91 42.0206 53.7ZM43.1806 53.66C43.1806 52.57 43.7006 51.91 44.6706 51.91C45.6306 51.91 46.1606 52.55 46.1606 53.66V55.34C46.1606 56.43 45.6806 57.09 44.6706 57.09C43.6806 57.09 43.1806 56.45 43.1806 55.34V53.66ZM48.1046 53.7V55.3C48.1046 57.12 49.1446 58.14 50.7546 58.14C52.3646 58.14 53.4046 57.12 53.4046 55.3V53.7C53.4046 51.91 52.3446 50.86 50.7546 50.86C49.1446 50.86 48.1046 51.91 48.1046 53.7ZM49.2646 53.66C49.2646 52.57 49.7846 51.91 50.7546 51.91C51.7146 51.91 52.2446 52.55 52.2446 53.66V55.34C52.2446 56.43 51.7646 57.09 50.7546 57.09C49.7646 57.09 49.2646 56.45 49.2646 55.34V53.66ZM57.2701 51V55.58C57.2701 57.19 58.2501 58.14 59.9501 58.14C61.6601 58.14 62.6301 57.19 62.6301 55.58V51H61.4701V55.61C61.4701 56.55 60.9501 57.09 59.9501 57.09C58.9601 57.09 58.4301 56.55 58.4301 55.61V51H57.2701ZM66.2317 50.86C64.9017 50.86 63.8417 51.62 63.8417 52.84C63.8417 54.13 64.7317 54.61 66.0817 54.91L66.3517 54.97C67.2617 55.16 67.7417 55.4 67.7417 56.04C67.7417 56.63 67.2617 57.11 66.3717 57.11C65.2717 57.11 64.7017 56.51 64.7017 55.53V55.32H63.5517V55.59C63.5517 57.18 64.6417 58.14 66.3517 58.14C67.8117 58.14 68.8917 57.34 68.8917 55.99C68.8917 54.75 68.0717 54.22 66.7017 53.92L66.4317 53.86C65.5117 53.65 64.9917 53.47 64.9917 52.82C64.9917 52.27 65.4917 51.89 66.2317 51.89C67.0917 51.89 67.6617 52.3 67.6617 53.15V53.38H68.8017V53.07C68.8017 51.65 67.7017 50.86 66.2317 50.86ZM69.9369 51V58H72.2169C74.0469 58 75.0769 57.08 75.0769 55.22V53.78C75.0769 51.91 74.0469 51 72.2169 51H69.9369ZM71.0969 52.06H72.2169C73.3969 52.06 73.9169 52.62 73.9169 53.77V55.23C73.9169 56.38 73.3969 56.94 72.2169 56.94H71.0969V52.06Z" fill="white"/>
<circle cx="17.6457" cy="120.483" r="5.66666" fill="white" fill-opacity="0.5"/>
<circle cx="23.3141" cy="120.483" r="5.66666" fill="white" fill-opacity="0.5"/>
</g>
</g>
<defs>
<filter id="filter0_d_25_384" x="0.281129" y="0.281129" width="96.5463" height="143.405" filterUnits="userSpaceOnUse" color-interpolation-filters="sRGB">
<feFlood flood-opacity="0" result="BackgroundImageFix"/>
<feColorMatrix in="SourceAlpha" type="matrix" values="0 0 0 0 0 0 0 0 0 0 0 0 0 0 0 0 0 0 127 0" result="hardAlpha"/>
<feOffset dx="1.32698" dy="1.32698"/>
<feGaussianBlur stdDeviation="2.52293"/>
<feColorMatrix type="matrix" values="0 0 0 0 0.330816 0 0 0 0 0.358354 0 0 0 0 0.429167 0 0 0 0.05 0"/>
<feBlend mode="normal" in2="BackgroundImageFix" result="effect1_dropShadow_25_384"/>
<feBlend mode="normal" in="SourceGraphic" in2="effect1_dropShadow_25_384" result="shape"/>
</filter>
<linearGradient id="paint0_linear_25_384" x1="62.3538" y1="130.654" x2="-25.6188" y2="130.654" gradientUnits="userSpaceOnUse">
<stop stop-color="white"/>
<stop offset="0.671875" stop-color="white" stop-opacity="0"/>
</linearGradient>
<linearGradient id="paint1_linear_25_384" x1="68.174" y1="-37.113" x2="68.174" y2="31.0591" gradientUnits="userSpaceOnUse">
<stop stop-color="white"/>
<stop offset="0.671875" stop-color="white" stop-opacity="0"/>
</linearGradient>
<linearGradient id="paint2_linear_25_384" x1="62.3538" y1="148.558" x2="-25.6188" y2="148.558" gradientUnits="userSpaceOnUse">
<stop stop-color="white"/>
<stop offset="0.671875" stop-color="white" stop-opacity="0"/>
</linearGradient>
<linearGradient id="paint3_linear_25_384" x1="68.174" y1="-23.1561" x2="68.174" y2="45.016" gradientUnits="userSpaceOnUse">
<stop stop-color="white"/>
<stop offset="0.671875" stop-color="white" stop-opacity="0"/>
</linearGradient>
<linearGradient id="paint4_linear_25_384" x1="44.6707" y1="130.654" x2="-43.744" y2="130.654" gradientUnits="userSpaceOnUse">
<stop stop-color="white"/>
<stop offset="0.671875" stop-color="white" stop-opacity="0"/>
</linearGradient>
<linearGradient id="paint5_linear_25_384" x1="54.443" y1="-37.113" x2="54.443" y2="31.0591" gradientUnits="userSpaceOnUse">
<stop stop-color="white"/>
<stop offset="0.671875" stop-color="white" stop-opacity="0"/>
</linearGradient>
</defs>
</svg>
