<svg width="24" height="24" viewBox="0 0 24 24" fill="none" xmlns="http://www.w3.org/2000/svg">
<path d="M18 8C18 6.4087 17.3679 4.88258 16.2426 3.75736C15.1174 2.63214 13.5913 2 12 2C10.4087 2 8.88258 2.63214 7.75736 3.75736C6.63214 4.88258 6 6.4087 6 8C6 15 3 17 3 17H21C21 17 18 15 18 8Z" stroke="white" stroke-width="2" stroke-linecap="round" stroke-linejoin="round"/>
<path d="M13.73 21C13.5542 21.3031 13.3019 21.5547 12.9982 21.7295C12.6946 21.9044 12.3504 21.9965 12 21.9965C11.6496 21.9965 11.3054 21.9044 11.0018 21.7295C10.6982 21.5547 10.4458 21.3031 10.27 21" stroke="white" stroke-width="2" stroke-linecap="round" stroke-linejoin="round"/>
<g clip-path="url(#clip0_21_309)">
<path d="M16.5001 9.09091C18.5335 9.09091 20.1819 7.25934 20.1819 5C20.1819 2.74065 18.5335 0.909088 16.5001 0.909088C14.4666 0.909088 12.8182 2.74065 12.8182 5C12.8182 7.25934 14.4666 9.09091 16.5001 9.09091Z" fill="#C33C29" stroke="#F7F7F8" stroke-width="2"/>
</g>
<defs>
<clipPath id="clip0_21_309">
<rect width="9" height="10" fill="white" transform="translate(12)"/>
</clipPath>
</defs>
</svg>
