<svg width="38" height="39" viewBox="0 0 38 39" fill="none" xmlns="http://www.w3.org/2000/svg">
<g id="heart 1">
<g id="Group">
<g id="Group_2">
<path id="Vector" d="M37.3498 19.2217H34.135C35.4715 16.1875 35.327 13.7312 34.8213 12.0696C33.9544 9.10765 31.0285 5.89282 26.6939 5.89282C25.538 5.89282 24.3821 6.10955 23.1901 6.54301C21.1312 7.30157 19.7586 8.13237 19.1445 8.56583C18.5304 8.13237 17.1939 7.30157 15.0989 6.54301C13.9068 6.10955 12.7148 5.89282 11.5951 5.89282C7.26046 5.89282 4.3346 9.10765 3.46768 12.0696C2.96198 13.8396 2.78137 16.5126 4.47909 19.8719H0.577947C0.252852 19.8719 0 20.1248 0 20.4499C0 20.775 0.252852 21.0278 0.577947 21.0278H5.1654C5.34601 21.3529 5.56274 21.678 5.81559 22.0031C9.57224 27.4213 17.7357 33.3092 19.2167 33.6704V33.7065C19.2167 33.7065 19.2529 33.7065 19.289 33.6704C19.3251 33.6704 19.3612 33.6704 19.3973 33.6704V33.6343C20.6616 33.0202 28.5 27.9632 32.6179 21.967C33.0152 21.4251 33.3403 20.8833 33.6293 20.3415H37.4221C37.7472 20.3415 38 20.0886 38 19.7635C38 19.4384 37.6749 19.2217 37.3498 19.2217ZM31.5703 21.3529C27.7414 26.9518 20.6977 31.467 19.1806 32.4422C17.6274 31.467 10.6198 26.9156 6.75475 21.3529C6.68251 21.2445 6.61027 21.1362 6.53802 21.0278H11.8479C12.0646 21.0278 12.2814 20.9194 12.3897 20.7027L14.8099 15.9346L18.6027 25.6514C18.6749 25.8681 18.9278 26.0126 19.1445 26.0126C19.1445 26.0126 19.1445 26.0126 19.1806 26.0126C19.4335 26.0126 19.6502 25.832 19.7224 25.5791L23.0456 14.2008L24.8156 19.9442C24.8878 20.1609 25.0684 20.3054 25.2852 20.3415C25.5019 20.3776 25.7186 20.2692 25.8631 20.0886L27.2719 18.0297L28.4639 20.0525C28.5722 20.2331 28.7529 20.3415 28.9696 20.3415H32.2205C32.0038 20.7027 31.7871 21.0278 31.5703 21.3529ZM32.8707 19.2217H29.3308L27.8498 16.6932C27.7414 16.5126 27.5608 16.4042 27.3441 16.4042C27.1274 16.4042 26.9468 16.4765 26.8384 16.6571L25.6103 18.4632L23.6236 11.9974C23.5513 11.7445 23.2985 11.6 23.0456 11.5639C22.7928 11.5639 22.5399 11.7445 22.4677 11.9974L19.1084 23.5924L15.4601 14.273C15.3878 14.0563 15.1711 13.9118 14.9544 13.9118C14.7015 13.9118 14.5209 14.0202 14.4125 14.2369L11.5589 19.8358H5.81559C4.37072 17.1989 3.97338 14.6704 4.62357 12.3947C5.38213 9.83008 7.87453 7.08484 11.6312 7.08484C12.6426 7.08484 13.6901 7.30157 14.7376 7.66278C17.3745 8.63807 18.7833 9.75784 18.8194 9.75784C19.0361 9.93845 19.3251 9.93845 19.5418 9.75784C19.5418 9.75784 20.9506 8.63807 23.6236 7.66278C24.6711 7.26545 25.7186 7.08484 26.73 7.08484C30.4506 7.08484 32.9791 9.83008 33.7376 12.3947C34.3517 14.4898 34.0266 16.8016 32.8707 19.2217Z" fill="#56B2AA"/>
</g>
</g>
</g>
</svg>
