<svg width="23" height="23" viewBox="0 0 23 23" fill="none" xmlns="http://www.w3.org/2000/svg">
<g id="arrow_inside [#257]">
<path id="arrow_inside [#257]_2" fill-rule="evenodd" clip-rule="evenodd" d="M18.2386 18.1006C18.4997 17.8111 18.4901 17.3639 18.2172 17.0861L11.5616 10.3184H11.5631L4.9413 3.89249C4.65294 3.61253 4.1932 3.61842 3.90926 3.90281L3.90264 3.91091C3.61503 4.19897 3.61576 4.66607 3.90264 4.9534L10.523 11.5804L10.5215 11.5826L17.1182 18.1876C17.4162 18.4859 17.9017 18.4734 18.1841 18.161L18.2386 18.1006ZM15.9098 8.10793C15.5825 8.10793 15.4185 7.71524 15.6502 7.48317L18.185 4.94509C18.4726 4.65776 18.4726 4.19213 18.1858 3.9048C17.8981 3.61747 17.4325 3.61747 17.1449 3.90554L14.6108 6.44362C14.3791 6.6757 13.9826 6.5114 13.9826 6.18282V4.43157C13.9826 4.02489 13.6611 3.68746 13.2551 3.68746H13.2588C12.8527 3.68746 12.5114 4.02489 12.5114 4.43157V8.11456V8.11677C12.5114 8.93013 13.1705 9.58142 13.9819 9.58142H17.6613C18.0673 9.58142 18.3961 9.25798 18.3961 8.85056V8.84983C18.3961 8.44315 18.0673 8.10793 17.6613 8.10793H15.9098ZM4.42157 14.0018C4.01552 14.0018 3.68524 13.674 3.68524 13.2673V13.2687C3.68524 12.8621 4.01552 12.5283 4.42157 12.5283H8.10099C8.91234 12.5283 9.56996 13.1936 9.56996 14.007V14.0084V17.6929C9.56996 18.1003 9.25218 18.4223 8.84614 18.4223H8.84246C8.43642 18.4223 8.09878 18.1003 8.09878 17.6929V15.9394C8.09878 15.6116 7.70303 15.4466 7.47132 15.6786L4.94089 18.213C4.65401 18.5004 4.18839 18.5004 3.90077 18.213V18.2123C3.61315 17.925 3.61315 17.4571 3.90077 17.1691L6.42973 14.6347C6.66144 14.4026 6.4974 14.0018 6.17006 14.0018H4.42157Z" fill="#5A5B78"/>
</g>
</svg>
