<svg width="33" height="33" viewBox="0 0 33 33" fill="none" xmlns="http://www.w3.org/2000/svg">
<g id="delivery-truck 1" clip-path="url(#clip0_1_25860)">
<g id="Group">
<g id="Group_2">
<path id="Vector" d="M31.9109 15.7322L29.7256 14.7864L27.8698 11.1753C27.3683 10.1865 26.3508 9.57031 25.2403 9.57748H22.0447V8.67469C22.0447 7.04107 20.7406 5.70837 19.107 5.70837H3.83123C2.19761 5.70837 0.907905 7.04823 0.907905 8.67469V22.5031C0.893575 23.4991 1.68889 24.3159 2.68483 24.3302C2.69199 24.3302 2.69916 24.3302 2.71349 24.3302H3.09323C3.09323 24.4019 3.08607 24.4305 3.08607 24.4735C3.0789 26.5227 4.73402 28.1922 6.78321 28.1993C8.8324 28.2065 10.5018 26.5514 10.509 24.5022C10.509 24.4879 10.509 24.4807 10.509 24.4664C10.509 24.4162 10.509 24.3947 10.5018 24.3231H22.8472C22.8472 24.3947 22.8472 24.4234 22.8472 24.4664C22.84 26.5156 24.4951 28.185 26.5443 28.1922C28.5935 28.1993 30.2629 26.5442 30.2701 24.495C30.2701 24.4807 30.2701 24.4735 30.2701 24.4592C30.2701 24.409 30.2701 24.3875 30.2701 24.3159H31.1944C32.1903 24.3159 33 23.5063 33 22.5103C33 22.5031 33 22.496 33 22.4817V17.3945C33.0143 16.6923 32.5844 16.026 31.9109 15.7322ZM6.80471 26.7735C5.54366 26.7735 4.52623 25.7561 4.52623 24.495C4.52623 23.234 5.54366 22.2165 6.80471 22.2165C8.06575 22.2165 9.08318 23.234 9.08318 24.495C9.08318 25.7489 8.05858 26.7735 6.80471 26.7735ZM20.6117 22.9116H10.1651C9.56323 21.6004 8.24487 20.7621 6.80471 20.7692C5.35737 20.7621 4.04618 21.5932 3.44432 22.9116H2.71349C2.49137 22.9116 2.34091 22.7396 2.34091 22.5175V18.8275H20.6117V22.9116ZM20.6117 8.68185V17.3945H2.34091V8.68185C2.34091 7.84355 2.99292 7.14854 3.83123 7.14854H19.107C19.9453 7.15571 20.6188 7.84355 20.6117 8.67469V8.68185ZM22.0447 11.0176H25.2403C25.8063 11.0105 26.3365 11.3186 26.6016 11.8273L28.0346 14.6001H22.0447V11.0176ZM26.5658 26.7735C25.3047 26.7735 24.2873 25.7561 24.2873 24.495C24.2873 23.234 25.3047 22.2165 26.5658 22.2165C27.8268 22.2165 28.8443 23.234 28.8443 24.495C28.8443 25.7489 27.8268 26.7735 26.5658 26.7735ZM31.5741 22.5175C31.5741 22.7396 31.4237 22.9116 31.2015 22.9116H29.9262C29.0592 21.0558 26.8524 20.2533 24.9967 21.1203C24.2085 21.4857 23.5708 22.1234 23.2054 22.9116H22.0447V16.0331H29.0664L31.3448 17.0363C31.4881 17.1079 31.5813 17.2655 31.5741 17.4232V22.5175Z" fill="#F2994A"/>
</g>
</g>
</g>
<defs>
<clipPath id="clip0_1_25860">
<rect width="32.0926" height="32.0926" fill="white" transform="translate(0.907471 0.907471)"/>
</clipPath>
</defs>
</svg>
