<svg width="40" height="40" viewBox="0 0 40 40" fill="none" xmlns="http://www.w3.org/2000/svg">
<g id="interest 1" clip-path="url(#clip0_1_25702)">
<path id="Vector" d="M40 29.6933L39.3396 28.764C37.4902 26.1612 33.9413 25.5475 31.3385 27.2616L27.6862 29.6503C28.0609 28.8788 28.2712 28.0133 28.2712 27.0996V25.9283H20.9549C20.3082 25.9283 20.0446 25.4611 19.631 25.152C16.5427 22.4344 11.8848 22.4344 8.79639 25.152L5.25208 28.2712H0V39.9856H26.3199L40 29.6933ZM2.34283 37.6428V30.614H6.13586L10.3442 26.911C12.55 24.9698 15.8771 24.9698 18.0832 26.911C18.3984 27.1234 19.2496 28.2702 20.9549 28.2702H25.7275C25.2438 29.6341 23.941 30.614 22.4136 30.614H17.6498V32.9568H26.9104L32.6239 29.2203C33.8834 28.3908 35.4681 28.4656 36.6217 29.303L25.5368 37.6428H2.34283Z" fill="white"/>
<path id="Vector_2" d="M18.8999 7.10699H21.2427V9.44983H18.8999V7.10699Z" fill="white"/>
<path id="Vector_3" d="M25.9282 14.1356H28.2711V16.4788H25.9282V14.1356Z" fill="white"/>
<path id="Vector_4" d="M27.9285 9.10657L20.9 16.1354L19.2432 14.4786L26.272 7.45007L27.9285 9.10657Z" fill="white"/>
<path id="Vector_5" d="M11.8706 11.7926C11.8706 18.2538 17.1138 23.5852 23.5851 23.5852C30.0472 23.5852 35.2999 18.2642 35.2999 11.7926C35.2999 5.33173 30.0566 0 23.5851 0C17.1233 0 11.8706 5.32135 11.8706 11.7926ZM32.9567 11.7926C32.9567 17.0032 28.7526 21.2424 23.5851 21.2424C18.4175 21.2424 14.2134 17.0032 14.2134 11.7926C14.2134 6.58203 18.4175 2.34283 23.5851 2.34283C28.7526 2.34283 32.9567 6.58203 32.9567 11.7926Z" fill="white"/>
</g>
<defs>
<clipPath id="clip0_1_25702">
<rect width="40" height="40" fill="white"/>
</clipPath>
</defs>
</svg>
