<svg width="354" height="144" viewBox="0 0 354 144" fill="none" xmlns="http://www.w3.org/2000/svg">
<rect width="354" height="144" rx="15" fill="#E5BE90"/>
<mask id="mask0_26_468" style="mask-type:alpha" maskUnits="userSpaceOnUse" x="0" y="0" width="354" height="144">
<rect width="354" height="144" rx="15" fill="#E5BE90"/>
</mask>
<g mask="url(#mask0_26_468)">
<path d="M40.4069 117.322C50.6423 157.07 11.376 175.412 -16.3665 181.246C-22.3711 182.509 -27.4262 178.983 -29.7628 172.652L-81.2993 33.0216C-85.2596 22.2917 -80.204 7.08005 -70.4364 0.336878L56.7284 -87.453C63.3509 -92.025 70.5601 -91.5187 74.7907 -85.8605C98.4177 -54.2604 127.377 -2.15223 94.6182 9.69929C49.4043 26.0566 26.0333 61.5049 40.4069 117.322Z" fill="#AA7B43" fill-opacity="0.1"/>
<path d="M30.1378 112.195C38.7561 153.638 -0.836636 168.893 -28.5113 172.399C-34.498 173.158 -39.2659 169.322 -41.2446 162.959L-87.3052 14.8414C-90.6999 3.92509 -84.8748 -10.8623 -74.7635 -16.9965L53.602 -94.8719C60.598 -99.1162 67.9331 -98.0856 71.8754 -91.9911C94.0548 -57.703 120.754 -2.00147 87.877 7.21363C42.5159 19.9281 18.0409 54.0226 30.1378 112.195Z" fill="#AA7B43" fill-opacity="0.1"/>
<path d="M18.79 101.574C25.0684 144.311 -14.8686 155.704 -42.3996 156.439C-48.3757 156.599 -52.8238 152.395 -54.3814 145.989L-92.1115 -9.18829C-94.8142 -20.304 -88.035 -34.4823 -77.4918 -39.7644L52.6566 -104.968C60.0709 -108.683 67.4913 -106.978 71.05 -100.435C91.1111 -63.5476 114.473 -4.58656 81.4992 1.38589C35.9974 9.62737 9.97713 41.5847 18.79 101.574Z" fill="#AA7B43" fill-opacity="0.1"/>
<path d="M10.6683 91.6926C15.4472 134.416 -24.4118 143.555 -51.7105 142.793C-57.6984 142.626 -61.9892 138.21 -63.3167 131.767L-95.4734 -24.3059C-97.7844 -35.5227 -90.4601 -49.3048 -79.6709 -54.0411L50.9024 -111.361C58.5237 -114.707 65.9532 -112.609 69.286 -105.857C87.909 -68.1306 109.003 -8.42358 76.1643 -4.31272C30.8066 1.36523 3.95306 31.6573 10.6683 91.6926Z" fill="#AA7B43" fill-opacity="0.1"/>
</g>
</svg>
