<svg width="37" height="14" viewBox="0 0 37 14" fill="none" xmlns="http://www.w3.org/2000/svg">
<g id="Uber Logo" clip-path="url(#clip0_1_26290)">
<g id="Group">
<path id="Vector" d="M2.07221 9.62988C2.22442 10.0341 2.43514 10.3796 2.70443 10.6666C2.97371 10.9536 3.29274 11.1733 3.6615 11.3256C4.0303 11.4779 4.43127 11.554 4.86446 11.554C5.28595 11.554 5.68106 11.4749 6.04985 11.3167C6.41865 11.1586 6.74059 10.936 7.01571 10.649C7.29082 10.362 7.5045 10.0194 7.6567 9.6211C7.80891 9.2228 7.88499 8.77769 7.88499 8.28566V0.694717H9.72892V12.9948H7.90256V11.8527C7.4928 12.2861 7.00984 12.6199 6.45374 12.8543C5.89761 13.0885 5.29764 13.2057 4.65373 13.2057C3.99808 13.2057 3.38638 13.0914 2.81855 12.863C2.25076 12.6346 1.75902 12.3096 1.34343 11.8878C0.927848 11.4661 0.600004 10.9595 0.360018 10.3679C0.119993 9.77631 0 9.1174 0 8.39106V0.694717H1.84392V8.28566C1.84392 8.77769 1.92 9.22572 2.07221 9.62988Z" fill="#010202"/>
<path id="Vector_2" d="M12.9075 0.694717V5.17546C13.3172 4.76546 13.7914 4.44042 14.3299 4.20025C14.8685 3.96009 15.4538 3.84002 16.086 3.84002C16.7417 3.84002 17.3563 3.963 17.9299 4.209C18.5036 4.455 19.0011 4.78887 19.4226 5.21061C19.8441 5.63235 20.1778 6.13018 20.4236 6.70418C20.6695 7.27822 20.7924 7.88736 20.7924 8.53166C20.7924 9.17591 20.6695 9.78214 20.4236 10.3503C20.1778 10.9184 19.8441 11.4134 19.4226 11.835C19.0011 12.2568 18.5036 12.5907 17.9299 12.8367C17.3563 13.0827 16.7416 13.2056 16.086 13.2056C15.4538 13.2056 14.8655 13.0856 14.3211 12.8454C13.7767 12.6053 13.2996 12.2802 12.8899 11.8702V12.9948H11.1338V0.694717H12.9075ZM13.1094 9.74408C13.2674 10.119 13.487 10.447 13.768 10.7281C14.0489 11.0093 14.3767 11.2319 14.7514 11.3959C15.126 11.5599 15.5299 11.6419 15.9631 11.6419C16.3846 11.6419 16.7826 11.5599 17.1573 11.3959C17.5319 11.2319 17.8567 11.0093 18.1319 10.7281C18.407 10.447 18.6266 10.119 18.7905 9.74408C18.9544 9.36923 19.0363 8.9651 19.0363 8.53166C19.0363 8.09821 18.9544 7.69113 18.7905 7.31041C18.6266 6.92969 18.407 6.59877 18.1319 6.31763C17.8568 6.03652 17.5319 5.81684 17.1573 5.65871C16.7826 5.50058 16.3846 5.42146 15.9631 5.42146C15.5417 5.42146 15.1436 5.50054 14.769 5.65871C14.3944 5.81688 14.0665 6.03652 13.7855 6.31763C13.5046 6.59877 13.2821 6.92969 13.1182 7.31041C12.9543 7.69113 12.8724 8.09821 12.8724 8.53166C12.8723 8.9651 12.9514 9.36923 13.1094 9.74408Z" fill="#010202"/>
<path id="Vector_3" d="M21.7926 6.72184C22.0267 6.15955 22.3487 5.66464 22.7584 5.23706C23.1681 4.80949 23.6541 4.47271 24.216 4.22671C24.778 3.98071 25.3868 3.85773 26.0424 3.85773C26.6863 3.85773 27.2834 3.97488 27.8336 4.20913C28.3839 4.44343 28.858 4.76851 29.2561 5.18438C29.6541 5.60021 29.9644 6.09225 30.1868 6.66037C30.4093 7.22854 30.5205 7.84647 30.5205 8.51421V9.09408H23.2326C23.2912 9.45723 23.4082 9.79401 23.5838 10.1044C23.7595 10.4148 23.9789 10.6843 24.2424 10.9127C24.5058 11.1412 24.8043 11.3198 25.138 11.4486C25.4717 11.5775 25.8258 11.6419 26.2004 11.6419C27.2659 11.6419 28.1264 11.2026 28.782 10.324L30.0639 11.2729C29.619 11.8703 29.0688 12.3389 28.4132 12.6786C27.7576 13.0183 27.02 13.1882 26.2005 13.1882C25.5331 13.1882 24.9097 13.071 24.3302 12.8367C23.7507 12.6025 23.2473 12.2745 22.82 11.8527C22.3926 11.431 22.0561 10.9361 21.8102 10.3679C21.5644 9.79981 21.4414 9.18183 21.4414 8.51413C21.4413 7.88158 21.5584 7.28414 21.7926 6.72184ZM24.2599 6.02774C23.7623 6.44361 23.4316 6.99712 23.2677 7.68827H28.7293C28.5771 6.99712 28.2522 6.44361 27.7546 6.02774C27.257 5.61191 26.6746 5.40398 26.0073 5.40398C25.3399 5.40398 24.7575 5.61191 24.2599 6.02774Z" fill="#010202"/>
<path id="Vector_4" d="M33.8405 6.22983C33.4659 6.63983 33.2786 7.19625 33.2786 7.89914V12.9949H31.5049V4.03341H33.261V5.14042C33.4834 4.77728 33.7732 4.49026 34.1303 4.27941C34.4873 4.06852 34.9117 3.96307 35.4035 3.96307H36.0181V5.61481H35.2805C34.6952 5.61485 34.2152 5.81983 33.8405 6.22983Z" fill="#010202"/>
</g>
</g>
<defs>
<clipPath id="clip0_1_26290">
<rect width="36.0176" height="12.511" fill="white" transform="translate(0 0.694717)"/>
</clipPath>
</defs>
</svg>
