<svg width="42" height="42" viewBox="0 0 42 42" fill="none" xmlns="http://www.w3.org/2000/svg">
<g id="Group 12569">
<g id="Ellipse 209" opacity="0.1">
<mask id="path-1-outside-1_1_26865" maskUnits="userSpaceOnUse" x="0" y="0" width="42" height="42" fill="black">
<rect fill="white" width="42" height="42"/>
<path d="M41 21C41 32.0457 32.0457 41 21 41C9.9543 41 1 32.0457 1 21C1 9.9543 9.9543 1 21 1C32.0457 1 41 9.9543 41 21ZM2.6 21C2.6 31.162 10.838 39.4 21 39.4C31.162 39.4 39.4 31.162 39.4 21C39.4 10.838 31.162 2.6 21 2.6C10.838 2.6 2.6 10.838 2.6 21Z"/>
</mask>
<path d="M41 21C41 32.0457 32.0457 41 21 41C9.9543 41 1 32.0457 1 21C1 9.9543 9.9543 1 21 1C32.0457 1 41 9.9543 41 21ZM2.6 21C2.6 31.162 10.838 39.4 21 39.4C31.162 39.4 39.4 31.162 39.4 21C39.4 10.838 31.162 2.6 21 2.6C10.838 2.6 2.6 10.838 2.6 21Z" fill="#1C162E"/>
<path d="M41 21C41 32.0457 32.0457 41 21 41C9.9543 41 1 32.0457 1 21C1 9.9543 9.9543 1 21 1C32.0457 1 41 9.9543 41 21ZM2.6 21C2.6 31.162 10.838 39.4 21 39.4C31.162 39.4 39.4 31.162 39.4 21C39.4 10.838 31.162 2.6 21 2.6C10.838 2.6 2.6 10.838 2.6 21Z" stroke="#1C162E" stroke-width="2" mask="url(#path-1-outside-1_1_26865)"/>
</g>
<g id="Ellipse 208">
<mask id="path-2-outside-2_1_26865" maskUnits="userSpaceOnUse" x="20" y="0" width="22" height="38" fill="black">
<rect fill="white" x="20" width="22" height="38"/>
<path d="M21 1.8C21 1.35817 21.3583 0.998329 21.7998 1.01599C25.7413 1.17369 29.5548 2.49409 32.7557 4.81966C36.1727 7.30223 38.716 10.8028 40.0211 14.8197C41.3263 18.8365 41.3263 23.1635 40.0211 27.1804C38.7985 30.9432 36.4894 34.253 33.3933 36.6973C33.0466 36.9711 32.5452 36.8906 32.2855 36.5331C32.0258 36.1757 32.1062 35.6767 32.4521 35.4017C35.2752 33.1569 37.3812 30.1274 38.4994 26.6859C39.7002 22.9904 39.7002 19.0096 38.4994 15.3141C37.2987 11.6186 34.9589 8.39805 31.8153 6.11409C28.8878 3.98715 25.4032 2.77412 21.7998 2.61738C21.3584 2.59819 21 2.24183 21 1.8Z"/>
</mask>
<path d="M21 1.8C21 1.35817 21.3583 0.998329 21.7998 1.01599C25.7413 1.17369 29.5548 2.49409 32.7557 4.81966C36.1727 7.30223 38.716 10.8028 40.0211 14.8197C41.3263 18.8365 41.3263 23.1635 40.0211 27.1804C38.7985 30.9432 36.4894 34.253 33.3933 36.6973C33.0466 36.9711 32.5452 36.8906 32.2855 36.5331C32.0258 36.1757 32.1062 35.6767 32.4521 35.4017C35.2752 33.1569 37.3812 30.1274 38.4994 26.6859C39.7002 22.9904 39.7002 19.0096 38.4994 15.3141C37.2987 11.6186 34.9589 8.39805 31.8153 6.11409C28.8878 3.98715 25.4032 2.77412 21.7998 2.61738C21.3584 2.59819 21 2.24183 21 1.8Z" fill="#E5BE90"/>
<path d="M21 1.8C21 1.35817 21.3583 0.998329 21.7998 1.01599C25.7413 1.17369 29.5548 2.49409 32.7557 4.81966C36.1727 7.30223 38.716 10.8028 40.0211 14.8197C41.3263 18.8365 41.3263 23.1635 40.0211 27.1804C38.7985 30.9432 36.4894 34.253 33.3933 36.6973C33.0466 36.9711 32.5452 36.8906 32.2855 36.5331C32.0258 36.1757 32.1062 35.6767 32.4521 35.4017C35.2752 33.1569 37.3812 30.1274 38.4994 26.6859C39.7002 22.9904 39.7002 19.0096 38.4994 15.3141C37.2987 11.6186 34.9589 8.39805 31.8153 6.11409C28.8878 3.98715 25.4032 2.77412 21.7998 2.61738C21.3584 2.59819 21 2.24183 21 1.8Z" stroke="#E5BE90" stroke-width="2" mask="url(#path-2-outside-2_1_26865)"/>
</g>
</g>
</svg>
