<svg width="28" height="33" viewBox="0 0 28 33" fill="none" xmlns="http://www.w3.org/2000/svg">
<g id="PayPal Icon" clip-path="url(#clip0_1_25825)">
<path id="path3349" d="M8.02418 31.4276L8.59475 27.8834L7.3238 27.8546H1.25488L5.47247 1.70236C5.48556 1.62342 5.52811 1.5498 5.59029 1.49753C5.65247 1.44525 5.73211 1.41644 5.81502 1.41644H16.0481C19.4453 1.41644 21.7897 2.10778 23.0137 3.47231C23.5876 4.11243 23.953 4.78136 24.1298 5.5175C24.3152 6.28992 24.3185 7.21276 24.1374 8.33831L24.1243 8.42046V9.14167L24.6982 9.45959C25.1814 9.71031 25.5655 9.9973 25.86 10.3259C26.3509 10.8732 26.6684 11.5688 26.8026 12.3935C26.9411 13.2417 26.8953 14.2509 26.6684 15.3935C26.4066 16.7079 25.9833 17.8527 25.4116 18.7894C24.8858 19.6525 24.216 20.3684 23.4207 20.9231C22.6614 21.4502 21.7592 21.8502 20.7391 22.1063C19.7507 22.3581 18.6238 22.485 17.3877 22.485H16.5914C16.0219 22.485 15.4688 22.6856 15.0346 23.0451C14.5993 23.4122 14.3113 23.9136 14.2229 24.462L14.1629 24.7809L13.1549 31.0275L13.1091 31.2569C13.0971 31.3294 13.0763 31.3657 13.0458 31.3902C13.0185 31.4126 12.9792 31.4276 12.9411 31.4276H8.02418Z" fill="#253B80"/>
<path id="path3351" d="M25.2421 8.50372C25.2115 8.69469 25.1766 8.88993 25.1373 9.0905C23.7878 15.8662 19.171 18.2069 13.2744 18.2069H10.2721C9.55102 18.2069 8.94337 18.719 8.831 19.4146L7.29386 28.9482L6.85858 31.6506C6.78548 32.1072 7.14549 32.519 7.61678 32.519H12.9417C13.5722 32.519 14.1079 32.0709 14.2072 31.4628L14.2595 31.1982L15.2621 24.9762L15.3265 24.6348C15.4247 24.0246 15.9614 23.5765 16.592 23.5765H17.3884C22.5474 23.5765 26.5861 21.5281 27.7665 15.6006C28.2596 13.1243 28.0043 11.0567 26.6996 9.6026C26.3046 9.16412 25.8148 8.80031 25.2421 8.50372Z" fill="#179BD7"/>
<path id="path3353" d="M23.8297 7.95343C23.6235 7.89475 23.4108 7.84141 23.1926 7.7934C22.9733 7.74645 22.7486 7.70485 22.5173 7.66857C21.7078 7.54055 20.8209 7.47974 19.8707 7.47974H11.8501C11.6526 7.47974 11.4649 7.52348 11.2969 7.60243C10.9271 7.77633 10.6522 8.11879 10.5856 8.53807L8.87941 19.1065L8.83032 19.4148C8.94269 18.7192 9.55034 18.2071 10.2715 18.2071H13.2737C19.1703 18.2071 23.7871 15.8654 25.1366 9.09072C25.177 8.89014 25.2108 8.6949 25.2414 8.50393C24.8999 8.32683 24.5301 8.17534 24.1319 8.04625C24.0337 8.01424 23.9322 7.9833 23.8297 7.95343Z" fill="#222D65"/>
<path id="path3355" d="M10.586 8.53801C10.6525 8.11873 10.9274 7.77626 11.2973 7.60343C11.4664 7.52448 11.6529 7.48074 11.8504 7.48074H19.871C20.8212 7.48074 21.7081 7.54155 22.5176 7.66957C22.7489 7.70585 22.9736 7.74746 23.1929 7.7944C23.4111 7.84241 23.6238 7.89575 23.83 7.95443C23.9326 7.9843 24.034 8.01524 24.1333 8.04618C24.5315 8.17527 24.9013 8.32784 25.2428 8.50387C25.6443 5.99992 25.2395 4.29506 23.8551 2.75129C22.3289 1.05176 19.5742 0.324158 16.0494 0.324158H5.81637C5.09634 0.324158 4.48214 0.836257 4.37087 1.53292L0.108553 27.954C0.0245509 28.4768 0.436927 28.9483 0.975853 28.9483H7.2935L8.87973 19.1064L10.586 8.53801Z" fill="#253B80"/>
</g>
<defs>
<clipPath id="clip0_1_25825">
<rect width="27.9023" height="32.195" fill="white" transform="translate(0.0976562 0.324158)"/>
</clipPath>
</defs>
</svg>
