<svg width="24" height="24" viewBox="0 0 24 24" fill="none" xmlns="http://www.w3.org/2000/svg">
<g id="refresh-ccw">
<path id="Vector" d="M1 4.00001V10H7" stroke="#E5BE90" stroke-width="2"/>
<path id="Vector_2" d="M23 20.0001V14.0001H17" stroke="#E5BE90" stroke-width="2"/>
<path id="Vector_3" d="M20.49 9.00009C19.9828 7.56687 19.1209 6.28549 17.9845 5.2755C16.8482 4.26552 15.4745 3.55985 13.9917 3.22434C12.5089 2.88884 10.9652 2.93443 9.50481 3.35686C8.04437 3.77929 6.71475 4.5648 5.64 5.64009L1 10.0001M23 14.0001L18.36 18.3601C17.2853 19.4354 15.9556 20.2209 14.4952 20.6433C13.0348 21.0657 11.4911 21.1113 10.0083 20.7758C8.52547 20.4403 7.1518 19.7347 6.01547 18.7247C4.87913 17.7147 4.01717 16.4333 3.51 15.0001" stroke="#E5BE90" stroke-width="2" stroke-linejoin="round"/>
</g>
</svg>
