<svg width="20" height="20" viewBox="0 0 20 20" fill="none" xmlns="http://www.w3.org/2000/svg">
<g id="file-text">
<path id="Vector" d="M11.6668 1.66663H5.00016C4.55814 1.66663 4.13421 1.84222 3.82165 2.15478C3.50909 2.46734 3.3335 2.89127 3.3335 3.33329V16.6666C3.3335 17.1087 3.50909 17.5326 3.82165 17.8451C4.13421 18.1577 4.55814 18.3333 5.00016 18.3333H15.0002C15.4422 18.3333 15.8661 18.1577 16.1787 17.8451C16.4912 17.5326 16.6668 17.1087 16.6668 16.6666V6.66663L11.6668 1.66663Z" stroke="white" stroke-linecap="round" stroke-linejoin="round"/>
<path id="Vector_2" d="M11.6665 1.66663V6.66663H16.6665" stroke="white" stroke-linecap="round" stroke-linejoin="round"/>
<path id="Vector_3" d="M13.3332 10.8334H6.6665" stroke="white" stroke-linecap="round" stroke-linejoin="round"/>
<path id="Vector_4" d="M13.3332 14.1666H6.6665" stroke="white" stroke-linecap="round" stroke-linejoin="round"/>
<path id="Vector_5" d="M8.33317 7.5H7.49984H6.6665" stroke="white" stroke-linecap="round" stroke-linejoin="round"/>
</g>
</svg>
