<svg width="20" height="19" viewBox="0 0 20 19" fill="none" xmlns="http://www.w3.org/2000/svg">
<g id="revenue 1" clip-path="url(#clip0_1_25417)">
<path id="Vector" d="M1.14175 17.8285H4.46034L11.0715 18.9672C11.213 18.9915 11.3627 18.9613 11.4885 18.8714C11.4904 18.8701 11.4923 18.8689 11.4941 18.8675L19.2988 13.1342C19.543 12.9549 19.5982 12.6128 19.4226 12.3657C18.56 11.1517 16.8427 10.833 15.5943 11.6554L13.6161 12.9598C13.3128 12.548 12.8249 12.2803 12.2754 12.2803H10.4748C10.1685 12.2803 10.0435 12.0589 9.84771 11.9126C8.38492 10.6253 6.17888 10.6253 4.71608 11.9126L4.29837 12.2803H1.14175C0.835288 12.2803 0.586914 12.5287 0.586914 12.8351V17.2737C0.586914 17.5801 0.835288 17.8285 1.14175 17.8285ZM1.69658 13.39H4.50773C4.64268 13.39 4.77301 13.3407 4.8743 13.2515L5.44922 12.7457C6.49401 11.8262 8.06979 11.8262 9.11458 12.7457C9.26138 12.8447 9.6671 13.39 10.4748 13.39H12.2754C12.5813 13.39 12.8302 13.6388 12.8302 13.9448C12.8302 14.2507 12.5813 14.4995 12.2754 14.4995H7.83673C7.53027 14.4995 7.2819 14.748 7.2819 15.0543C7.2819 15.3608 7.53027 15.6092 7.83673 15.6092H12.2754C13.1478 15.6092 13.865 14.9344 13.934 14.0795L16.205 12.5818C16.8006 12.1896 17.572 12.2258 18.1269 12.6183L11.0273 17.8335C4.21702 16.6635 4.59804 16.7188 4.50773 16.7188H1.69658V13.39Z" fill="#E5BE90"/>
<path id="Vector_2" d="M15.0495 5.06747C15.0495 2.2936 12.8094 0.0369873 10.056 0.0369873C7.30264 0.0369873 5.0625 2.2936 5.0625 5.06747C5.0625 7.82083 7.30264 10.061 10.056 10.061C12.8094 10.061 15.0495 7.82083 15.0495 5.06747ZM13.9398 5.06747C13.9398 7.02066 12.4905 8.64138 10.6108 8.91143V7.90666C11.2535 7.67591 11.7146 7.06068 11.7146 6.33969C11.7146 5.4219 10.9679 4.67519 10.0501 4.67519C9.74405 4.67519 9.49524 4.42624 9.49524 4.12036C9.49524 3.81433 9.74405 3.56552 10.0501 3.56552C10.356 3.56552 10.6049 3.81433 10.6049 4.12036C10.6049 4.42667 10.8533 4.67519 11.1597 4.67519C11.4661 4.67519 11.7146 4.42667 11.7146 4.12036C11.7146 3.39922 11.2535 2.78399 10.6108 2.55324V1.18682C12.4905 1.45947 13.9398 3.09565 13.9398 5.06747ZM6.17217 5.06747C6.17217 3.09565 7.62153 1.45947 9.50117 1.18682V2.5492C8.85227 2.77662 8.38558 3.39474 8.38558 4.12036C8.38558 5.03814 9.13229 5.78471 10.0501 5.78471C10.356 5.78471 10.6049 6.03366 10.6049 6.33954C10.6049 6.64557 10.356 6.89438 10.0501 6.89438C9.74405 6.89438 9.49524 6.64557 9.49524 6.33954C9.49524 6.03323 9.24673 5.78471 8.94041 5.78471C8.63395 5.78471 8.38558 6.03323 8.38558 6.33954C8.38558 7.06516 8.85227 7.68328 9.50117 7.9107V8.91143C7.62153 8.64138 6.17217 7.02066 6.17217 5.06747Z" fill="#E5BE90"/>
</g>
<defs>
<clipPath id="clip0_1_25417">
<rect width="18.9383" height="18.9383" fill="white" transform="translate(0.586914)"/>
</clipPath>
</defs>
</svg>
