<svg width="20" height="20" viewBox="0 0 20 20" fill="none" xmlns="http://www.w3.org/2000/svg">
<g id="gift">
<path id="Vector" d="M16.6668 10V18.3333H3.3335V10" stroke="#58B9FF" stroke-linecap="round" stroke-linejoin="round"/>
<path id="Vector_2" d="M18.3332 5.83337H1.6665V10H18.3332V5.83337Z" stroke="#58B9FF" stroke-linecap="round" stroke-linejoin="round"/>
<path id="Vector_3" d="M10 18.3334V5.83337" stroke="#58B9FF" stroke-linecap="round" stroke-linejoin="round"/>
<path id="Vector_4" d="M9.99984 5.83329H6.24984C5.6973 5.83329 5.1674 5.6138 4.7767 5.2231C4.386 4.8324 4.1665 4.30249 4.1665 3.74996C4.1665 3.19742 4.386 2.66752 4.7767 2.27682C5.1674 1.88612 5.6973 1.66663 6.24984 1.66663C9.1665 1.66663 9.99984 5.83329 9.99984 5.83329Z" stroke="#58B9FF" stroke-linecap="round" stroke-linejoin="round"/>
<path id="Vector_5" d="M10 5.83329H13.75C14.3025 5.83329 14.8324 5.6138 15.2231 5.2231C15.6138 4.8324 15.8333 4.30249 15.8333 3.74996C15.8333 3.19742 15.6138 2.66752 15.2231 2.27682C14.8324 1.88612 14.3025 1.66663 13.75 1.66663C10.8333 1.66663 10 5.83329 10 5.83329Z" stroke="#58B9FF" stroke-linecap="round" stroke-linejoin="round"/>
</g>
</svg>
