<svg width="20" height="20" viewBox="0 0 20 20" fill="none" xmlns="http://www.w3.org/2000/svg">
<g id="coffee">
<path id="Vector" d="M15 6.66663H15.8333C16.7174 6.66663 17.5652 7.01782 18.1904 7.64294C18.8155 8.26806 19.1667 9.1159 19.1667 9.99996C19.1667 10.884 18.8155 11.7319 18.1904 12.357C17.5652 12.9821 16.7174 13.3333 15.8333 13.3333H15" stroke="#E5BE90" stroke-linecap="round" stroke-linejoin="round"/>
<path id="Vector_2" d="M1.6665 6.66663H14.9998V14.1666C14.9998 15.0507 14.6486 15.8985 14.0235 16.5236C13.3984 17.1488 12.5506 17.5 11.6665 17.5H4.99984C4.11578 17.5 3.26794 17.1488 2.64281 16.5236C2.01769 15.8985 1.6665 15.0507 1.6665 14.1666V6.66663Z" stroke="#E5BE90" stroke-linecap="round" stroke-linejoin="round"/>
<path id="Vector_3" d="M5 0.833374V3.33337" stroke="#E5BE90" stroke-linecap="round" stroke-linejoin="round"/>
<path id="Vector_4" d="M8.3335 0.833374V3.33337" stroke="#E5BE90" stroke-linecap="round" stroke-linejoin="round"/>
<path id="Vector_5" d="M11.6665 0.833374V3.33337" stroke="#E5BE90" stroke-linecap="round" stroke-linejoin="round"/>
</g>
</svg>
