<svg width="192" height="246" viewBox="0 0 192 246" fill="none" xmlns="http://www.w3.org/2000/svg">
<g id="CHARACTER 21">
<g id="TALL COIN PILE">
<g id="Group">
<path id="Vector" fill-rule="evenodd" clip-rule="evenodd" d="M132.239 93.432C131.065 92.8524 130.256 91.6422 130.256 90.2448V83.1406C130.256 81.18 131.848 79.5885 133.808 79.5885H187.75C189.711 79.5885 191.302 81.18 191.302 83.1406V90.2448C191.302 91.6422 190.493 92.8524 189.317 93.432C190.493 94.0119 191.302 95.222 191.302 96.6194V103.724C191.302 104.952 190.677 106.036 189.728 106.674C190.677 107.312 191.302 108.396 191.302 109.624V116.729C191.302 117.958 190.677 119.041 189.728 119.679C190.677 120.316 191.302 121.401 191.302 122.628V129.733C191.302 130.962 190.677 132.045 189.728 132.684C190.677 133.322 191.302 134.405 191.302 135.634V142.739C191.302 143.966 190.677 145.051 189.728 145.69C190.677 146.326 191.302 147.411 191.302 148.638V155.743C191.302 156.972 190.677 158.055 189.728 158.694C190.677 159.332 191.302 160.415 191.302 161.644V168.749C191.302 169.976 190.677 171.061 189.728 171.698C190.677 172.336 191.302 173.42 191.302 174.649V181.753C191.302 182.982 190.677 184.065 189.728 184.704C190.677 185.342 191.302 186.425 191.302 187.654V194.759C191.302 195.986 190.677 197.071 189.728 197.708C190.677 198.346 191.302 199.43 191.302 200.659V207.763C191.302 208.992 190.677 210.075 189.728 210.714C190.677 211.351 191.302 212.435 191.302 213.664V220.767C191.302 221.996 190.677 223.081 189.728 223.718C190.677 224.357 191.302 225.44 191.302 226.669V233.773C191.302 235.733 189.711 237.325 187.75 237.325H133.808C131.848 237.325 130.256 235.733 130.256 233.773V226.669C130.256 225.44 130.881 224.357 131.83 223.718C130.881 223.081 130.256 221.996 130.256 220.767V213.664C130.256 212.435 130.881 211.351 131.83 210.714C130.881 210.075 130.256 208.992 130.256 207.763V200.659C130.256 199.43 130.881 198.346 131.83 197.708C130.881 197.071 130.256 195.986 130.256 194.759V187.654C130.256 186.425 130.881 185.342 131.83 184.704C130.881 184.065 130.256 182.982 130.256 181.753V174.649C130.256 173.42 130.881 172.336 131.83 171.698C130.881 171.061 130.256 169.976 130.256 168.749V161.644C130.256 160.415 130.881 159.332 131.83 158.694C130.881 158.055 130.256 156.972 130.256 155.743V148.638C130.256 147.411 130.881 146.326 131.83 145.69C130.881 145.051 130.256 143.966 130.256 142.739V135.634C130.256 134.405 130.881 133.322 131.83 132.684C130.881 132.045 130.256 130.962 130.256 129.733V122.628C130.256 121.401 130.881 120.316 131.83 119.679C130.881 119.041 130.256 117.958 130.256 116.729V109.624C130.256 108.396 130.881 107.312 131.83 106.674C130.881 106.036 130.256 104.952 130.256 103.724V96.6194C130.256 95.222 131.065 94.0119 132.239 93.432Z" fill="#FFCD80"/>
</g>
<g id="Group_2">
<path id="Vector_2" fill-rule="evenodd" clip-rule="evenodd" d="M174.755 79.5885V91.6297H181.33C181.417 91.2492 181.759 90.9649 182.166 90.9649C182.572 90.9649 182.914 91.2492 183.001 91.6297H191.059C190.75 92.3582 190.206 92.9624 189.521 93.3462H183.024V105.003H191.102C190.837 105.688 190.367 106.27 189.766 106.674C189.788 106.689 189.809 106.704 189.831 106.72H188.326V118.294C188.326 118.322 188.324 118.349 188.323 118.377H190.935C190.659 118.902 190.255 119.35 189.766 119.679C189.948 119.801 190.118 119.94 190.274 120.093H181.216V131.103H191.066C190.796 131.748 190.339 132.297 189.766 132.684C189.83 132.727 189.893 132.773 189.953 132.819H186.373V144.095H191.071C190.801 144.747 190.343 145.3 189.766 145.69C189.824 145.727 189.881 145.768 189.938 145.811H180.279V157.104H191.071C190.799 157.753 190.343 158.306 189.766 158.694C189.826 158.735 189.885 158.776 189.941 158.821H186.017V170.218H191.021C190.748 170.821 190.31 171.332 189.766 171.698C189.874 171.772 189.979 171.851 190.079 171.935H178.593V183.07H191.088C190.82 183.737 190.357 184.307 189.766 184.704C189.806 184.73 189.843 184.757 189.881 184.786H183.585V195.911H191.148C190.909 196.606 190.463 197.203 189.881 197.627H178.049V209.1H191.079C190.811 209.759 190.35 210.321 189.766 210.714C189.814 210.746 189.862 210.781 189.91 210.817H184.649V221.938H191.143C190.899 222.635 190.446 223.232 189.857 223.654H172.495V237.325H170.778V223.654H167.311V237.325H165.594V223.654H143.048V237.325H141.332V223.654H131.778C131.189 223.232 130.736 222.635 130.492 221.938H133.542V210.817H131.725C131.771 210.781 131.819 210.746 131.869 210.714C131.285 210.321 130.824 209.759 130.554 209.1H141.581V197.627H131.754C131.172 197.203 130.724 196.606 130.485 195.911H134.777V184.786H131.752C131.79 184.757 131.829 184.73 131.869 184.704C131.278 184.307 130.813 183.737 130.547 183.07H139.869V171.935H131.555C131.656 171.851 131.759 171.772 131.869 171.698C131.325 171.332 130.887 170.821 130.612 170.218H134.344V158.821H131.692C131.75 158.776 131.809 158.735 131.869 158.694C131.292 158.306 130.834 157.753 130.564 157.104H140.487V145.811H131.697C131.754 145.768 131.81 145.727 131.869 145.69C131.29 145.3 130.832 144.747 130.563 144.095H133.148V132.819H131.68C131.742 132.773 131.805 132.727 131.869 132.684C131.294 132.297 130.839 131.748 130.568 131.103H136.176V120.093H131.361C131.517 119.94 131.687 119.801 131.869 119.679C131.38 119.35 130.976 118.902 130.7 118.377H146.274V106.72H137.483C137.372 106.772 137.248 106.802 137.118 106.802C136.986 106.802 136.862 106.772 136.751 106.72H131.802C131.824 106.704 131.847 106.689 131.869 106.674C131.268 106.27 130.798 105.688 130.532 105.003H136.26V93.3462H132.114C131.429 92.9624 130.884 92.358 130.575 91.6297H136.28C136.369 91.2492 136.709 90.9649 137.118 90.9649C137.525 90.9649 137.866 91.2492 137.954 91.6297H148.74V79.5885H150.457V91.6297H152.319V79.5885H154.036V91.6297H158.969C159.056 91.2492 159.398 90.9649 159.806 90.9649C160.213 90.9649 160.555 91.2492 160.642 91.6297H163.245C163.334 91.2492 163.674 90.9649 164.082 90.9649C164.489 90.9649 164.831 91.2492 164.918 91.6297H173.039V79.5885H174.755ZM135.259 210.817V221.938H150.611V210.817H135.259ZM152.328 210.817V221.938H154.951V210.817H152.328ZM156.667 210.817V221.938H182.933V210.817H156.667ZM143.297 197.627V209.1H159.242V197.627H143.297ZM173.058 197.627H160.958V209.1H173.053V197.718L173.058 197.627ZM174.769 209.1H176.333V197.627H174.764C174.767 197.656 174.769 197.687 174.769 197.718V209.1ZM171.091 184.786V195.911H181.869V184.786H171.091ZM152.376 195.911H169.374V184.786H152.36C152.371 184.838 152.376 184.891 152.376 184.944V195.911ZM150.673 184.786H136.493V195.911H150.659V184.944C150.659 184.893 150.663 184.839 150.673 184.788V184.786ZM164.693 171.935V183.07H176.877V171.935H164.693ZM160.816 171.935V183.07H162.977V171.935H160.816ZM141.586 171.935V183.07H159.099V171.935H141.586ZM149.102 158.821V170.218H170.112V158.821H149.102ZM136.061 158.821V170.218H147.386V158.821H136.061ZM171.829 158.821V170.218H184.301V158.821H171.829ZM157.069 145.811V157.104H158.771V145.811H157.069ZM148.394 157.104H155.352V145.811H142.204V157.104H148.095C148.143 157.096 148.193 157.091 148.244 157.091C148.296 157.091 148.345 157.096 148.394 157.104ZM160.488 145.811V157.104H178.563V145.811H160.488ZM179.677 144.095H184.656V132.819H170.605V144.095H179.165C179.246 144.069 179.332 144.055 179.421 144.055C179.51 144.055 179.596 144.069 179.677 144.095ZM166.47 132.819V144.095H168.888V132.819H166.47ZM134.864 132.819V144.095H151.682V132.819H134.864ZM153.399 132.819V144.095H164.753V132.819H153.399ZM137.892 120.093V131.103H139.988V120.093H137.892ZM161.461 120.093V131.103H179.5V120.093H161.461ZM141.704 120.093V131.103H159.745V120.093H141.704ZM151.028 106.72H147.99V118.377H151.034C151.03 118.349 151.028 118.322 151.028 118.294V106.72ZM171.781 106.72H164.448C164.338 106.772 164.213 106.802 164.082 106.802C163.95 106.802 163.827 106.772 163.715 106.72H160.172C160.061 106.772 159.937 106.802 159.806 106.802C159.674 106.802 159.551 106.772 159.439 106.72H152.745V118.294C152.745 118.322 152.745 118.349 152.741 118.377H171.784C171.781 118.349 171.781 118.322 171.781 118.294V106.72ZM186.61 106.72H182.533C182.421 106.772 182.298 106.802 182.166 106.802C182.035 106.802 181.91 106.772 181.8 106.72H173.497V118.294C173.497 118.322 173.495 118.349 173.492 118.377H186.613C186.611 118.349 186.61 118.322 186.61 118.294V106.72ZM137.976 93.3462V105.003H158.948V93.3462H137.976ZM160.665 93.3462V105.003H163.224V93.3462H160.665ZM164.94 93.3462V105.003H181.307V93.3462H164.94Z" fill="#FDA425"/>
</g>
</g>
<g id="MEDIUM COIN PILE">
<g id="Group_3">
<path id="Vector_3" fill-rule="evenodd" clip-rule="evenodd" d="M41.0408 172.192C40.0916 171.556 39.4668 170.471 39.4668 169.243V162.139C39.4668 160.179 41.058 158.586 43.0182 158.586H96.959C98.921 158.586 100.512 160.179 100.512 162.139V169.243C100.512 170.471 99.8874 171.556 98.9381 172.192C99.8874 172.831 100.512 173.914 100.512 175.143V182.248C100.512 183.477 99.8874 184.56 98.9381 185.198C99.8874 185.835 100.512 186.92 100.512 188.149V195.252C100.512 196.481 99.8874 197.566 98.9381 198.202C99.8874 198.841 100.512 199.924 100.512 201.153V208.258C100.512 209.487 99.8874 210.57 98.9381 211.208C99.8874 211.845 100.512 212.93 100.512 214.157V221.262C100.512 222.491 99.8874 223.574 98.9381 224.212C99.8874 224.851 100.512 225.934 100.512 227.163V234.268C100.512 236.228 98.921 237.819 96.959 237.819H43.0182C41.058 237.819 39.4668 236.228 39.4668 234.268V227.163C39.4668 225.934 40.0916 224.851 41.0408 224.212C40.0916 223.574 39.4668 222.491 39.4668 221.262V214.157C39.4668 212.93 40.0916 211.845 41.0408 211.208C40.0916 210.57 39.4668 209.487 39.4668 208.258V201.153C39.4668 199.924 40.0916 198.841 41.0408 198.202C40.0916 197.566 39.4668 196.481 39.4668 195.252V188.149C39.4668 186.92 40.0916 185.835 41.0408 185.198C40.0916 184.56 39.4668 183.477 39.4668 182.248V175.143C39.4668 173.914 40.0916 172.831 41.0408 172.192Z" fill="#FFCD80"/>
</g>
<g id="Group_4">
<path id="Vector_4" fill-rule="evenodd" clip-rule="evenodd" d="M87.865 170.733H100.213C99.9388 171.327 99.5045 171.832 98.9673 172.192C99.084 172.271 99.1956 172.357 99.3037 172.45H94.2109V183.564V183.566H100.287C100.021 184.234 99.556 184.802 98.9673 185.198C99.0068 185.226 99.0479 185.253 99.0874 185.282H88.9224V196.323C88.9224 196.373 88.9189 196.421 88.9103 196.467H100.327C100.071 197.169 99.6006 197.768 98.9947 198.184H95.8621V209.298C95.8621 209.346 95.857 209.394 95.8501 209.44H100.339C100.092 210.139 99.6333 210.736 99.0393 211.157H89.6862V222.467H100.33C100.078 223.169 99.611 223.766 99.0085 224.183H95.4416V237.819H93.7251V224.183H82.652C82.652 224.199 82.6537 224.213 82.6537 224.226V237.819H80.9372V224.226C80.9372 224.213 80.9372 224.199 80.9372 224.183H72.4715C72.3616 224.235 72.2415 224.262 72.1145 224.262C71.9857 224.262 71.8656 224.235 71.7557 224.183H60.7581V237.819H59.0416V224.183H56.0412V237.819H54.3247V224.183H41.0271C40.4246 223.766 39.9577 223.169 39.7054 222.467H51.5492V211.157H40.9962C40.404 210.736 39.944 210.139 39.6968 209.44H44.0567V198.184H41.0425C40.4349 197.768 39.9645 197.169 39.7088 196.467H50.2463V185.282H40.9481C40.9893 185.253 41.0288 185.226 41.07 185.198C40.4795 184.802 40.0161 184.234 39.7483 183.566H43.5022V172.45H40.7335C40.84 172.357 40.9515 172.271 41.07 172.192C40.531 171.832 40.0984 171.327 39.8221 170.733H47.7128V158.586H49.4293V170.733H51.187V158.586H52.9035V170.733H68.6677V158.586H70.3842V170.733H86.1485V158.586H87.865V170.733ZM53.2657 211.157V222.467H71.2562V211.157H53.2657ZM72.9727 211.157V222.467H84.571V211.157H72.9727ZM86.2875 211.157V222.467H87.9697V211.157H86.2875ZM45.7732 198.184V209.44H59.6596V198.184H45.7732ZM78.2149 198.184H61.3761V209.44H78.2612C78.232 209.353 78.2149 209.258 78.2149 209.161V198.184ZM94.1456 198.184H79.9314V209.161C79.9314 209.258 79.9159 209.353 79.885 209.44H94.1559C94.1491 209.394 94.1456 209.346 94.1456 209.298V198.184ZM51.9628 185.282V196.467H65.1524V185.282H51.9628ZM66.8689 185.282V196.467H68.8977V185.282H66.8689ZM87.2059 185.282H70.6142V196.467H78.8088C78.8912 196.44 78.9804 196.426 79.0731 196.426C79.1658 196.426 79.2551 196.44 79.3392 196.467H87.2196C87.211 196.421 87.2059 196.373 87.2059 196.323V185.282ZM45.2187 172.45V183.566H60.3342V172.45H45.2187ZM62.0507 172.45V183.566H75.7174V172.45H62.0507ZM77.4339 172.45V183.566H79.7305V172.45H77.4339ZM92.4944 172.45H81.447V183.566H92.4944V183.564V172.45Z" fill="#FDA425"/>
</g>
</g>
<g id="HUGE COIN">
<path id="Vector_5" fill-rule="evenodd" clip-rule="evenodd" d="M100.517 121.487H117.052C145.499 121.487 168.596 148.306 168.596 181.338C168.596 211.816 148.965 237.476 123.58 241.188C121.451 241.501 100.629 241.188 100.629 241.188C72.1811 241.188 49.084 214.37 49.084 181.338C49.084 148.349 72.121 121.556 100.517 121.487Z" fill="#FDA425"/>
<g id="Group_5">
<path id="Vector_6" d="M100.627 241.189C129.094 241.189 152.171 214.393 152.171 181.338C152.171 148.283 129.094 121.487 100.627 121.487C72.1608 121.487 49.084 148.283 49.084 181.338C49.084 214.393 72.1608 241.189 100.627 241.189Z" fill="#FFCD80"/>
</g>
<g id="Group_6">
<g id="Group_7">
<g id="Group_8">
<path id="Vector_7" fill-rule="evenodd" clip-rule="evenodd" d="M100.756 145.91L98.9757 145.81L99.0166 143.155L102.121 143.328C102.857 143.369 103.441 143.996 103.43 144.729L103.361 149.221C106.076 149.494 108.677 150.076 111.16 150.964C114.331 152.097 117.314 153.732 120.105 155.863C120.421 156.102 120.618 156.466 120.651 156.854C120.681 157.241 120.543 157.617 120.269 157.883L114.191 163.775C113.732 164.218 113.01 164.252 112.479 163.853C109.727 161.789 106.633 160.452 103.197 159.841L102.967 174.807C115.746 178.239 121.811 184.724 121.496 193.907C121.344 198.897 119.422 202.93 115.752 205.994C112.397 208.903 107.954 210.649 102.406 211.189L102.287 218.907C102.276 219.639 101.674 220.198 100.938 220.158L97.8903 219.988L97.9311 217.335L99.6541 217.431L99.7704 209.881C99.7807 209.209 100.29 208.672 100.959 208.63C106.416 208.275 110.759 206.736 113.988 203.94C117.1 201.341 118.714 197.932 118.843 193.714C119.126 185.452 113.176 180.044 101.352 177.111C100.729 176.954 100.286 176.382 100.296 175.746L100.566 158.235C100.571 157.869 100.729 157.528 101 157.29C101.27 157.056 101.631 156.945 101.996 156.991C106.103 157.478 109.797 158.842 113.077 161.078L117.264 157.02C115.082 155.518 112.782 154.331 110.357 153.466C107.708 152.518 104.918 151.954 101.981 151.765C101.253 151.719 100.676 151.093 100.687 150.364L100.756 145.91ZM102.572 200.45C104.51 199.973 105.933 199.229 106.799 198.155C107.339 197.461 107.739 196.669 107.998 195.78L110.549 196.629C110.192 197.83 109.646 198.902 108.903 199.86C107.482 201.618 105.027 202.844 101.474 203.399C101.082 203.46 100.675 203.34 100.366 203.071C100.061 202.801 99.8854 202.411 99.8916 202.011L100.036 192.625L102.69 192.773L102.572 200.45ZM88.6271 162.091C89.111 160.917 89.7339 159.952 90.4816 159.19C90.4997 159.171 90.5213 159.152 90.5394 159.133C92.2231 157.623 94.209 156.807 96.4899 156.687C96.8636 156.668 97.2383 156.811 97.5151 157.077C97.7918 157.345 97.9462 157.714 97.9404 158.088L97.822 165.775L95.1683 165.627L95.2616 159.566C94.1978 159.842 93.2405 160.36 92.3861 161.119C91.855 161.669 91.4247 162.369 91.0775 163.21C91.07 163.232 91.059 163.254 91.048 163.276C90.6329 164.145 90.4315 165.216 90.4121 166.472L87.7584 166.325C87.784 164.659 88.0831 163.25 88.6271 162.091Z" fill="#FDA31F"/>
</g>
<g id="Group_9">
<path id="Vector_8" fill-rule="evenodd" clip-rule="evenodd" d="M89.6573 172.001C88.3729 170.436 87.73 168.548 87.7642 166.327L90.4179 166.474C90.3945 167.998 90.8047 169.299 91.6877 170.37L91.7191 170.409C92.4092 171.311 93.532 172.055 95.0653 172.696L95.1741 165.629L97.8278 165.777L97.6914 174.637C97.685 175.049 97.4872 175.427 97.1565 175.661C96.8294 175.893 96.4017 175.957 96.0055 175.83C92.9415 174.847 90.8461 173.535 89.6573 172.001Z" fill="#FDA31F"/>
</g>
<g id="Group_10">
<path id="Vector_9" fill-rule="evenodd" clip-rule="evenodd" d="M102.864 186.394L102.766 192.746L100.113 192.599L100.235 184.635C100.241 184.246 100.418 183.886 100.716 183.65C101.019 183.414 101.411 183.326 101.794 183.409C105.49 184.22 107.944 185.552 109.241 187.223L109.269 187.264C110.529 189.015 111.149 190.992 111.115 193.2C111.096 194.434 110.929 195.569 110.625 196.603L108.075 195.754C108.319 194.932 108.446 194.031 108.461 193.052C108.486 191.466 108.053 190.045 107.155 188.785C106.339 187.746 104.896 186.978 102.864 186.394Z" fill="#FDA31F"/>
</g>
<g id="Group_11">
<path id="Vector_10" fill-rule="evenodd" clip-rule="evenodd" d="M94.9624 184.296C82.6773 180.866 76.9148 174.56 77.3317 165.731C77.5203 160.406 79.2933 156.333 82.5693 153.477C85.5678 150.864 89.8698 149.266 95.5096 148.762L95.5807 144.146C95.5919 143.413 96.1944 142.851 96.9262 142.892L99.1003 143.013L99.0595 145.669L98.2139 145.622L98.1453 150.076C98.135 150.751 97.6218 151.291 96.9492 151.33C91.415 151.667 87.2056 153.028 84.3549 155.513C81.5798 157.934 80.1465 161.418 79.9843 165.95C79.6101 173.858 85.2683 179.085 96.5869 182.01C97.2031 182.169 97.6424 182.739 97.6327 183.368L97.35 201.723C97.3442 202.097 97.1789 202.443 96.9015 202.68C96.6205 202.917 96.2492 203.019 95.8767 202.964C92.5599 202.467 89.7577 201.567 87.4734 200.284C85.4625 199.263 83.668 198.036 82.0866 196.599L76.9369 200.601C79.3649 202.479 82.0635 204.1 85.022 205.466C88.4755 207.022 92.1131 207.928 95.9384 208.192C96.6665 208.244 97.24 208.867 97.2288 209.593L97.1125 217.143L98.0149 217.193L97.9741 219.846L95.743 219.722C95.0112 219.681 94.4271 219.055 94.4384 218.323L94.5553 210.731C90.8777 210.344 87.3651 209.393 84.0071 207.88C80.2542 206.149 76.9124 204.038 73.9676 201.549C73.6588 201.287 73.4763 200.899 73.4754 200.499C73.4709 200.098 73.6508 199.725 73.9603 199.484L81.2979 193.784C81.8162 193.378 82.5761 193.44 83.0592 193.93C84.6382 195.526 86.4951 196.859 88.619 197.934L88.6754 197.963C90.3674 198.917 92.3833 199.62 94.7193 200.082L94.9624 184.296Z" fill="#FDA31F"/>
</g>
</g>
<g id="Group_12">
<path id="Vector_11" fill-rule="evenodd" clip-rule="evenodd" d="M98.0848 133.388C118.876 133.388 135.575 155.01 135.575 181.469C135.575 207.926 118.876 229.549 98.0848 229.549C97.327 229.549 96.7109 230.164 96.7109 230.921C96.7109 231.679 97.327 232.296 98.0848 232.296C120.192 232.296 138.32 209.6 138.32 181.469C138.32 153.336 120.192 130.642 98.0848 130.642C97.327 130.642 96.7109 131.257 96.7109 132.015C96.7109 132.773 97.327 133.388 98.0848 133.388Z" fill="#FDA425"/>
</g>
<g id="Group_13">
<path id="Vector_12" fill-rule="evenodd" clip-rule="evenodd" d="M98.1352 229.549C77.343 229.549 60.6454 207.926 60.6454 181.469C60.6454 155.01 77.343 133.388 98.1352 133.388C98.8931 133.388 99.5078 132.773 99.5078 132.015C99.5078 131.257 98.8931 130.642 98.1352 130.642C76.0285 130.642 57.8989 153.336 57.8989 181.469C57.8989 209.6 76.0285 232.296 98.1352 232.296C98.8931 232.296 99.5078 231.679 99.5078 230.921C99.5078 230.164 98.8931 229.549 98.1352 229.549Z" fill="#FDA425"/>
</g>
</g>
<path id="Vector_13" fill-rule="evenodd" clip-rule="evenodd" d="M138.36 236.333H118.693C117.936 236.333 117.319 235.717 117.319 234.96C117.319 234.201 117.936 233.587 118.693 233.587H142.317C142.476 233.587 142.629 233.614 142.771 233.664C141.343 234.634 139.872 235.525 138.36 236.333ZM160.798 213.21C160.3 214.142 159.784 215.059 159.245 215.957H140.358C139.599 215.957 138.985 215.342 138.985 214.583C138.985 213.825 139.599 213.21 140.358 213.21H160.798ZM164.525 204.827C164.188 205.755 163.831 206.67 163.459 207.573H142.317C141.558 207.573 140.943 206.959 140.943 206.2C140.943 205.443 141.558 204.827 142.317 204.827H164.525ZM168.454 176.953C168.512 177.864 168.551 178.779 168.574 179.699H149.715C148.956 179.699 148.342 179.085 148.342 178.326C148.342 177.569 148.956 176.953 149.715 176.953H168.454ZM165.453 160.787C165.738 161.693 166.008 162.61 166.257 163.533H145.71C144.953 163.533 144.337 162.919 144.337 162.16C144.337 161.403 144.953 160.787 145.71 160.787H165.453ZM162.635 153.449C163.045 154.352 163.438 155.267 163.809 156.195H144.97C144.213 156.195 143.597 155.581 143.597 154.822C143.597 154.065 144.213 153.449 144.97 153.449H162.635ZM144.366 130.642C145.55 131.503 146.702 132.418 147.821 133.388H126.091C125.334 133.388 124.717 132.772 124.717 132.015C124.717 131.256 125.334 130.642 126.091 130.642H144.366Z" fill="#FFCD80"/>
</g>
<g id="BILLS">
<g id="Group_14">
<path id="Vector_14" fill-rule="evenodd" clip-rule="evenodd" d="M55.0287 22.3322C56.2433 18.142 59.705 6.16447 62.203 0.812267L76.5842 8.61449C76.5842 8.61449 70.3897 30.9987 69.054 37.4178L52.3277 33.4395C52.8355 29.9419 53.8065 26.5479 55.0287 22.3322Z" fill="#56B2AA"/>
</g>
<g id="Group_15">
<path id="Vector_15" d="M62.6561 26.8211C65.4093 26.8211 67.6413 24.4853 67.6413 21.6038C67.6413 18.7224 65.4093 16.3865 62.6561 16.3865C59.9028 16.3865 57.6709 18.7224 57.6709 21.6038C57.6709 24.4853 59.9028 26.8211 62.6561 26.8211Z" fill="#A8CFCC" fill-opacity="0.63"/>
</g>
<path id="Vector_16" fill-rule="evenodd" clip-rule="evenodd" d="M59.0629 27.9674C59.8748 25.7042 64.4046 13.9653 67.1991 10.4374L80.2152 17.7527C80.2152 17.7527 73.1999 36.3931 71.6002 41.7604L56.1826 37.5658C56.8486 34.6305 57.7927 31.507 59.0629 27.9674Z" fill="#A8CFCC"/>
<g id="Group_16">
<path id="Vector_17" d="M68.1512 32.092C70.9045 32.092 73.1364 29.7561 73.1364 26.8747C73.1364 23.9932 70.9045 21.6573 68.1512 21.6573C65.398 21.6573 63.166 23.9932 63.166 26.8747C63.166 29.7561 65.398 32.092 68.1512 32.092Z" fill="#56B2AA"/>
</g>
</g>
<g id="ORANGE CHARACTER">
<g id="Group_17">
<path id="Vector_18" d="M100.265 28.9895C106.338 28.9895 111.261 24.0666 111.261 17.9939C111.261 11.9213 106.338 6.99841 100.265 6.99841C94.1924 6.99841 89.2695 11.9213 89.2695 17.9939C89.2695 24.0666 94.1924 28.9895 100.265 28.9895Z" fill="#E86135"/>
</g>
<path id="Vector_19" fill-rule="evenodd" clip-rule="evenodd" d="M93.0479 9.78669C94.9926 8.05286 97.5554 6.99841 100.362 6.99841C106.431 6.99841 111.358 11.9254 111.358 17.9939C111.358 20.076 110.778 22.0239 109.772 23.6839C101.606 20.0156 102.803 11.1652 102.803 11.1652C98.3141 12.6316 94.9617 11.1465 93.0479 9.78669Z" fill="black"/>
<g id="Group_18">
<g id="Group_19">
<path id="Vector_20" fill-rule="evenodd" clip-rule="evenodd" d="M53.1967 157.755C53.1967 157.755 49.9817 151.534 53.1967 146.874L47.4893 136.846C47.4893 136.846 44.7155 135.069 41.5657 133.051C34.444 128.487 30.3587 120.421 30.8926 111.981C30.9338 111.338 31.0076 110.748 31.1191 110.232C27.8441 107.142 25.1389 100.206 26.1345 93.5701C26.1345 93.5699 26.1345 93.5699 26.1345 93.5699C27.5197 84.3271 35.1975 77.3233 44.5284 76.7917C59.5443 75.94 85.314 75.358 101.157 79.9013L97.5938 71.0302C97.5938 71.0302 72.2411 80.0958 65.8198 59.2773C51.2656 65.1543 35.0585 69.4503 19.0333 71.775C12.3339 72.7499 5.72365 69.5018 2.40224 63.602C2.39537 63.6062 2.39537 63.6062 2.39537 63.6062C-0.414532 58.616 0.483192 52.3602 4.58218 48.3608C8.70347 44.3845 15.7325 39.2409 27.7359 33.3231C27.7359 33.3231 39.76 26.9649 46.801 23.2417C49.9474 21.5784 53.6773 21.4335 56.9421 22.8481C63.8784 25.8523 75.3377 30.8169 75.3377 30.8169L76.6766 27.4376C84.6342 28.7627 92.4529 31.1734 100.119 34.1567C108.26 37.3351 114.568 43.9645 117.337 52.2523C124.155 72.6613 137.028 111.847 138.717 121.664H143.544C146.256 121.664 148.606 123.545 149.198 126.192C149.66 128.26 150.106 130.256 150.106 130.256C150.106 130.256 153.181 133.694 154.08 136.846C154.446 138.13 152.398 139.627 150.106 137.222C149.428 136.51 142.844 131.314 139.886 130.989C137.624 130.74 135.623 130.481 133.757 130.253C128.029 129.551 122.945 126.245 119.977 121.293C117.993 117.983 116.168 114.938 116.168 114.938C116.168 114.938 109.982 124.86 93.0004 123.069L95.6387 157.365C95.6387 157.365 92.2503 156.563 91.1174 151.026C91.1174 151.026 71.9802 148.477 61.0805 143.861C61.0805 143.861 56.7807 148.13 53.1967 157.755Z" fill="url(#paint0_linear_1_21237)"/>
<path id="Vector_21" fill-rule="evenodd" clip-rule="evenodd" d="M138.63 121.254C138.663 121.425 138.692 121.588 138.72 121.745H141.004C142.11 122.521 143.79 123.739 145.611 125.191L146.197 124.532C146.449 124.249 146.883 124.223 147.166 124.476C147.45 124.726 147.475 125.161 147.223 125.444L146.679 126.057C147.712 126.91 148.763 127.823 149.757 128.76L150.108 130.337L138.922 121.978C138.677 121.817 138.569 121.523 138.63 121.254Z" fill="#D7441E"/>
<path id="Vector_22" fill-rule="evenodd" clip-rule="evenodd" d="M73.385 147.696L82.8927 120.702C83.0506 120.254 83.5415 120.019 83.9878 120.177C84.4341 120.335 84.6692 120.824 84.513 121.272L75.0655 148.09C74.5076 147.963 73.948 147.831 73.385 147.696ZM47.5295 136.859C47.5295 136.859 51.2096 138.839 54.3766 140.476C58.3897 142.555 62.5934 144.498 61.1207 143.875C61.1207 143.875 60.7104 144.283 60.0376 145.13C56.4278 143.513 52.2722 141.333 49.0864 139.596L47.5295 136.859ZM29.8496 108.763C32.6046 95.5488 42.9036 88.0407 54.8847 83.8645C71.8196 77.9611 92.0965 78.7612 98.4389 79.1973C99.371 79.4167 100.725 79.7071 101.597 79.9564C101.647 80.0798 102.03 80.3167 102.016 80.4576C101.966 80.9288 102.62 81.2738 102.148 81.2252C102.148 81.2252 75.8138 79.5612 55.4494 85.4854C42.8057 89.1631 34.0653 98.3256 31.1593 110.245C30.7096 109.821 30.2702 109.323 29.8496 108.763Z" fill="#D7441E"/>
<path id="Vector_23" fill-rule="evenodd" clip-rule="evenodd" d="M93.1736 124.742C90.0101 124.256 85.997 122.939 81.7641 121.218C69.3607 116.178 55.0023 107.744 55.0023 107.744C54.5937 107.504 54.4581 106.977 54.6967 106.569C54.937 106.161 55.464 106.024 55.8725 106.264C55.8725 106.264 70.1091 114.63 82.4095 119.628C86.8483 121.432 93.4053 123.084 93.0208 123.044L93.1736 124.742Z" fill="#8A2208"/>
</g>
<g id="Group_20">
<path id="Vector_24" fill-rule="evenodd" clip-rule="evenodd" d="M100.179 77.4627L97.5938 71.0302C97.5938 71.0302 72.2412 80.0958 65.8198 59.2774C51.2656 65.1543 35.0585 69.4503 19.0333 71.775C12.3339 72.7499 5.72365 69.5018 2.40224 63.6021C2.39537 63.6062 2.39537 63.6062 2.39537 63.6062C-0.414532 58.616 0.483192 52.3602 4.58218 48.3608C8.70347 44.3845 15.7325 39.2409 27.7359 33.3231C27.7359 33.3231 39.76 26.9649 46.801 23.2417C49.9474 21.5784 53.6773 21.4335 56.9421 22.8481C63.8784 25.8523 75.3377 30.8169 75.3377 30.8169L76.6766 27.4376C84.6342 28.7627 92.4529 31.1734 100.119 34.1567C108.26 37.3351 114.568 43.9645 117.337 52.2523C121.432 64.5099 127.711 83.5408 132.439 98.9131L112.678 104.939C108.392 95.9502 104.046 87.0346 100.247 77.4741L100.179 77.4627Z" fill="#D7441E"/>
<path id="Vector_25" fill-rule="evenodd" clip-rule="evenodd" d="M93.916 72.1168C93.2878 68.9783 93.1401 65.6844 93.1985 62.3242C93.2002 62.1393 93.3341 61.9823 93.516 61.9483C93.698 61.9141 93.8782 62.0123 93.9486 62.1833C95.6239 66.267 99.7263 76.2614 99.7263 76.2614H99.6628L97.5927 71.1092C97.5927 71.1092 96.1697 71.6176 93.916 72.1168ZM39.589 51.8096L18.495 63.6924C18.0814 63.9248 17.9355 64.4487 18.1672 64.8613C18.4006 65.274 18.9241 65.4204 19.3378 65.1878L40.4318 53.3052C40.8455 53.0728 40.9914 52.5489 40.7579 52.1363C40.5262 51.7235 40.0027 51.5772 39.589 51.8096ZM61.3764 61.082C62.1746 55.3089 64.0731 51.2607 65.3947 49.0276C65.4789 48.9043 65.6419 48.8619 65.7775 48.928C65.9114 48.9939 65.9784 49.1484 65.932 49.2914C64.5674 54.1969 65.7398 59.0443 65.8153 59.342L65.8187 59.3564C64.3545 59.9477 62.8732 60.5229 61.3764 61.082Z" fill="#8A2208"/>
</g>
<g id="Group_21">
<path id="Vector_26" fill-rule="evenodd" clip-rule="evenodd" d="M28.7046 32.8358L46.8479 23.2416C49.9943 21.5784 53.7242 21.4335 56.989 22.8481L74.8851 30.6008C75.0053 30.6808 75.1152 30.7528 75.213 30.8169C78.1963 32.7718 75.8395 34.7046 75.0053 34.4287C77.0428 35.397 76.9741 37.006 76.4935 37.7033C75.7022 38.8535 72.87 38.4338 72.87 38.4338C73.6578 38.7148 74.3805 40.2523 73.7694 41.3927C72.7876 43.2261 70.1013 42.1122 70.1013 42.1122C70.5888 44.669 67.9454 44.6774 64.7201 43.9944C62.2226 43.4655 61.0776 42.9059 58.9526 42.3759C55.5179 51.5347 45.2619 50.4769 45.2619 50.4769L38.504 54.3081L28.7046 32.8358Z" fill="url(#paint1_linear_1_21237)"/>
<path id="Vector_27" fill-rule="evenodd" clip-rule="evenodd" d="M70.1659 42.1509L58.6808 37.6926C58.3272 37.5555 58.1522 37.1572 58.2895 36.804C58.4268 36.4507 58.825 36.2753 59.1786 36.4124L73.3912 41.9299C72.2205 42.9537 70.1556 42.0976 70.1556 42.0976C70.159 42.1157 70.1624 42.1333 70.1659 42.1509ZM73.0977 38.5021L60.0403 33.433C59.6867 33.2958 59.5116 32.8978 59.6489 32.5445C59.7862 32.1912 60.1845 32.0158 60.5381 32.1528L75.5042 37.9631C75.6415 38.0163 75.7513 38.1088 75.8269 38.223C74.694 38.6815 72.9243 38.4192 72.9243 38.4192C72.9827 38.4401 73.041 38.4679 73.0977 38.5021ZM75.1987 34.4392L61.6057 29.1621C61.2521 29.025 61.0754 28.6268 61.2127 28.2735C61.35 27.9203 61.7482 27.7448 62.1018 27.882L76.5684 33.4982C76.268 34.09 75.6209 34.4642 75.1987 34.4392Z" fill="#D7441E"/>
</g>
</g>
</g>
<g id="LITTLE COIN PILE">
<g id="Group_22">
<path id="Vector_28" fill-rule="evenodd" clip-rule="evenodd" d="M33.9817 232.057C33.0101 231.403 32.3682 230.292 32.3682 229.034V221.754C32.3682 219.746 33.9988 218.115 36.0088 218.115H91.2816C93.2899 218.115 94.9206 219.746 94.9206 221.754V229.034C94.9206 230.292 94.2803 231.403 93.3071 232.057C94.2803 232.711 94.9206 233.821 94.9206 235.08V242.359C94.9206 244.369 93.2899 246 91.2816 246H36.0088C33.9988 246 32.3682 244.369 32.3682 242.359V235.08C32.3682 233.821 33.0101 232.711 33.9817 232.057Z" fill="#FFDBA3"/>
</g>
<g id="Group_23">
<path id="Vector_29" fill-rule="evenodd" clip-rule="evenodd" d="M78.3971 230.582H94.5715C94.29 231.181 93.8489 231.691 93.303 232.057C93.4146 232.132 93.521 232.213 93.624 232.299H88.3836V246H86.6671V232.299H72.319V246H70.6025V232.299H68.4122V246H66.6957V232.299H44.5324V246H42.8159V232.299H33.6584C33.7597 232.213 33.8661 232.132 33.9777 232.057C33.4336 231.691 32.9924 231.181 32.7109 230.582H52.8025V218.115H54.519V230.582H56.7092V218.115H58.4257V230.582H76.6806V218.115H78.3971V230.582Z" fill="#FDA425"/>
</g>
</g>
</g>
<defs>
<linearGradient id="paint0_linear_1_21237" x1="106.552" y1="114.708" x2="9.72652" y2="28.9091" gradientUnits="userSpaceOnUse">
<stop stop-color="#E86135"/>
<stop offset="0.48" stop-color="#EE734F"/>
<stop offset="1" stop-color="#FFA396"/>
</linearGradient>
<linearGradient id="paint1_linear_1_21237" x1="52.7458" y1="40.9409" x2="59.6921" y2="-4.66747" gradientUnits="userSpaceOnUse">
<stop stop-color="#E86135"/>
<stop offset="1" stop-color="#FFA396"/>
</linearGradient>
</defs>
</svg>
